<svg width="16" height="16" viewBox="0 0 16 16" fill="none" xmlns="http://www.w3.org/2000/svg">
<path d="M8.43945 15.1094C9.57324 15.1094 10.6279 14.9512 11.4893 14.6611V13.2988C10.7949 13.5713 9.65234 13.7383 8.52734 13.7383C4.90625 13.7383 2.35742 11.585 2.35742 7.71777V7.70898C2.35742 4.13184 4.74805 1.6709 8.13184 1.6709C11.5332 1.6709 13.7744 3.7627 13.7744 7.11133V7.12012C13.7744 9.04492 13.2207 10.082 12.3945 10.082C11.7617 10.082 11.3486 9.51953 11.3486 8.40332V4.2373H9.73145V5.32715H9.66113C9.31836 4.54492 8.49219 4.05273 7.52539 4.05273C5.75879 4.05273 4.49316 5.55566 4.49316 7.70898V7.71777C4.49316 9.98535 5.72363 11.4883 7.52539 11.4883C8.6416 11.4883 9.5293 10.9609 9.96875 9.90625H10.0391L10.1006 10.0381C10.4434 10.8906 11.2168 11.5146 12.3066 11.5146C14.0469 11.5146 15.3125 9.91504 15.3125 7.06738V7.05859C15.3125 2.93652 12.3945 0.317383 8.21094 0.317383C3.86035 0.317383 0.819336 3.31445 0.819336 7.7002V7.70898C0.819336 12.3936 3.9834 15.1094 8.43945 15.1094ZM7.90332 10.0117C6.89258 10.0117 6.26855 9.15918 6.26855 7.74414V7.73535C6.26855 6.33789 6.89258 5.51172 7.9209 5.51172C8.94922 5.51172 9.62598 6.36426 9.62598 7.73535V7.75293C9.62598 9.1416 8.94922 10.0117 7.90332 10.0117Z" fill="black"/>
</svg>
