<svg width="6" height="10" viewBox="0 0 6 10" fill="none" xmlns="http://www.w3.org/2000/svg">
<path d="M0.279313 0.280602C0.100415 0.458339 0 0.698769 0 0.949381C0 1.19999 0.100415 1.44042 0.279313 1.61816L3.67957 5.02372L0.279313 8.38184C0.100415 8.55958 0 8.80001 0 9.05062C0 9.30123 0.100415 9.54166 0.279313 9.7194C0.368606 9.80831 0.474841 9.87888 0.59189 9.92704C0.708939 9.9752 0.834485 10 0.961285 10C1.08809 10 1.21363 9.9752 1.33068 9.92704C1.44773 9.87888 1.55396 9.80831 1.64326 9.7194L5.71588 5.69724C5.80591 5.60905 5.87736 5.50413 5.92613 5.38853C5.97489 5.27294 6 5.14895 6 5.02372C6 4.89849 5.97489 4.7745 5.92613 4.6589C5.87736 4.5433 5.80591 4.43838 5.71588 4.35019L1.64326 0.280602C1.55396 0.191689 1.44773 0.121118 1.33068 0.072957C1.21363 0.0247965 1.08809 0 0.961285 0C0.834485 0 0.708939 0.0247965 0.59189 0.072957C0.474841 0.121118 0.368606 0.191689 0.279313 0.280602Z" fill="black"/>
</svg>
