<svg width="11" height="12" viewBox="0 0 11 12" fill="none" xmlns="http://www.w3.org/2000/svg">
<path d="M7.76012 0.239997L1.19027 0.239997C0.934891 0.248055 0.692195 0.353178 0.511628 0.533946C0.422435 0.622622 0.352352 0.728627 0.305698 0.845427C0.259045 0.962227 0.23681 1.08735 0.240365 1.21307V8.76H1.19075V1.21307L7.7606 1.21307L7.76012 0.239997Z" fill="white"/>
<path d="M9.78693 10.7873H4.02237V4.0221H9.78693V10.7873ZM9.78693 3.0722H4.02237C3.89504 3.06939 3.76843 3.09198 3.64992 3.13864C3.53141 3.18529 3.42339 3.25509 3.33215 3.34394C3.24006 3.43081 3.16728 3.53608 3.11855 3.65292C3.06982 3.76976 3.04622 3.89554 3.0493 4.0221V10.7873C3.04615 10.9139 3.06972 11.0398 3.11845 11.1567C3.16718 11.2736 3.23999 11.379 3.33215 11.4659C3.51803 11.6457 3.76389 11.7504 4.02237 11.7598H9.78693C10.0454 11.7504 10.2913 11.6457 10.4772 11.4659C10.5693 11.379 10.6421 11.2736 10.6909 11.1567C10.7396 11.0398 10.7631 10.9139 10.76 10.7873V4.0221C10.7631 3.89546 10.7396 3.76958 10.6909 3.65266C10.6421 3.53573 10.5693 3.43038 10.4772 3.34346C10.3859 3.25469 10.2778 3.18499 10.1593 3.13841C10.0408 3.09184 9.91423 3.06933 9.78693 3.0722Z" fill="white"/>
<path fill-rule="evenodd" clip-rule="evenodd" d="M1.19027 0H8L8.00072 1.45306L1.43075 1.45306V9H0.000367982V1.21626C-0.00359279 1.05899 0.0244552 0.902531 0.0828229 0.756404C0.141583 0.609294 0.229828 0.475768 0.342123 0.364043C0.565825 0.140242 0.866413 0.0100993 1.1827 0.000119388L1.19027 0ZM1.19431 0.479994C1.00128 0.486976 0.817997 0.566831 0.681425 0.703555C0.615476 0.769123 0.563069 0.848089 0.528573 0.934451C0.494078 1.02081 0.477637 1.11333 0.480266 1.20628L0.480458 1.21307L0.480362 8.52001H0.950753V0.973071L7.52049 0.973071L7.52024 0.479994L1.19431 0.479994ZM9.78439 2.8322C9.94257 2.82901 10.0998 2.85717 10.2471 2.91505C10.3947 2.97305 10.5293 3.05976 10.6432 3.17014C10.7592 3.27994 10.8509 3.41287 10.9124 3.56033C10.9737 3.70739 11.0035 3.86563 11 4.02489V10.7845C11.0035 10.9437 10.9737 11.102 10.9124 11.249C10.8509 11.3966 10.7591 11.5296 10.643 11.6394C10.4146 11.8598 10.1129 11.9881 9.79565 11.9997L9.78693 12L4.01364 11.9998C3.69644 11.9883 3.39472 11.8598 3.16636 11.6394C3.05022 11.5296 2.95843 11.3966 2.89692 11.249C2.83563 11.102 2.80579 10.9437 2.8093 10.7845V4.02484C2.80586 3.86566 2.83575 3.7075 2.89705 3.56053C2.95849 3.4132 3.05014 3.2804 3.16607 3.17068C3.27986 3.06022 3.41443 2.97342 3.562 2.91532C3.7093 2.85733 3.86661 2.82908 4.02486 2.8322H9.78439ZM10.0715 3.36178C9.98269 3.32686 9.88778 3.30998 9.79234 3.31213L9.78693 3.31225L4.01709 3.31219C3.92162 3.31009 3.82669 3.32697 3.73784 3.36195C3.64899 3.39693 3.568 3.44926 3.49958 3.51588L3.49684 3.51855C3.42925 3.5823 3.37582 3.65955 3.34005 3.7453C3.30428 3.83106 3.28697 3.92338 3.28922 4.01627L3.28937 4.0221L3.28929 10.7932C3.28699 10.8862 3.30421 10.9785 3.33998 11.0644C3.37574 11.1502 3.42919 11.2275 3.49682 11.2913L3.49903 11.2934C3.64135 11.4311 3.82926 11.5117 4.02702 11.5198H9.78228C9.98004 11.5117 10.168 11.4311 10.3103 11.2934L10.3125 11.2913C10.3801 11.2275 10.4336 11.1502 10.4693 11.0644C10.5051 10.9785 10.5224 10.8862 10.5201 10.7932L10.5199 10.7873L10.52 4.01614C10.5223 3.92319 10.5051 3.83081 10.4693 3.74499C10.4336 3.65917 10.3801 3.58184 10.3125 3.51805L10.3098 3.51553C10.2414 3.44898 10.1604 3.3967 10.0715 3.36178ZM3.78237 3.7821H10.0269V11.0273H3.78237V3.7821ZM4.26237 4.2621V10.5473H9.54694V4.2621H4.26237Z" fill="white"/>
</svg>
