<svg width="41" height="40" viewBox="0 0 41 40" fill="none" xmlns="http://www.w3.org/2000/svg">
<rect x="0.200195" width="40" height="40" rx="20" fill="#795CEA" fill-opacity="0.15"/>
<path fill-rule="evenodd" clip-rule="evenodd" d="M12.8031 12.803C11.9631 13.643 11.5138 15.022 11.5138 17.2477V22.7523C11.5138 24.978 11.9631 26.357 12.8031 27.1969C13.643 28.0369 15.022 28.4862 17.2477 28.4862H22.7523C24.978 28.4862 26.357 28.0369 27.197 27.1969C28.0369 26.357 28.4863 24.978 28.4863 22.7523V17.2477C28.4863 15.022 28.0369 13.643 27.197 12.803C26.357 11.9631 24.978 11.5138 22.7523 11.5138H17.2477C15.022 11.5138 13.643 11.9631 12.8031 12.803ZM11.83 11.83C13.0543 10.6057 14.8863 10.1376 17.2477 10.1376H22.7523C25.1138 10.1376 26.9458 10.6057 28.1701 11.83C29.3943 13.0543 29.8624 14.8863 29.8624 17.2477V22.7523C29.8624 25.1137 29.3943 26.9457 28.1701 28.17C26.9458 29.3943 25.1138 29.8624 22.7523 29.8624H17.2477C14.8863 29.8624 13.0543 29.3943 11.83 28.17C10.6057 26.9457 10.1376 25.1137 10.1376 22.7523V17.2477C10.1376 14.8863 10.6057 13.0543 11.83 11.83Z" fill="#795CEA"/>
<path fill-rule="evenodd" clip-rule="evenodd" d="M11.7327 11.7327C12.9954 10.4699 14.8727 10 17.2477 10H22.7523C25.1273 10 27.0046 10.4699 28.2673 11.7327C29.5301 12.9954 30 14.8727 30 17.2477V22.7523C30 25.1273 29.5301 27.0046 28.2673 28.2673C27.0046 29.5301 25.1273 30 22.7523 30H17.2477C14.8727 30 12.9954 29.5301 11.7327 28.2673C10.4699 27.0046 10 25.1273 10 22.7523V17.2477C10 14.8727 10.4699 12.9954 11.7327 11.7327ZM17.2477 10.2752C14.8998 10.2752 13.1131 10.7415 11.9273 11.9273C10.7415 13.1131 10.2752 14.8998 10.2752 17.2477V22.7523C10.2752 25.1002 10.7415 26.8869 11.9273 28.0727C13.1131 29.2585 14.8998 29.7248 17.2477 29.7248H22.7523C25.1002 29.7248 26.8869 29.2585 28.0727 28.0727C29.2585 26.8869 29.7248 25.1002 29.7248 22.7523V17.2477C29.7248 14.8998 29.2585 13.1131 28.0727 11.9273C26.8869 10.7415 25.1002 10.2752 22.7523 10.2752H17.2477ZM17.2477 11.6514C15.0356 11.6514 13.7019 12.0988 12.9004 12.9004C12.0988 13.7019 11.6514 15.0356 11.6514 17.2477V22.7523C11.6514 24.9644 12.0988 26.2981 12.9004 27.0996C13.7019 27.9012 15.0356 28.3486 17.2477 28.3486H22.7523C24.9644 28.3486 26.2981 27.9012 27.0996 27.0996C27.9012 26.2981 28.3486 24.9644 28.3486 22.7523V17.2477C28.3486 15.0356 27.9012 13.7019 27.0996 12.9004C26.2981 12.0988 24.9644 11.6514 22.7523 11.6514H17.2477ZM12.7057 12.7057C13.5841 11.8274 15.0084 11.3761 17.2477 11.3761H22.7523C24.9916 11.3761 26.4159 11.8274 27.2943 12.7057C28.1726 13.5841 28.6239 15.0084 28.6239 17.2477V22.7523C28.6239 24.9916 28.1726 26.4159 27.2943 27.2943C26.4159 28.1726 24.9916 28.6239 22.7523 28.6239H17.2477C15.0084 28.6239 13.5841 28.1726 12.7057 27.2943C11.8274 26.4159 11.3761 24.9916 11.3761 22.7523V17.2477C11.3761 15.0084 11.8274 13.5841 12.7057 12.7057Z" fill="#795CEA"/>
<path d="M18.1226 15C18.6714 15 19.0873 15.1335 19.37 15.4005C19.5364 15.5543 19.6653 15.7687 19.7567 16.0438C19.8482 16.3189 19.894 16.7073 19.894 17.209V17.9979H21.536C21.9047 17.9979 22.2036 18.2968 22.2036 18.6655C22.2036 19.0342 21.9047 19.3331 21.536 19.3331H19.894V23.0095C19.894 23.236 19.9272 23.406 19.9938 23.5192C20.0603 23.6244 20.21 23.677 20.4429 23.677C20.6923 23.677 20.9377 23.6244 21.1789 23.5192C21.42 23.414 21.6155 23.2765 21.7652 23.1066C21.9232 22.9366 22.0022 22.7546 22.0022 22.5604C22.0022 22.4876 21.9689 22.4188 21.9024 22.354C21.8359 22.2893 21.7069 22.2569 21.5157 22.2569C21.2969 22.2569 21.0874 22.1129 21.0526 21.8969L21.0105 21.6359C20.9576 21.3081 21.1665 20.9931 21.4974 20.9657C21.6545 20.9526 21.8227 20.9461 22.0022 20.9461C22.4929 20.9461 22.8879 21.0553 23.1873 21.2738C23.4867 21.4923 23.6364 21.8321 23.6364 22.2934C23.6364 22.7303 23.5324 23.1187 23.3245 23.4586C23.1166 23.7984 22.8421 24.0816 22.5012 24.3082C22.1602 24.5347 21.786 24.7087 21.3784 24.8301C20.9793 24.9434 20.5884 25 20.2058 25C19.8565 25 19.5613 24.9595 19.3201 24.8786C19.0873 24.7977 18.9002 24.6925 18.7588 24.5631C18.6673 24.474 18.58 24.3729 18.4968 24.2596C18.422 24.1463 18.3596 23.9886 18.3097 23.7863C18.2681 23.584 18.2473 23.3129 18.2473 22.9731V19.3331H17.867C17.4983 19.3331 17.1994 19.0342 17.1994 18.6655C17.1994 18.2968 17.4983 17.9979 17.867 17.9979H18.2473V17.2697C18.2473 16.9622 18.2057 16.7316 18.1226 16.5779C18.0394 16.4241 17.8481 16.3473 17.5487 16.3473C17.4827 16.3473 17.4156 16.3514 17.3474 16.3598C17.0532 16.3961 16.7415 16.2821 16.6183 16.0125C16.4816 15.713 16.6232 15.3396 16.9208 15.199C17.0312 15.1469 17.1365 15.1039 17.2369 15.085C17.4947 15.0283 17.7899 15 18.1226 15Z" fill="#795CEA"/>
</svg>
