<svg width="41" height="40" viewBox="0 0 41 40" fill="none" xmlns="http://www.w3.org/2000/svg">
<rect x="0.399902" width="40" height="40" rx="20" fill="#457AED" fill-opacity="0.15"/>
<path fill-rule="evenodd" clip-rule="evenodd" d="M13.0033 12.803C12.1633 13.643 11.714 15.022 11.714 17.2477V22.7523C11.714 24.978 12.1633 26.357 13.0033 27.1969C13.8432 28.0369 15.2222 28.4862 17.4479 28.4862H22.9525C25.1782 28.4862 26.5572 28.0369 27.3972 27.1969C28.2371 26.357 28.6865 24.978 28.6865 22.7523V17.2477C28.6865 15.022 28.2371 13.643 27.3972 12.803C26.5572 11.9631 25.1782 11.5138 22.9525 11.5138H17.4479C15.2222 11.5138 13.8432 11.9631 13.0033 12.803ZM12.0302 11.83C13.2545 10.6057 15.0865 10.1376 17.4479 10.1376H22.9525C25.314 10.1376 27.146 10.6057 28.3702 11.83C29.5945 13.0543 30.0626 14.8863 30.0626 17.2477V22.7523C30.0626 25.1137 29.5945 26.9457 28.3702 28.17C27.146 29.3943 25.314 29.8624 22.9525 29.8624H17.4479C15.0865 29.8624 13.2545 29.3943 12.0302 28.17C10.8059 26.9457 10.3378 25.1137 10.3378 22.7523V17.2477C10.3378 14.8863 10.8059 13.0543 12.0302 11.83Z" fill="#457AED"/>
<path fill-rule="evenodd" clip-rule="evenodd" d="M11.9329 11.7327C13.1956 10.4699 15.0729 10 17.4479 10H22.9525C25.3274 10 27.2048 10.4699 28.4675 11.7327C29.7303 12.9954 30.2002 14.8727 30.2002 17.2477V22.7523C30.2002 25.1273 29.7303 27.0046 28.4675 28.2673C27.2048 29.5301 25.3274 30 22.9525 30H17.4479C15.0729 30 13.1956 29.5301 11.9329 28.2673C10.6701 27.0046 10.2002 25.1273 10.2002 22.7523V17.2477C10.2002 14.8727 10.6701 12.9954 11.9329 11.7327ZM17.4479 10.2752C15.1 10.2752 13.3133 10.7415 12.1275 11.9273C10.9417 13.1131 10.4754 14.8998 10.4754 17.2477V22.7523C10.4754 25.1002 10.9417 26.8869 12.1275 28.0727C13.3133 29.2585 15.1 29.7248 17.4479 29.7248H22.9525C25.3004 29.7248 27.0871 29.2585 28.2729 28.0727C29.4587 26.8869 29.925 25.1002 29.925 22.7523V17.2477C29.925 14.8998 29.4587 13.1131 28.2729 11.9273C27.0871 10.7415 25.3004 10.2752 22.9525 10.2752H17.4479ZM17.4479 11.6514C15.2358 11.6514 13.9021 12.0988 13.1006 12.9004C12.299 13.7019 11.8516 15.0356 11.8516 17.2477V22.7523C11.8516 24.9644 12.299 26.2981 13.1006 27.0996C13.9021 27.9012 15.2358 28.3486 17.4479 28.3486H22.9525C25.1646 28.3486 26.4983 27.9012 27.2998 27.0996C28.1014 26.2981 28.5488 24.9644 28.5488 22.7523V17.2477C28.5488 15.0356 28.1014 13.7019 27.2998 12.9004C26.4983 12.0988 25.1646 11.6514 22.9525 11.6514H17.4479ZM12.9059 12.7057C13.7843 11.8274 15.2085 11.3761 17.4479 11.3761H22.9525C25.1918 11.3761 26.6161 11.8274 27.4944 12.7057C28.3728 13.5841 28.824 15.0084 28.824 17.2477V22.7523C28.824 24.9916 28.3728 26.4159 27.4944 27.2943C26.6161 28.1726 25.1918 28.6239 22.9525 28.6239H17.4479C15.2085 28.6239 13.7843 28.1726 12.9059 27.2943C12.0276 26.4159 11.5763 24.9916 11.5763 22.7523V17.2477C11.5763 15.0084 12.0276 13.5841 12.9059 12.7057Z" fill="#457AED"/>
<path d="M18.3228 15C18.8716 15 19.2875 15.1335 19.5702 15.4005C19.7366 15.5543 19.8655 15.7687 19.9569 16.0438C20.0484 16.3189 20.0942 16.7073 20.0942 17.209V17.9979H21.7362C22.1049 17.9979 22.4038 18.2968 22.4038 18.6655C22.4038 19.0342 22.1049 19.3331 21.7362 19.3331H20.0942V23.0095C20.0942 23.236 20.1274 23.406 20.194 23.5192C20.2605 23.6244 20.4102 23.677 20.643 23.677C20.8925 23.677 21.1379 23.6244 21.3791 23.5192C21.6202 23.414 21.8157 23.2765 21.9654 23.1066C22.1234 22.9366 22.2024 22.7546 22.2024 22.5604C22.2024 22.4876 22.1691 22.4188 22.1026 22.354C22.036 22.2893 21.9071 22.2569 21.7159 22.2569C21.4971 22.2569 21.2876 22.1129 21.2528 21.8969L21.2107 21.6359C21.1578 21.3081 21.3667 20.9931 21.6976 20.9657C21.8547 20.9526 22.0229 20.9461 22.2024 20.9461C22.693 20.9461 23.0881 21.0553 23.3875 21.2738C23.6869 21.4923 23.8366 21.8321 23.8366 22.2934C23.8366 22.7303 23.7326 23.1187 23.5247 23.4586C23.3168 23.7984 23.0423 24.0816 22.7014 24.3082C22.3604 24.5347 21.9862 24.7087 21.5786 24.8301C21.1795 24.9434 20.7886 25 20.406 25C20.0567 25 19.7615 24.9595 19.5203 24.8786C19.2875 24.7977 19.1003 24.6925 18.959 24.5631C18.8675 24.474 18.7802 24.3729 18.697 24.2596C18.6222 24.1463 18.5598 23.9886 18.5099 23.7863C18.4683 23.584 18.4475 23.3129 18.4475 22.9731V19.3331H18.0672C17.6985 19.3331 17.3996 19.0342 17.3996 18.6655C17.3996 18.2968 17.6985 17.9979 18.0672 17.9979H18.4475V17.2697C18.4475 16.9622 18.4059 16.7316 18.3228 16.5779C18.2396 16.4241 18.0483 16.3473 17.7489 16.3473C17.6829 16.3473 17.6158 16.3514 17.5476 16.3598C17.2534 16.3961 16.9416 16.2821 16.8185 16.0125C16.6818 15.713 16.8234 15.3396 17.121 15.199C17.2314 15.1469 17.3367 15.1039 17.4371 15.085C17.6949 15.0283 17.9901 15 18.3228 15Z" fill="#457AED"/>
</svg>
