<svg width="24" height="24" viewBox="0 0 24 24" fill="none" xmlns="http://www.w3.org/2000/svg">
<path opacity="0.56" d="M5.01562 3C4.45312 3 3.96875 3.20312 3.5625 3.60938C3.1875 3.98438 3 4.45312 3 5.01562V18.9844C3 19.5469 3.1875 20.0312 3.5625 20.4375C3.96875 20.8125 4.45312 21 5.01562 21H18.9844C19.5469 21 20.0156 20.8125 20.3906 20.4375C20.7969 20.0312 21 19.5469 21 18.9844V12H18.9844V18.9844H5.01562V5.01562H12V3H5.01562Z" fill="#475364"/>
<path d="M17.7656 3.98438C17.5781 3.98438 17.4219 4.0625 17.2969 4.21875L16.0781 5.39062L18.5625 7.92188L19.7812 6.70312C19.9375 6.57812 20.0156 6.42188 20.0156 6.23438C20.0156 6.04688 19.9375 5.89062 19.7812 5.76562L18.2344 4.21875C18.1094 4.0625 17.9531 3.98438 17.7656 3.98438ZM15.375 6.14062L8.01562 13.5V15.9844H10.5L17.8594 8.625L15.375 6.14062Z" fill="#475364"/>
</svg>
