<svg width="14" height="12" viewBox="0 0 14 12" fill="none" xmlns="http://www.w3.org/2000/svg">
<path fill-rule="evenodd" clip-rule="evenodd" d="M6.20368 0.485607C6.56432 -0.161868 7.43568 -0.161869 7.79632 0.485605L13.3663 10.4857C13.7375 11.1522 13.2917 12 12.57 12H1.43002C0.708291 12 0.262458 11.1522 0.633699 10.4857L6.20368 0.485607ZM6.31715 4.75437C6.31715 4.33933 6.62958 4.00288 7.01499 4.00288C7.4004 4.00288 7.71283 4.33933 7.71283 4.75437V6.24946C7.71283 6.6645 7.4004 7.00096 7.01499 7.00096C6.62958 7.00096 6.31715 6.6645 6.31715 6.24946V4.75437ZM7.94779 9.00045C7.94779 9.55271 7.53079 10.0004 7.0164 10.0004C6.50201 10.0004 6.08501 9.55271 6.08501 9.00045C6.08501 8.44818 6.50201 8.00048 7.0164 8.00048C7.53079 8.00048 7.94779 8.44818 7.94779 9.00045Z" fill="#F2B93D"/>
</svg>
