<svg width="20" height="20" viewBox="0 0 20 20" fill="none" xmlns="http://www.w3.org/2000/svg">
<path d="M9.7989 10.8836C9.626 10.8836 9.45309 10.8199 9.31659 10.6834C9.05269 10.4195 9.05269 9.9827 9.31659 9.7188L16.7787 2.25671C17.0426 1.99281 17.4794 1.99281 17.7433 2.25671C18.0072 2.52062 18.0072 2.95742 17.7433 3.22132L10.2812 10.6834C10.1447 10.8199 9.9718 10.8836 9.7989 10.8836Z" fill="white"/>
<path d="M17.989 7.06157C17.6159 7.06157 17.3065 6.75216 17.3065 6.37906V2.69352H13.6209C13.2478 2.69352 12.9384 2.38411 12.9384 2.01101C12.9384 1.63791 13.2478 1.3285 13.6209 1.3285H17.989C18.3621 1.3285 18.6715 1.63791 18.6715 2.01101V6.37906C18.6715 6.75216 18.3621 7.06157 17.989 7.06157Z" fill="white"/>
<path d="M12.73 19.7826H7.26997C2.32861 19.7826 0.217391 17.6714 0.217391 12.73V7.26997C0.217391 2.32861 2.32861 0.217391 7.26997 0.217391H9.08999C9.46309 0.217391 9.7725 0.526795 9.7725 0.899899C9.7725 1.273 9.46309 1.58241 9.08999 1.58241H7.26997C3.07482 1.58241 1.58241 3.07482 1.58241 7.26997V12.73C1.58241 16.9252 3.07482 18.4176 7.26997 18.4176H12.73C16.9252 18.4176 18.4176 16.9252 18.4176 12.73V10.91C18.4176 10.5369 18.727 10.2275 19.1001 10.2275C19.4732 10.2275 19.7826 10.5369 19.7826 10.91V12.73C19.7826 17.6714 17.6714 19.7826 12.73 19.7826Z" fill="white"/>
<path fill-rule="evenodd" clip-rule="evenodd" d="M2.04439 2.04439C0.958103 3.13068 0.434783 4.82425 0.434783 7.26997V12.73C0.434783 15.1758 0.958103 16.8693 2.04439 17.9556C3.13068 19.0419 4.82425 19.5652 7.26997 19.5652H12.73C15.1758 19.5652 16.8693 19.0419 17.9556 17.9556C19.0419 16.8693 19.5652 15.1758 19.5652 12.73V10.91C19.5652 10.657 19.3531 10.4449 19.1001 10.4449C18.8471 10.4449 18.635 10.657 18.635 10.91V12.73C18.635 14.8429 18.2614 16.34 17.3007 17.3007C16.34 18.2614 14.8429 18.635 12.73 18.635H7.26997C5.15706 18.635 3.65999 18.2614 2.69929 17.3007C1.73858 16.34 1.36502 14.8429 1.36502 12.73V7.26997C1.36502 5.15706 1.73858 3.65999 2.69929 2.69929C3.65999 1.73858 5.15706 1.36502 7.26997 1.36502H9.08999C9.34303 1.36502 9.55511 1.15294 9.55511 0.899899C9.55511 0.646857 9.34303 0.434783 9.08999 0.434783H7.26997C4.82425 0.434783 3.13068 0.958103 2.04439 2.04439ZM1.73695 1.73695C2.94162 0.532292 4.77434 0 7.26997 0H9.08999C9.58316 0 9.98989 0.406733 9.98989 0.899899C9.98989 1.39306 9.58316 1.7998 9.08999 1.7998H7.26997C5.18773 1.7998 3.84102 2.17244 3.00673 3.00673C2.17244 3.84102 1.7998 5.18773 1.7998 7.26997V12.73C1.7998 14.8123 2.17244 16.159 3.00673 16.9933C3.84102 17.8276 5.18773 18.2002 7.26997 18.2002H12.73C14.8123 18.2002 16.159 17.8276 16.9933 16.9933C17.8276 16.159 18.2002 14.8123 18.2002 12.73V10.91C18.2002 10.4168 18.6069 10.0101 19.1001 10.0101C19.5933 10.0101 20 10.4168 20 10.91V12.73C20 15.2257 19.4677 17.0584 18.263 18.263C17.0584 19.4677 15.2257 20 12.73 20H7.26997C4.77434 20 2.94162 19.4677 1.73695 18.263C0.532292 17.0584 0 15.2257 0 12.73V7.26997C0 4.77434 0.532292 2.94162 1.73695 1.73695ZM13.6209 1.54589C13.3679 1.54589 13.1558 1.75797 13.1558 2.01101C13.1558 2.26405 13.3679 2.47613 13.6209 2.47613H16.2518L16.625 2.10299C16.9738 1.75419 17.5482 1.75419 17.897 2.10299C18.2458 2.45179 18.2458 3.02624 17.897 3.37504L17.5239 3.74818V6.37906C17.5239 6.6321 17.7359 6.84417 17.989 6.84417C18.242 6.84417 18.4541 6.6321 18.4541 6.37906V2.01101C18.4541 1.75797 18.242 1.54589 17.989 1.54589H13.6209ZM17.0891 4.18296V6.37906C17.0891 6.87222 17.4958 7.27896 17.989 7.27896C18.4822 7.27896 18.8889 6.87222 18.8889 6.37906V2.01101C18.8889 1.51784 18.4822 1.11111 17.989 1.11111H13.6209C13.1278 1.11111 12.721 1.51784 12.721 2.01101C12.721 2.50418 13.1278 2.91091 13.6209 2.91091H15.817L9.16287 9.56508C8.81408 9.91388 8.81408 10.4883 9.16287 10.8371C9.34229 11.0165 9.57145 11.101 9.7989 11.101C10.0263 11.101 10.2555 11.0165 10.4349 10.8371L17.0891 4.18296ZM17.5239 3.1333L17.5896 3.0676C17.7686 2.8886 17.7686 2.58944 17.5896 2.41043C17.4106 2.23143 17.1114 2.23143 16.9324 2.41043L16.8667 2.47613H17.5239V3.1333ZM16.4319 2.91091L9.47031 9.87252C9.29131 10.0515 9.29131 10.3507 9.47031 10.5297C9.5639 10.6233 9.68054 10.6662 9.7989 10.6662C9.91726 10.6662 10.0339 10.6233 10.1275 10.5297L17.0891 3.56808V2.91091H16.4319Z" fill="white"/>
</svg>
