<svg width="24" height="24" viewBox="0 0 24 24" fill="none" xmlns="http://www.w3.org/2000/svg">
<path opacity="0.08" d="M13.6764 17.5732C12.8069 17.7506 11.9123 17.7685 11.0364 17.6262C10.559 17.5301 10.095 17.3767 9.6544 17.1692C8.3432 16.5924 7.27219 15.5793 6.6234 14.3022C6.47439 14.0631 6.35327 13.8078 6.2624 13.5412C6.16951 13.211 6.09737 12.8754 6.0464 12.5362C5.8356 11.2754 5.90629 9.9835 6.2534 8.75319C6.68098 7.39028 7.5635 6.21546 8.7534 5.42519C8.81431 5.36802 8.88816 5.32647 8.96864 5.30408C9.04911 5.28168 9.13382 5.27913 9.2155 5.29662C9.29718 5.31412 9.37341 5.35115 9.43765 5.40454C9.5019 5.45793 9.55225 5.52609 9.5844 5.60319C10.3323 6.77371 11.3883 7.71551 12.6364 8.32519C14.077 9.04528 15.6502 9.46189 17.2584 9.54919C17.5284 9.56719 17.7974 9.58319 18.0674 9.59719C18.1855 9.59006 18.3015 9.6299 18.3903 9.70802C18.4791 9.78613 18.5334 9.89619 18.5414 10.0142C18.6111 10.686 18.6131 11.363 18.5474 12.0352C18.4204 13.548 17.74 14.9608 16.6364 16.0032C16.1548 16.4364 15.6246 16.8122 15.0564 17.1232C14.6254 17.3507 14.1587 17.5029 13.6764 17.5732Z" fill="#8E8E93"/>
<path d="M12.198 15.4892C11.7149 15.4917 11.238 15.38 10.8063 15.1631C10.3746 14.9462 10.0003 14.6303 9.71397 14.2412C9.46447 13.905 9.33744 13.4935 9.35397 13.0752C9.35392 12.9513 9.40214 12.8323 9.4884 12.7435C9.57466 12.6546 9.69217 12.6028 9.81597 12.5992C9.93848 12.5892 10.0599 12.6283 10.1537 12.7078C10.2474 12.7873 10.3058 12.9007 10.316 13.0232C10.316 13.0332 10.316 13.0432 10.316 13.0522C10.3364 13.3208 10.4324 13.5782 10.5929 13.7947C10.7534 14.0111 10.9718 14.1777 11.223 14.2752C11.4122 14.3955 11.6262 14.4714 11.849 14.4972C12.2752 14.5296 12.7038 14.4846 13.114 14.3642C13.5131 14.2296 13.8513 13.9574 14.068 13.5962C14.1438 13.443 14.1877 13.2759 14.197 13.1052C14.1944 13.0361 14.2066 12.9673 14.2327 12.9034C14.2589 12.8395 14.2985 12.7819 14.3488 12.7345C14.3991 12.6871 14.459 12.6511 14.5244 12.6288C14.5898 12.6065 14.6592 12.5984 14.728 12.6052C14.8587 12.6152 14.9803 12.6761 15.0665 12.7749C15.1527 12.8736 15.1967 13.0023 15.189 13.1332C15.189 13.1502 15.189 13.1652 15.183 13.1812C15.1571 13.5335 15.0486 13.8747 14.8661 14.1772C14.6837 14.4797 14.4325 14.7349 14.133 14.9222C13.5591 15.3003 12.8851 15.4978 12.198 15.4892Z" fill="#8E8E93"/>
<path d="M8.39482 10.8093C8.39216 10.7149 8.40818 10.6208 8.44195 10.5326C8.47573 10.4444 8.52661 10.3638 8.59165 10.2953C8.6567 10.2268 8.73463 10.1719 8.82098 10.1336C8.90733 10.0953 9.00039 10.0745 9.09482 10.0723H9.11882C9.21468 10.0728 9.3095 10.0922 9.39787 10.1294C9.48624 10.1665 9.56642 10.2207 9.63383 10.2889C9.70125 10.3571 9.75458 10.4378 9.79078 10.5266C9.82698 10.6154 9.84534 10.7104 9.84482 10.8063C9.84429 10.9021 9.82489 10.997 9.78772 11.0853C9.75055 11.1737 9.69633 11.2539 9.62818 11.3213C9.56002 11.3887 9.47925 11.442 9.39048 11.4782C9.30171 11.5144 9.20668 11.5328 9.11082 11.5323C9.01666 11.5317 8.92352 11.5127 8.83673 11.4762C8.74994 11.4396 8.6712 11.3864 8.60499 11.3194C8.53878 11.2525 8.48641 11.1731 8.45086 11.086C8.41531 10.9988 8.39729 10.9054 8.39782 10.8113L8.39482 10.8093Z" fill="#8E8E93"/>
<path d="M14.6761 10.8093C14.6734 10.7149 14.6894 10.6208 14.7232 10.5326C14.757 10.4444 14.8079 10.3638 14.8729 10.2953C14.9379 10.2268 15.0159 10.1719 15.1022 10.1336C15.1886 10.0953 15.2816 10.0745 15.3761 10.0723H15.4001C15.4959 10.0728 15.5908 10.0922 15.6791 10.1294C15.7675 10.1665 15.8477 10.2207 15.9151 10.2889C15.9825 10.3571 16.0358 10.4378 16.072 10.5266C16.1082 10.6154 16.1266 10.7104 16.1261 10.8063C16.1255 10.9021 16.1061 10.997 16.069 11.0853C16.0318 11.1737 15.9776 11.2539 15.9094 11.3213C15.8413 11.3887 15.7605 11.442 15.6717 11.4782C15.583 11.5144 15.4879 11.5328 15.3921 11.5323C15.2975 11.5321 15.2039 11.5133 15.1166 11.4768C15.0293 11.4404 14.9501 11.387 14.8836 11.3198C14.817 11.2526 14.7644 11.1729 14.7288 11.0853C14.6932 10.9976 14.6753 10.9038 14.6761 10.8093Z" fill="#8E8E93"/>
<path d="M20.1701 6.91746C19.952 6.1489 19.6145 5.41935 19.1701 4.75546C18.3402 3.48423 17.1782 2.46438 15.8101 1.80646C14.9715 1.40235 14.0703 1.14367 13.1451 1.04146C12.4336 0.969247 11.7157 0.99144 11.0101 1.10746C10.1443 1.245 9.30403 1.51128 8.51708 1.89746C8.00217 2.16118 7.51534 2.47646 7.06408 2.83846C6.43724 3.32841 5.88628 3.90834 5.42908 4.55946C5.11658 5.01816 4.84869 5.50572 4.62908 6.01546C4.38528 6.62987 4.20045 7.26606 4.07708 7.91546C4.00723 8.30297 3.98473 8.69753 4.01008 9.09046L4.02208 19.9165C4.91032 20.6975 5.90574 21.3474 6.97808 21.8465C7.53695 20.8755 8.3626 20.0853 9.35708 19.5695C9.45708 19.5105 9.56908 19.4595 9.67708 19.4085C9.72517 19.3892 9.76564 19.3547 9.79235 19.3103C9.81906 19.2659 9.83055 19.214 9.82508 19.1625C9.81908 18.5905 9.81708 18.0185 9.82508 17.4465C9.83063 17.3879 9.81601 17.3292 9.78363 17.2801C9.75126 17.231 9.70308 17.1944 9.64708 17.1765C8.33588 16.5996 7.26488 15.5866 6.61608 14.3095C6.46733 14.0703 6.34622 13.815 6.25508 13.5485C6.16219 13.2183 6.09005 12.8826 6.03908 12.5435C5.83031 11.28 5.90408 9.986 6.25508 8.75446C6.68252 7.39147 7.56507 6.21661 8.75508 5.42646C8.81599 5.36929 8.88984 5.32773 8.97032 5.30534C9.0508 5.28295 9.1355 5.2804 9.21718 5.29789C9.29887 5.31539 9.37509 5.35242 9.43934 5.40581C9.50358 5.4592 9.55393 5.52736 9.58608 5.60446C10.334 6.77498 11.39 7.71678 12.6381 8.32646C14.0773 9.04555 15.6486 9.46179 17.2551 9.54946C17.5251 9.56746 17.7941 9.58346 18.0641 9.59746C18.1821 9.59033 18.2982 9.63017 18.387 9.70828C18.4758 9.7864 18.5301 9.89646 18.5381 10.0145C18.6078 10.6862 18.6098 11.3633 18.5441 12.0355C18.4174 13.5483 17.7369 14.9612 16.6331 16.0035C16.1517 16.4372 15.6215 16.8134 15.0531 17.1245L14.8901 17.2105C14.7181 17.2865 14.6831 17.3535 14.6751 17.4625C14.6861 18.0115 14.6841 18.5625 14.6751 19.1115C14.6653 19.1745 14.6779 19.2389 14.7106 19.2937C14.7432 19.3484 14.794 19.3901 14.8541 19.4115C15.3954 19.6597 15.8968 19.987 16.3421 20.3825C16.8282 20.784 17.2352 21.2727 17.5421 21.8235C18.6168 21.3198 19.6136 20.6644 20.5021 19.8775V9.33946C20.5083 8.52037 20.3965 7.70466 20.1701 6.91746Z" fill="#8E8E93"/>
<path opacity="0.72" d="M17.5434 21.826C17.2365 21.2752 16.8295 20.7865 16.3434 20.385C15.8981 19.9895 15.3967 19.6622 14.8554 19.414C14.7953 19.3926 14.7445 19.3509 14.7119 19.2962C14.6792 19.2414 14.6666 19.177 14.6764 19.114C14.6854 18.564 14.6874 18.014 14.6764 17.465C14.6844 17.356 14.7194 17.289 14.8914 17.213L15.0544 17.127C14.6234 17.353 14.1571 17.5042 13.6754 17.574C12.8059 17.7516 11.9113 17.7696 11.0354 17.627C10.5579 17.5315 10.0939 17.3784 9.65338 17.171C9.70938 17.1889 9.75756 17.2255 9.78993 17.2746C9.8223 17.3237 9.83692 17.3824 9.83138 17.441C9.82338 18.013 9.82538 18.585 9.83138 19.157C9.83685 19.2085 9.82535 19.2604 9.79864 19.3048C9.77193 19.3492 9.73146 19.3836 9.68337 19.403C9.57537 19.454 9.46537 19.503 9.36337 19.564C8.36886 20.0797 7.5432 20.87 6.98438 21.841C8.63956 22.6066 10.4419 23.0019 12.2655 22.9993C14.0892 22.9967 15.8904 22.5963 17.5434 21.826Z" fill="#8E8E93"/>
</svg>
