<svg width="20" height="20" viewBox="0 0 20 20" fill="none" xmlns="http://www.w3.org/2000/svg">
<path fill-rule="evenodd" clip-rule="evenodd" d="M4.33274 2.25581C3.72727 2.25581 3.23077 2.73671 3.23077 3.40408V5.34941C3.23077 5.4789 3.28063 5.70253 3.39893 5.96247C3.51443 6.21627 3.66744 6.44332 3.8156 6.58925L3.82681 6.60058L7.08978 9.98377C7.10207 9.99651 7.11381 10.0098 7.12499 10.0235C7.3421 10.2909 7.5436 10.6432 7.69195 11.0085C7.83874 11.37 7.95349 11.7932 7.95349 12.2004V16.6831C7.95349 17.0912 8.18028 17.4211 8.531 17.6044C8.88648 17.7902 9.32367 17.7982 9.68112 17.5839L10.8777 16.8262C10.8797 16.8249 10.8817 16.8237 10.8837 16.8224C10.887 16.8204 10.8904 16.8184 10.8937 16.8164C10.9781 16.7665 11.1017 16.6391 11.2078 16.4382C11.3125 16.2398 11.3596 16.0461 11.3596 15.9219V12.2849C11.3596 11.8465 11.4688 11.38 11.6477 10.9645C11.8245 10.554 12.0893 10.1474 12.4404 9.85654L16.1107 6.66171C16.2579 6.51261 16.4268 6.26821 16.5595 5.98059C16.697 5.68275 16.7692 5.39579 16.7692 5.18025V3.3195C16.7692 2.75659 16.2926 2.25581 15.6673 2.25581H4.33274ZM2 3.40408C2 2.04154 3.04911 1 4.33274 1H15.6673C16.931 1 18 2.02166 18 3.3195V5.18025C18 5.64136 17.8576 6.11561 17.673 6.51556C17.4874 6.91778 17.2327 7.30221 16.9533 7.57734C16.9443 7.58628 16.9349 7.59493 16.9253 7.60328L13.233 10.8173C13.2305 10.8195 13.228 10.8216 13.2255 10.8238C13.2235 10.8255 13.2214 10.8272 13.2194 10.8289C13.059 10.9605 12.8969 11.1854 12.7745 11.4698C12.6529 11.7521 12.5903 12.0468 12.5903 12.2849V15.9219C12.5903 16.3051 12.4657 16.7034 12.2913 17.0337C12.1199 17.3585 11.8602 17.6932 11.5197 17.8977L10.3245 18.6545L10.3143 18.6608C9.55631 19.1202 8.66477 19.0853 7.96989 18.7221C7.26873 18.3556 6.72272 17.6282 6.72272 16.6831V12.2004C6.72272 12.0155 6.66573 11.7621 6.55492 11.4892C6.45002 11.2309 6.31496 10.9996 6.19251 10.8438L2.9547 7.48674C2.67624 7.21052 2.44503 6.84819 2.28264 6.49138C2.12187 6.13812 2 5.7274 2 5.34941V3.40408Z" fill="#475364" stroke="#475364" stroke-width="0.4" stroke-miterlimit="10" stroke-linecap="round" stroke-linejoin="round"/>
</svg>
