<svg width="20" height="20" viewBox="0 0 20 20" fill="none" xmlns="http://www.w3.org/2000/svg">
<path fill-rule="evenodd" clip-rule="evenodd" d="M1.07601 2.47778C1.21007 2.18642 1.49965 2 1.81819 2H18.1818C18.5003 2 18.7899 2.18642 18.924 2.47778C19.0581 2.76914 19.0122 3.11247 18.8065 3.35772L12.4545 10.9316V17.675C12.4545 17.9609 12.3077 18.2265 12.0665 18.3768C11.8253 18.5271 11.5241 18.5408 11.2705 18.4129L7.99774 16.7629C7.72055 16.6232 7.54546 16.3375 7.54546 16.025V10.9316L1.19345 3.35772C0.987765 3.11247 0.94194 2.76914 1.07601 2.47778ZM3.58162 3.65L8.98838 10.0968C9.11328 10.2457 9.18182 10.4345 9.18182 10.6295V15.5151L10.8182 16.3401V10.6295C10.8182 10.4345 10.8867 10.2457 11.0116 10.0968L16.4184 3.65H3.58162Z" fill="black"/>
</svg>
