<svg width="15" height="12" viewBox="0 0 15 12" fill="none" xmlns="http://www.w3.org/2000/svg">
<path d="M2.25401 9.7551L5.63416 5.2638L8.23989 8.63227L10.141 6.38663L12.7468 9.7551H2.25401ZM13.5212 1.50908H7.50001L5.9857 0H1.47883C1.08141 0.0124966 0.703719 0.175525 0.422717 0.455868C0.283914 0.59339 0.174848 0.757788 0.102245 0.938926C0.0296424 1.12006 -0.00495964 1.3141 0.000572647 1.50908V10.4917C-0.00475854 10.6866 0.0300121 10.8805 0.102743 11.0615C0.175473 11.2425 0.284623 11.4068 0.423468 11.5441C0.704471 11.8245 1.08216 11.9875 1.47958 12H13.5212C13.9186 11.9875 14.2963 11.8245 14.5773 11.5441C14.716 11.4067 14.825 11.2424 14.8976 11.0614C14.9702 10.8804 15.0049 10.6865 14.9994 10.4917V3.01815C15.0039 2.82074 14.9689 2.62441 14.8964 2.44063C14.8239 2.25685 14.7154 2.08929 14.5773 1.94773C14.442 1.80482 14.2781 1.6919 14.0961 1.61632C13.9142 1.54074 13.7183 1.5042 13.5212 1.50908Z" fill="#72BF44"/>
</svg>
