<svg width="20" height="18" viewBox="0 0 20 18" fill="none" xmlns="http://www.w3.org/2000/svg">
<path opacity="0.8" d="M11 11C12.4347 11 13.7602 11.2188 14.9766 11.6562C16.2242 12.0573 17.2066 12.6224 17.924 13.3516C18.6413 14.0443 19 14.8099 19 15.6484V18H3V15.6484C3 14.8099 3.35867 14.0443 4.07602 13.3516C4.79337 12.6224 5.76023 12.0573 6.97661 11.6562C8.22417 11.2188 9.5653 11 11 11Z" fill="white"/>
<path opacity="0.48" fill-rule="evenodd" clip-rule="evenodd" d="M3.72409 12.9963C2.93203 13.763 2.5 14.6508 2.5 15.6484V17.1635H0V15.0929C0 14.3546 0.315811 13.6805 0.947432 13.0705C1.57905 12.4285 2.43037 11.9309 3.50138 11.5778C4.59985 11.1926 5.78071 11 7.04395 11C7.15322 11 7.26177 11.0014 7.3696 11.0043C7.18312 11.0593 6.99844 11.1188 6.81558 11.1829C5.54675 11.6018 4.50809 12.2012 3.72409 12.9963Z" fill="white"/>
<path d="M11 0C12.3725 0 13.549 0.487406 14.5294 1.46222C15.5098 2.43703 16 3.6263 16 5.03003C16 6.39476 15.5098 7.56454 14.5294 8.53935C13.549 9.51416 12.3725 10.0016 11 10.0016C9.62745 10.0016 8.45098 9.51416 7.47059 8.53935C6.4902 7.56454 6 6.39476 6 5.03003C6 3.6263 6.4902 2.43703 7.47059 1.46222C8.45098 0.487406 9.62745 0 11 0Z" fill="white"/>
<path opacity="0.6" fill-rule="evenodd" clip-rule="evenodd" d="M7.22094 1.00781C6.10451 1.06951 5.13871 1.50556 4.32353 2.31598C3.44118 3.19317 3 4.26334 3 5.5265C3 6.75457 3.44118 7.8072 4.32353 8.6844C5.20588 9.56159 6.26471 10.0002 7.5 10.0002C7.83874 10.0002 8.1642 9.9672 8.4764 9.90124C7.98978 9.64612 7.53647 9.31014 7.11805 8.8941C6.04465 7.82681 5.5 6.52999 5.5 5.03021C5.5 3.49567 6.04165 2.17811 7.11805 1.10784C7.15211 1.07397 7.18641 1.04062 7.22094 1.00781Z" fill="white"/>
<path d="M18 10.2099L19.2394 11L18.9108 9.51852L20 8.52099L18.5634 8.39259L18 7L17.4366 8.39259L16 8.52099L17.0892 9.51852L16.7606 11L18 10.2099Z" fill="white"/>
</svg>
