<svg width="12" height="14" viewBox="0 0 12 14" fill="none" xmlns="http://www.w3.org/2000/svg">
<path fill-rule="evenodd" clip-rule="evenodd" d="M9.87098 6.02777C10.9399 6.02777 11.8065 6.89833 11.8065 7.97222V11.8611C11.8065 12.935 10.9399 13.8056 9.87098 13.8056H2.12904C1.06011 13.8056 0.19356 12.935 0.19356 11.8611V7.97222C0.19356 6.89833 1.06011 6.02777 2.12904 6.02777V4.08333C2.12904 1.93556 3.86214 0.194441 6.00001 0.194441C8.13789 0.194441 9.87098 1.93556 9.87098 4.08333V6.02777ZM6.00001 1.49074C7.42526 1.49074 8.58066 2.65148 8.58066 4.08333V6.02777H3.41937V4.08333C3.41937 2.65148 4.57476 1.49074 6.00001 1.49074ZM9.87098 7.32407H2.12904C1.77273 7.32407 1.48388 7.61426 1.48388 7.97222V11.8611C1.48388 12.2191 1.77273 12.5093 2.12904 12.5093H9.87098C10.2273 12.5093 10.5161 12.2191 10.5161 11.8611V7.97222C10.5161 7.61426 10.2273 7.32407 9.87098 7.32407Z" fill="white"/>
<path fill-rule="evenodd" clip-rule="evenodd" d="M6 0.388889C3.96902 0.388889 2.32258 2.04295 2.32258 4.08333V6.22222H2.12903C1.16699 6.22222 0.387097 7.00572 0.387097 7.97222V11.8611C0.387097 12.8276 1.16699 13.6111 2.12903 13.6111H9.87097C10.833 13.6111 11.6129 12.8276 11.6129 11.8611V7.97222C11.6129 7.00572 10.833 6.22222 9.87097 6.22222H9.67742V4.08333C9.67742 2.04295 8.03098 0.388889 6 0.388889ZM1.93548 4.08333C1.93548 1.82817 3.75523 0 6 0C8.24477 0 10.0645 1.82817 10.0645 4.08333V5.84205C11.1496 5.94029 12 6.85649 12 7.97222V11.8611C12 13.0424 11.0468 14 9.87097 14H2.12903C0.953201 14 0 13.0424 0 11.8611V7.97222C0 6.85649 0.850355 5.94029 1.93548 5.84205V4.08333ZM3.22581 4.08333C3.22581 2.5441 4.46785 1.2963 6 1.2963C7.53214 1.2963 8.77419 2.5441 8.77419 4.08333V6.22222H3.22581V4.08333ZM6 1.68519C4.68164 1.68519 3.6129 2.75887 3.6129 4.08333V5.83333H8.3871V4.08333C8.3871 2.75887 7.31836 1.68519 6 1.68519ZM1.29032 7.97222C1.29032 7.50687 1.66583 7.12963 2.12903 7.12963H9.87097C10.3342 7.12963 10.7097 7.50687 10.7097 7.97222V11.8611C10.7097 12.3265 10.3342 12.7037 9.87097 12.7037H2.12903C1.66583 12.7037 1.29032 12.3265 1.29032 11.8611V7.97222ZM2.12903 7.51852C1.87961 7.51852 1.67742 7.72165 1.67742 7.97222V11.8611C1.67742 12.1117 1.87961 12.3148 2.12903 12.3148H9.87097C10.1204 12.3148 10.3226 12.1117 10.3226 11.8611V7.97222C10.3226 7.72165 10.1204 7.51852 9.87097 7.51852H2.12903Z" fill="white"/>
</svg>
