<svg width="36" height="36" viewBox="0 0 36 36" fill="none" xmlns="http://www.w3.org/2000/svg">
<path d="M16.1053 36H0.894737C0.402632 36 0 35.5974 0 35.1053V19.8947C0 19.4026 0.402632 19 0.894737 19H16.1053C16.5974 19 17 19.4026 17 19.8947V35.1053C17 35.5974 16.5974 36 16.1053 36Z" fill="#FA5053"/>
<path d="M16.1053 17H0.894737C0.402632 17 0 16.5974 0 16.1053V0.894737C0 0.402632 0.402632 0 0.894737 0H16.1053C16.5974 0 17 0.402632 17 0.894737V16.1053C17 16.5974 16.5974 17 16.1053 17Z" fill="#475364"/>
<path d="M35.1053 17H19.8947C19.4026 17 19 16.5974 19 16.1053V0.894737C19 0.402632 19.4026 0 19.8947 0H35.1053C35.5974 0 36 0.402632 36 0.894737V16.1053C36 16.5974 35.5974 17 35.1053 17Z" fill="#72BF44"/>
</svg>
