<svg width="24" height="24" viewBox="0 0 24 24" fill="none" xmlns="http://www.w3.org/2000/svg">
<path opacity="0.08" d="M18.5008 12.934C18.8268 13.0219 19.1733 12.9926 19.4798 12.851C19.7859 12.7333 20.0493 12.5261 20.2358 12.2563C20.4222 11.9866 20.5229 11.6669 20.5248 11.339C20.5388 10.9837 20.4332 10.6341 20.2248 10.346C19.8828 10.221 19.3088 10.284 19.2048 9.95499C18.7638 8.41499 18.7858 6.93099 17.5158 5.95499C16.8009 5.4421 15.9167 5.22239 15.0448 5.34099C14.5785 5.40148 14.1229 5.52634 13.6908 5.71199C13.2342 5.88399 12.748 5.96372 12.2603 5.94655C11.7727 5.92939 11.2933 5.81567 10.8498 5.61199C10.0922 5.28911 9.24998 5.22182 8.45067 5.42029C7.65136 5.61877 6.93845 6.07221 6.41983 6.71199C5.64483 7.56899 5.94283 8.96699 5.57183 10.061C5.55577 10.1088 5.52792 10.1518 5.49084 10.186C5.47422 10.2004 5.4565 10.2134 5.43784 10.225C5.42484 10.233 5.41384 10.243 5.40084 10.249C5.13502 10.3645 4.84055 10.3973 4.55584 10.343C4.41523 10.5433 4.32215 10.7731 4.28368 11.0148C4.24521 11.2566 4.26236 11.5039 4.33384 11.738C4.42901 12.1066 4.64863 12.4309 4.95551 12.6562C5.26239 12.8814 5.63768 12.9937 6.01784 12.974C6.16784 12.974 6.34584 12.849 6.44784 12.942C6.54984 13.035 6.56484 13.221 6.62384 13.365C7.23046 14.8636 8.3912 16.0709 9.86484 16.736C10.2166 16.917 10.5919 17.0479 10.9798 17.125C11.2428 17.165 11.4798 17.202 11.7258 17.233C12.3684 17.308 13.0189 17.2779 13.6518 17.144C14.1674 17.0009 14.6739 16.8272 15.1688 16.624C16.1199 16.1457 16.9342 15.4342 17.5358 14.556C17.8588 14.0886 18.114 13.5779 18.2938 13.039C18.3248 12.934 18.3488 12.89 18.5008 12.934Z" fill="#475364"/>
<path d="M20.4738 10.5762C20.5625 9.49235 20.5043 8.40148 20.3008 7.33321C19.9742 5.86279 19.2433 4.51282 18.1907 3.43543C17.138 2.35804 15.8054 1.59605 14.343 1.23532C12.8805 0.874601 11.3464 0.929483 9.91349 1.39378C8.48057 1.85809 7.2058 2.71335 6.23283 3.86321C5.33943 4.90405 4.72612 6.15545 4.45082 7.49921C4.27494 8.51281 4.22189 9.54391 4.29282 10.5702C4.30838 10.5125 4.34117 10.4608 4.38683 10.4222C4.34087 10.4606 4.30801 10.5123 4.29282 10.5702C4.1539 10.7989 4.06192 11.0529 4.02225 11.3175C3.98259 11.582 3.99604 11.8519 4.06182 12.1112C4.1813 12.4865 4.422 12.8115 4.74615 13.0352C5.07031 13.2589 5.45956 13.3686 5.85282 13.3472C6.00282 13.3472 6.18082 13.2222 6.28282 13.3152C6.38482 13.4082 6.39982 13.5942 6.45882 13.7372C7.09813 15.4428 8.29667 16.8814 9.85883 17.8182L9.98582 17.8782C10.2996 18.03 10.6317 18.1406 10.9738 18.2072C11.2368 18.2472 11.4738 18.2852 11.7198 18.3152C12.3624 18.3902 13.0129 18.3602 13.6458 18.2262C13.9078 18.1452 14.4108 17.9962 14.7838 17.8622C14.9134 17.8184 15.04 17.7663 15.1628 17.7062C16.1392 16.9982 16.9475 16.0834 17.5298 15.0272C17.8861 14.4788 18.1736 13.8887 18.3858 13.2702C18.4208 13.1622 18.4448 13.1182 18.5978 13.1622C18.9012 13.2855 19.2387 13.2954 19.5488 13.1902C19.8749 13.049 20.1555 12.8205 20.3599 12.5299C20.5642 12.2392 20.6843 11.8978 20.7068 11.5432C20.6872 11.2096 20.6083 10.8822 20.4738 10.5762ZM20.2288 10.3472L19.4808 12.8522C19.1743 12.9938 18.8278 13.0232 18.5018 12.9352C18.3488 12.8912 18.3248 12.9352 18.2898 13.0432C18.1099 13.5821 17.8547 14.0928 17.5318 14.5602C16.9302 15.4385 16.1159 16.1499 15.1648 16.6282C14.6699 16.8314 14.1633 17.0051 13.6478 17.1482C13.0149 17.2821 12.3644 17.3122 11.7218 17.2372C11.4808 17.2062 11.2388 17.1692 10.9758 17.1292C10.5878 17.0522 10.2125 16.9212 9.86082 16.7402C8.38718 16.0752 7.22644 14.8679 6.61982 13.3692C6.56082 13.2252 6.54482 13.0392 6.44382 12.9462C6.34282 12.8532 6.16282 12.9752 6.01382 12.9782C5.63367 12.9979 5.25838 12.8856 4.9515 12.6604C4.64462 12.4352 4.42499 12.1108 4.32982 11.7422C4.25835 11.5081 4.24119 11.2608 4.27966 11.0191C4.31813 10.7773 4.41121 10.5476 4.55182 10.3472C4.49782 10.3612 5.42783 10.4862 5.56783 10.0642C5.93983 8.97021 5.64082 7.57321 6.41582 6.71521C6.93444 6.07543 7.64735 5.62199 8.44666 5.42352C9.24596 5.22504 10.0882 5.29234 10.8458 5.61521C11.2892 5.8189 11.7687 5.93261 12.2563 5.94978C12.744 5.96694 13.2302 5.88721 13.6868 5.71521C14.1215 5.52953 14.5799 5.40534 15.0488 5.34621C15.9207 5.22761 16.8049 5.44732 17.5198 5.96021C18.7898 6.93621 18.7668 8.42021 19.2088 9.96021C19.3088 10.2892 19.8868 10.2252 20.2288 10.3512C20.4372 10.6393 20.5428 10.989 20.5288 11.3442C20.5261 11.6719 20.4246 11.9912 20.2377 12.2604C20.0507 12.5296 19.787 12.7362 19.4808 12.8532L20.2288 10.3472Z" fill="#475364"/>
<path opacity="0.72" d="M5.78751 11.4316L5.68751 11.1086C5.68356 11.0805 5.67253 11.0539 5.65545 11.0313C5.63838 11.0086 5.61583 10.9907 5.58992 10.9792C5.56401 10.9677 5.5356 10.963 5.50736 10.9655C5.47912 10.968 5.45198 10.9777 5.42851 10.9936C5.30518 11.0421 5.20437 11.1349 5.14576 11.2538C5.08714 11.3727 5.07494 11.5092 5.11152 11.6366C5.1511 11.7666 5.23787 11.8772 5.3548 11.9466C5.47173 12.016 5.61037 12.0392 5.74351 12.0116C5.78722 12.0082 5.82783 11.9878 5.8565 11.9546C5.88516 11.9214 5.89954 11.8783 5.89651 11.8346C5.89534 11.8192 5.89197 11.804 5.88651 11.7896C5.86451 11.6686 5.82351 11.5506 5.78751 11.4316Z" fill="#475364"/>
<path opacity="0.72" d="M18.9135 11.4628H18.9025C18.8795 11.5938 18.8465 11.7228 18.8355 11.8538C18.8235 11.9032 18.8316 11.9555 18.858 11.999C18.8844 12.0425 18.9271 12.0737 18.9765 12.0858C18.9903 12.089 19.0044 12.0911 19.0185 12.0918C19.1522 12.1115 19.2886 12.0863 19.4063 12.0201C19.524 11.9538 19.6164 11.8503 19.6689 11.7258C19.7213 11.6013 19.7309 11.4629 19.6961 11.3324C19.6613 11.2019 19.584 11.0866 19.4765 11.0048C19.2505 10.8318 19.0765 10.8818 18.9945 11.1578C18.9606 11.2575 18.9335 11.3594 18.9135 11.4628Z" fill="#475364"/>
<path d="M15.2399 12.7708C15.2306 13.1879 15.0732 13.5881 14.7959 13.8998C14.4336 14.4099 13.8922 14.7645 13.2799 14.8928C12.8562 15.0049 12.4148 15.0345 11.9799 14.9798C11.2561 14.9097 10.5829 14.5775 10.0869 14.0458C9.73047 13.6744 9.52544 13.1834 9.51192 12.6688C9.50014 12.5466 9.53699 12.4246 9.61447 12.3294C9.69196 12.2341 9.80384 12.1732 9.92591 12.1598C10.2519 12.1318 10.4689 12.2678 10.4769 12.5898C10.5009 13.4898 11.4149 13.9728 12.1379 14.0418C12.6048 14.0909 13.076 14.0067 13.4969 13.7988C13.7358 13.6967 13.94 13.5275 14.0847 13.3116C14.2293 13.0958 14.3083 12.8426 14.3119 12.5828C14.3078 12.4887 14.3371 12.3962 14.3945 12.3216C14.452 12.247 14.5339 12.195 14.6259 12.1748C14.7435 12.1446 14.8679 12.155 14.9788 12.2043C15.0897 12.2537 15.1807 12.3392 15.2369 12.4468C15.2546 12.554 15.2556 12.6633 15.2399 12.7708Z" fill="#475364"/>
<path d="M9.50576 8.99805C9.75997 8.99805 10.0038 9.09903 10.1835 9.27878C10.3633 9.45854 10.4643 9.70234 10.4643 9.95655C10.4643 10.2108 10.3633 10.4546 10.1835 10.6343C10.0038 10.8141 9.75997 10.915 9.50576 10.915C9.25927 10.9185 9.02149 10.824 8.84467 10.6522C8.66784 10.4805 8.56645 10.2455 8.56276 9.99905V9.97105C8.55984 9.84607 8.58158 9.72174 8.62676 9.60518C8.67193 9.48861 8.73964 9.38209 8.82602 9.29172C8.9124 9.20135 9.01574 9.1289 9.13015 9.07851C9.24456 9.02811 9.36778 9.00077 9.49276 8.99805H9.50576Z" fill="#475364"/>
<path d="M16.2172 9.96605C16.2226 10.0856 16.2044 10.2051 16.1635 10.3176C16.1227 10.4302 16.0601 10.5335 15.9793 10.6218C15.8985 10.7102 15.8011 10.7817 15.6927 10.8324C15.5842 10.883 15.4668 10.9118 15.3472 10.9171H15.2882C15.163 10.9185 15.0386 10.8953 14.9223 10.8487C14.806 10.8021 14.7 10.733 14.6104 10.6454C14.5208 10.5579 14.4493 10.4535 14.4 10.3383C14.3508 10.2231 14.3247 10.0993 14.3232 9.97405V9.95305C14.3261 9.69755 14.4304 9.45366 14.613 9.27496C14.7956 9.09627 15.0417 8.99739 15.2972 9.00005C15.4194 9.00188 15.5399 9.02774 15.6521 9.07617C15.7642 9.12461 15.8657 9.19465 15.9508 9.28231C16.0358 9.36997 16.1028 9.47353 16.1478 9.58708C16.1929 9.70062 16.2151 9.82192 16.2132 9.94405L16.2172 9.96605Z" fill="#475364"/>
<path opacity="0.88" d="M19.2987 20.7102C18.8509 20.3662 18.3622 20.079 17.8437 19.8552C16.9227 19.4216 15.961 19.0803 14.9727 18.8362H14.9567C14.9296 18.8311 14.9038 18.8206 14.8808 18.8054C14.8577 18.7903 14.8379 18.7707 14.8225 18.7478C14.807 18.7249 14.7963 18.6992 14.7908 18.6722C14.7854 18.6452 14.7853 18.6173 14.7907 18.5902C14.8089 18.3488 14.8069 18.1063 14.7847 17.8652C14.4117 17.9992 13.9087 18.1482 13.6467 18.2292C13.0138 18.3632 12.3633 18.3932 11.7207 18.3182C11.4797 18.2872 11.2377 18.2502 10.9747 18.2102C10.6326 18.1436 10.3005 18.033 9.98672 17.8812V18.6292C9.98951 18.6527 9.98763 18.6766 9.98119 18.6994C9.97476 18.7221 9.96389 18.7434 9.94921 18.762C9.93453 18.7806 9.91634 18.7961 9.89566 18.8076C9.87498 18.8192 9.85224 18.8265 9.82872 18.8292C9.59372 18.8902 9.36072 18.9652 9.12872 19.0292C7.9259 19.3587 6.77967 19.8678 5.72872 20.5392C5.56656 20.639 5.41061 20.7486 5.26172 20.8672C5.28572 20.8832 5.30772 20.9012 5.33172 20.9172C7.40326 22.3132 9.85261 23.0413 12.3503 23.0035C14.848 22.9658 17.2743 22.1641 19.3027 20.7062L19.2987 20.7102Z" fill="#475364"/>
</svg>
