<svg width="12" height="12" viewBox="0 0 12 12" fill="none" xmlns="http://www.w3.org/2000/svg">
<path fill-rule="evenodd" clip-rule="evenodd" d="M6 1.12497C3.3076 1.12497 1.12497 3.3076 1.12497 6C1.12497 8.6924 3.3076 10.875 6 10.875C8.6924 10.875 10.875 8.6924 10.875 6C10.875 3.3076 8.6924 1.12497 6 1.12497ZM0.334426 6C0.334426 2.87099 2.87099 0.334426 6 0.334426C9.12901 0.334426 11.6656 2.87099 11.6656 6C11.6656 9.12901 9.12901 11.6656 6 11.6656C2.87099 11.6656 0.334426 9.12901 0.334426 6Z" fill="#72BF44"/>
<path fill-rule="evenodd" clip-rule="evenodd" d="M0.0983607 6C0.0983607 2.74061 2.74061 0.0983607 6 0.0983607C9.25938 0.0983607 11.9016 2.74061 11.9016 6C11.9016 9.25938 9.25938 11.9016 6 11.9016C2.74061 11.9016 0.0983607 9.25938 0.0983607 6ZM6 0.570492C3.00137 0.570492 0.570492 3.00137 0.570492 6C0.570492 8.99863 3.00137 11.4295 6 11.4295C8.99863 11.4295 11.4295 8.99863 11.4295 6C11.4295 3.00137 8.99863 0.570492 6 0.570492ZM6 1.36104C3.43797 1.36104 1.36104 3.43797 1.36104 6C1.36104 8.56203 3.43797 10.639 6 10.639C8.56203 10.639 10.639 8.56203 10.639 6C10.639 3.43797 8.56203 1.36104 6 1.36104ZM0.888906 6C0.888906 3.17722 3.17722 0.888906 6 0.888906C8.82278 0.888906 11.1111 3.17722 11.1111 6C11.1111 8.82278 8.82278 11.1111 6 11.1111C3.17722 11.1111 0.888906 8.82278 0.888906 6Z" fill="#72BF44"/>
<path fill-rule="evenodd" clip-rule="evenodd" d="M0 6C0 2.68629 2.68629 0 6 0C9.31371 0 12 2.68629 12 6C12 9.31371 9.31371 12 6 12C2.68629 12 0 9.31371 0 6ZM6 0.196721C2.79494 0.196721 0.196721 2.79494 0.196721 6C0.196721 9.20506 2.79494 11.8033 6 11.8033C9.20506 11.8033 11.8033 9.20506 11.8033 6C11.8033 2.79494 9.20506 0.196721 6 0.196721ZM0.236066 6C0.236066 2.81667 2.81667 0.236066 6 0.236066C9.18333 0.236066 11.7639 2.81667 11.7639 6C11.7639 9.18333 9.18333 11.7639 6 11.7639C2.81667 11.7639 0.236066 9.18333 0.236066 6ZM6 0.432787C2.92531 0.432787 0.432787 2.92531 0.432787 6C0.432787 9.07469 2.92531 11.5672 6 11.5672C9.07469 11.5672 11.5672 9.07469 11.5672 6C11.5672 2.92531 9.07469 0.432787 6 0.432787ZM6 0.668852C3.05569 0.668852 0.668852 3.05569 0.668852 6C0.668852 8.94431 3.05569 11.3311 6 11.3311C8.94431 11.3311 11.3311 8.94431 11.3311 6C11.3311 3.05569 8.94431 0.668852 6 0.668852ZM0.472131 6C0.472131 2.94704 2.94704 0.472131 6 0.472131C9.05296 0.472131 11.5279 2.94704 11.5279 6C11.5279 9.05296 9.05296 11.5279 6 11.5279C2.94704 11.5279 0.472131 9.05296 0.472131 6ZM0.790545 6C0.790545 3.1229 3.1229 0.790545 6 0.790545C8.8771 0.790545 11.2095 3.1229 11.2095 6C11.2095 8.8771 8.8771 11.2095 6 11.2095C3.1229 11.2095 0.790545 8.8771 0.790545 6ZM6 0.987266C3.23154 0.987266 0.987266 3.23154 0.987266 6C0.987266 8.76846 3.23154 11.0127 6 11.0127C8.76846 11.0127 11.0127 8.76846 11.0127 6C11.0127 3.23154 8.76846 0.987266 6 0.987266ZM6 1.22333C3.36192 1.22333 1.22333 3.36192 1.22333 6C1.22333 8.63808 3.36192 10.7767 6 10.7767C8.63808 10.7767 10.7767 8.63808 10.7767 6C10.7767 3.36192 8.63808 1.22333 6 1.22333ZM1.02661 6C1.02661 3.25327 3.25327 1.02661 6 1.02661C8.74673 1.02661 10.9734 3.25327 10.9734 6C10.9734 8.74673 8.74673 10.9734 6 10.9734C3.25327 10.9734 1.02661 8.74673 1.02661 6ZM6 1.4594C3.49229 1.4594 1.4594 3.49229 1.4594 6C1.4594 8.5077 3.49229 10.5406 6 10.5406C8.5077 10.5406 10.5406 8.5077 10.5406 6C10.5406 3.49229 8.5077 1.4594 6 1.4594ZM1.26268 6C1.26268 3.38365 3.38365 1.26268 6 1.26268C8.61635 1.26268 10.7373 3.38365 10.7373 6C10.7373 8.61635 8.61635 10.7373 6 10.7373C3.38365 10.7373 1.26268 8.61635 1.26268 6Z" fill="#72BF44"/>
<path d="M5 7.25259V4.74741C5 4.42793 5.35606 4.23737 5.62188 4.41459L7.50077 5.66718C7.73826 5.82551 7.73826 6.17449 7.50077 6.33282L5.62188 7.58541C5.35606 7.76263 5 7.57207 5 7.25259Z" fill="#72BF44"/>
<path fill-rule="evenodd" clip-rule="evenodd" d="M5.5 4.93426V7.06574L7.09861 6L5.5 4.93426ZM4.5 4.74741C4.5 4.02858 5.30113 3.59983 5.89923 3.99856L7.77812 5.25115C8.31248 5.60739 8.31248 6.3926 7.77812 6.74885L5.89923 8.00144C5.30113 8.40017 4.5 7.97142 4.5 7.25259V4.74741Z" fill="#72BF44"/>
</svg>
