<svg width="18" height="16" viewBox="0 0 18 16" fill="none" xmlns="http://www.w3.org/2000/svg">
<path fill-rule="evenodd" clip-rule="evenodd" d="M10.8493 12.6561C10.8493 12.3054 11.1253 12.0212 11.4658 12.0212H17.2192C17.5596 12.0212 17.8356 12.3054 17.8356 12.6561C17.8356 13.0067 17.5596 13.291 17.2192 13.291H11.4658C11.1253 13.291 10.8493 13.0067 10.8493 12.6561Z" fill="#475364"/>
<path fill-rule="evenodd" clip-rule="evenodd" d="M0.164384 12.6561C0.164384 12.3054 0.440372 12.0212 0.780822 12.0212H3.24658C3.58702 12.0212 3.86301 12.3054 3.86301 12.6561C3.86301 13.0067 3.58702 13.291 3.24658 13.291H0.780822C0.440372 13.291 0.164384 13.0067 0.164384 12.6561Z" fill="#475364"/>
<path fill-rule="evenodd" clip-rule="evenodd" d="M14.137 3.34392C14.137 2.99326 14.413 2.70899 14.7534 2.70899H17.2192C17.5596 2.70899 17.8356 2.99326 17.8356 3.34392C17.8356 3.69457 17.5596 3.97884 17.2192 3.97884H14.7534C14.413 3.97884 14.137 3.69457 14.137 3.34392Z" fill="#475364"/>
<path fill-rule="evenodd" clip-rule="evenodd" d="M0.164384 3.34392C0.164384 2.99326 0.440372 2.70899 0.780822 2.70899H6.53425C6.8747 2.70899 7.15068 2.99326 7.15068 3.34392C7.15068 3.69457 6.8747 3.97884 6.53425 3.97884H0.780822C0.440372 3.97884 0.164384 3.69457 0.164384 3.34392Z" fill="#475364"/>
<path fill-rule="evenodd" clip-rule="evenodd" d="M4.13195 10.9677C4.00486 11.0805 3.86301 11.3057 3.86301 11.8095V13.5026C3.86301 14.0065 4.00486 14.2317 4.13195 14.3445C4.27609 14.4725 4.51934 14.5608 4.89041 14.5608H9.82192C10.193 14.5608 10.4362 14.4725 10.5804 14.3445C10.7075 14.2317 10.8493 14.0065 10.8493 13.5026V11.8095C10.8493 11.3057 10.7075 11.0805 10.5804 10.9677C10.4362 10.8397 10.193 10.7513 9.82192 10.7513H4.89041C4.51934 10.7513 4.27609 10.8397 4.13195 10.9677ZM3.32695 10.0059C3.77871 9.60476 4.35738 9.48148 4.89041 9.48148H9.82192C10.355 9.48148 10.9336 9.60476 11.3854 10.0059C11.8542 10.4221 12.0822 11.0435 12.0822 11.8095V13.5026C12.0822 14.2686 11.8542 14.89 11.3854 15.3063C10.9336 15.7074 10.355 15.8307 9.82192 15.8307H4.89041C4.35738 15.8307 3.77871 15.7074 3.32695 15.3063C2.85815 14.89 2.63014 14.2686 2.63014 13.5026V11.8095C2.63014 11.0435 2.85815 10.4221 3.32695 10.0059Z" fill="#475364"/>
<path fill-rule="evenodd" clip-rule="evenodd" d="M7.41962 1.6555C7.29253 1.76834 7.15068 1.99352 7.15068 2.49735V4.19048C7.15068 4.69431 7.29253 4.91949 7.41962 5.03233C7.56376 5.16031 7.80701 5.24868 8.17808 5.24868H13.1096C13.4807 5.24868 13.7239 5.16031 13.8681 5.03233C13.9951 4.91949 14.137 4.69431 14.137 4.19048V2.49735C14.137 1.99352 13.9951 1.76834 13.8681 1.6555C13.7239 1.52752 13.4807 1.43915 13.1096 1.43915H8.17808C7.80701 1.43915 7.56376 1.52752 7.41962 1.6555ZM6.61463 0.693708C7.06638 0.29259 7.64505 0.169312 8.17808 0.169312H13.1096C13.6426 0.169312 14.2213 0.29259 14.673 0.693708C15.1418 1.10997 15.3699 1.73135 15.3699 2.49735V4.19048C15.3699 4.95648 15.1418 5.57786 14.673 5.99412C14.2213 6.39524 13.6426 6.51852 13.1096 6.51852H8.17808C7.64505 6.51852 7.06638 6.39524 6.61463 5.99412C6.14582 5.57786 5.91781 4.95648 5.91781 4.19048V2.49735C5.91781 1.73135 6.14582 1.10997 6.61463 0.693708Z" fill="#475364"/>
<path fill-rule="evenodd" clip-rule="evenodd" d="M6.50729 0.565469C7.00014 0.127866 7.6236 0 8.17808 0H13.1096C13.6641 0 14.2875 0.127866 14.7804 0.565469C15.2949 1.02232 15.5342 1.69667 15.5342 2.49735V2.53968H17.2192C17.6504 2.53968 18 2.89975 18 3.34392C18 3.78808 17.6504 4.14815 17.2192 4.14815H15.5342V4.19048C15.5342 4.99116 15.2949 5.66551 14.7804 6.12236C14.2875 6.55996 13.6641 6.68783 13.1096 6.68783H8.17808C7.6236 6.68783 7.00014 6.55996 6.50729 6.12236C5.99277 5.66551 5.75342 4.99116 5.75342 4.19048V4.14815H0.780822C0.349586 4.14815 0 3.78808 0 3.34392C0 2.89975 0.349586 2.53968 0.780822 2.53968H5.75342V2.49735C5.75342 1.69667 5.99277 1.02232 6.50729 0.565469ZM5.75342 2.87831H0.780822C0.531159 2.87831 0.328767 3.08677 0.328767 3.34392C0.328767 3.60106 0.531159 3.80952 0.780822 3.80952H5.75342V2.87831ZM6.08219 3.80952V2.87831H6.53425C6.78391 2.87831 6.9863 3.08677 6.9863 3.34392C6.9863 3.60106 6.78391 3.80952 6.53425 3.80952H6.08219ZM6.08219 4.14815V4.19048C6.08219 4.9218 6.29888 5.49022 6.72196 5.86588C7.13262 6.23052 7.6665 6.34921 8.17808 6.34921H13.1096C13.6212 6.34921 14.1551 6.23052 14.5657 5.86588C14.9888 5.49022 15.2055 4.9218 15.2055 4.19048V4.14815H14.7534C14.585 4.14815 14.4289 4.09319 14.3014 3.99974V4.19048C14.3014 4.72989 14.1477 5.00759 13.9754 5.16057C13.7904 5.32483 13.5026 5.41799 13.1096 5.41799H8.17808C7.7851 5.41799 7.49728 5.32483 7.31229 5.16057C7.14 5.00759 6.9863 4.72989 6.9863 4.19048V3.99974C6.85873 4.09319 6.70272 4.14815 6.53425 4.14815H6.08219ZM7.31507 4.19048C7.31507 4.65874 7.44507 4.83139 7.52695 4.90409C7.63024 4.9958 7.82891 5.07936 8.17808 5.07936H13.1096C13.4588 5.07936 13.6574 4.9958 13.7607 4.90409C13.8426 4.83139 13.9726 4.65874 13.9726 4.19048V2.49735C13.9726 2.02909 13.8426 1.85644 13.7607 1.78374C13.6574 1.69203 13.4588 1.60847 13.1096 1.60847H8.17808C7.82891 1.60847 7.63024 1.69203 7.52695 1.78374C7.44507 1.85644 7.31507 2.02909 7.31507 2.49735V4.19048ZM14.3014 2.68809V2.49735C14.3014 1.95794 14.1477 1.68024 13.9754 1.52726C13.7904 1.363 13.5026 1.26984 13.1096 1.26984H8.17808C7.7851 1.26984 7.49728 1.363 7.31229 1.52726C7.14 1.68024 6.9863 1.95794 6.9863 2.49735V2.68809C6.85873 2.59464 6.70272 2.53968 6.53425 2.53968H6.08219V2.49735C6.08219 1.76603 6.29888 1.19761 6.72196 0.821947C7.13262 0.457313 7.6665 0.338624 8.17808 0.338624H13.1096C13.6212 0.338624 14.1551 0.457313 14.5657 0.821947C14.9888 1.19761 15.2055 1.76603 15.2055 2.49735V2.53968H14.7534C14.585 2.53968 14.4289 2.59464 14.3014 2.68809ZM15.2055 2.87831H14.7534C14.5038 2.87831 14.3014 3.08677 14.3014 3.34392C14.3014 3.60106 14.5038 3.80952 14.7534 3.80952H15.2055V2.87831ZM15.5342 3.80952H17.2192C17.4688 3.80952 17.6712 3.60106 17.6712 3.34392C17.6712 3.08677 17.4688 2.87831 17.2192 2.87831H15.5342V3.80952ZM3.21962 9.87764C3.71247 9.44003 4.33593 9.31217 4.89041 9.31217H9.82192C10.3764 9.31217 10.9999 9.44003 11.4927 9.87764C12.0072 10.3345 12.2466 11.0088 12.2466 11.8095V11.8519H17.2192C17.6504 11.8519 18 12.2119 18 12.6561C18 13.1002 17.6504 13.4603 17.2192 13.4603H12.2466V13.5026C12.2466 14.3033 12.0072 14.9777 11.4927 15.4345C10.9999 15.8721 10.3764 16 9.82192 16H4.89041C4.33593 16 3.71247 15.8721 3.21962 15.4345C2.7051 14.9777 2.46575 14.3033 2.46575 13.5026V13.4603H0.780822C0.349586 13.4603 0 13.1002 0 12.6561C0 12.2119 0.349586 11.8519 0.780822 11.8519H2.46575V11.8095C2.46575 11.0088 2.7051 10.3345 3.21962 9.87764ZM2.46575 12.1905H0.780822C0.531159 12.1905 0.328767 12.3989 0.328767 12.6561C0.328767 12.9132 0.531159 13.1217 0.780822 13.1217H2.46575V12.1905ZM2.79452 13.1217V12.1905H3.24658C3.49624 12.1905 3.69863 12.3989 3.69863 12.6561C3.69863 12.9132 3.49624 13.1217 3.24658 13.1217H2.79452ZM2.79452 13.4603V13.5026C2.79452 14.234 3.0112 14.8024 3.43429 15.1781C3.84495 15.5427 4.37883 15.6614 4.89041 15.6614H9.82192C10.3335 15.6614 10.8674 15.5427 11.278 15.1781C11.7011 14.8024 11.9178 14.234 11.9178 13.5026V13.4603H11.4658C11.2973 13.4603 11.1413 13.4054 11.0137 13.3119V13.5026C11.0137 14.0421 10.86 14.3198 10.6877 14.4727C10.5027 14.637 10.2149 14.7302 9.82192 14.7302H4.89041C4.49743 14.7302 4.20961 14.637 4.02462 14.4727C3.85233 14.3198 3.69863 14.0421 3.69863 13.5026V13.3119C3.57106 13.4054 3.41505 13.4603 3.24658 13.4603H2.79452ZM4.0274 13.5026C4.0274 13.9709 4.1574 14.1436 4.23928 14.2163C4.34256 14.308 4.54124 14.3915 4.89041 14.3915H9.82192C10.1711 14.3915 10.3698 14.308 10.473 14.2163C10.5549 14.1436 10.6849 13.9709 10.6849 13.5026V11.8095C10.6849 11.3413 10.5549 11.1686 10.473 11.0959C10.3698 11.0042 10.1711 10.9206 9.82192 10.9206H4.89041C4.54124 10.9206 4.34256 11.0042 4.23928 11.0959C4.1574 11.1686 4.0274 11.3413 4.0274 11.8095V13.5026ZM11.0137 12.0003V11.8095C11.0137 11.2701 10.86 10.9924 10.6877 10.8394C10.5027 10.6752 10.2149 10.582 9.82192 10.582H4.89041C4.49743 10.582 4.20961 10.6752 4.02462 10.8394C3.85233 10.9924 3.69863 11.2701 3.69863 11.8095V12.0003C3.57106 11.9068 3.41505 11.8519 3.24658 11.8519H2.79452V11.8095C2.79452 11.0782 3.0112 10.5098 3.43429 10.1341C3.84495 9.76948 4.37883 9.65079 4.89041 9.65079H9.82192C10.3335 9.65079 10.8674 9.76948 11.278 10.1341C11.7011 10.5098 11.9178 11.0782 11.9178 11.8095V11.8519H11.4658C11.2973 11.8519 11.1413 11.9068 11.0137 12.0003ZM11.9178 12.1905H11.4658C11.2161 12.1905 11.0137 12.3989 11.0137 12.6561C11.0137 12.9132 11.2161 13.1217 11.4658 13.1217H11.9178V12.1905ZM12.2466 13.1217H17.2192C17.4688 13.1217 17.6712 12.9132 17.6712 12.6561C17.6712 12.3989 17.4688 12.1905 17.2192 12.1905H12.2466V13.1217Z" fill="#475364"/>
</svg>
