<svg width="41" height="40" viewBox="0 0 41 40" fill="none" xmlns="http://www.w3.org/2000/svg">
<rect x="0.399902" width="40" height="40" rx="20" fill="#457AED" fill-opacity="0.15"/>
<path fill-rule="evenodd" clip-rule="evenodd" d="M29.349 11.2511C29.6052 11.5072 29.6726 11.8967 29.5176 12.2241L21.8033 28.5098C21.6483 28.837 21.3045 29.0315 20.9442 28.9958C20.5839 28.9601 20.2849 28.7019 20.1971 28.3507L18.6076 21.9925L12.2494 20.403C11.8981 20.3152 11.64 20.0162 11.6043 19.6559C11.5686 19.2956 11.7631 18.9518 12.0903 18.7968L28.376 11.0825C28.7034 10.9275 29.0929 10.9949 29.349 11.2511ZM14.9887 19.3208L19.5223 20.4542C19.8294 20.5309 20.0692 20.7707 20.1459 21.0778L21.2793 25.6114L26.9409 13.6592L14.9887 19.3208Z" fill="#457AED"/>
</svg>
