<svg width="204" height="64" viewBox="0 0 204 64" fill="none" xmlns="http://www.w3.org/2000/svg">
<path d="M113.294 32.8339C113.294 28.2624 113.294 23.691 113.294 19.1098C113.294 18.1484 113.294 18.2661 114.137 18.2661C118.707 18.2661 123.286 18.3152 127.856 18.2465C131.818 18.1975 135.671 21.1699 136.426 25.3489C136.917 28.0957 136.191 30.5187 134.053 32.4218C133.632 32.7946 133.622 32.8044 134.093 33.1968C136.515 35.2373 137.093 38.6021 136.132 41.3979C135.25 43.9583 133.524 45.7437 131.033 46.7836C130.151 47.1563 129.209 47.382 128.248 47.382C123.473 47.4016 118.687 47.3918 113.912 47.3918C113.314 47.3918 113.314 47.3722 113.314 46.6168C113.294 42.0258 113.294 37.4347 113.294 32.8339ZM123.963 24.1227C122.571 24.1227 121.168 24.1128 119.776 24.1227C119.178 24.1227 119.139 24.1521 119.139 24.7211C119.129 26.2416 119.129 27.7719 119.139 29.2925C119.139 29.8713 119.178 29.9007 119.766 29.9007C121.188 29.9105 122.61 29.9007 124.032 29.9007C125.346 29.9007 126.669 29.9203 127.983 29.8909C129.209 29.8615 130.268 28.9688 130.602 27.8406C131.151 26.016 129.817 24.0246 127.758 24.1128C126.503 24.1717 125.228 24.1227 123.963 24.1227ZM123.855 41.5549C125.199 41.5451 126.542 41.5451 127.885 41.5451C127.964 41.5451 128.042 41.5353 128.121 41.5353C129.631 41.3979 130.778 40.1226 130.749 38.6021C130.719 37.0619 129.552 35.8063 128.032 35.7866C125.267 35.7572 122.512 35.767 119.746 35.7768C119.188 35.7768 119.158 35.7965 119.148 36.336C119.139 37.8565 119.139 39.3771 119.148 40.9074C119.148 41.5156 119.197 41.5451 119.835 41.5549C121.168 41.5647 122.512 41.5549 123.855 41.5549Z" fill="black"/>
<path d="M16.0098 32.8044C16.0098 28.3311 16.0098 23.8676 16.0098 19.3943C16.0098 19.2177 16.0098 19.0411 16.0098 18.8547C16.0294 18.2858 16.0294 18.2661 16.5589 18.2661C19.687 18.2661 22.8151 18.1877 25.9334 18.3152C28.8457 18.4329 31.4541 19.5512 33.7389 21.3465C36.1511 23.2496 37.8476 25.6824 38.7105 28.645C40.4461 34.6389 38.3967 40.7309 33.5134 44.4586C31.0227 46.3716 28.1691 47.3427 25.0312 47.3918C22.2954 47.431 19.5595 47.4114 16.8139 47.4114C16.0098 47.4114 16 47.4114 16 46.607C16.0098 42.0061 16.0098 37.4053 16.0098 32.8044ZM21.8835 32.7946C21.8835 33.599 21.8835 34.3936 21.8835 35.1981C21.8835 37.0816 21.8835 38.9651 21.8835 40.8486C21.8835 41.5255 21.913 41.5549 22.5798 41.5549C23.5604 41.5549 24.5409 41.5549 25.5215 41.5156C26.4041 41.4862 27.267 41.2606 28.0711 40.9074C31.1697 39.534 32.9838 37.1699 33.4349 33.7952C33.935 30.0871 31.6208 26.2122 28.1495 24.7701C26.2276 23.9657 24.2468 24.1717 22.2758 24.1325C22.0306 24.1325 21.8934 24.2502 21.8934 24.5052C21.8934 24.7113 21.8835 24.9173 21.8835 25.1233C21.8835 27.6837 21.8835 30.2342 21.8835 32.7946Z" fill="black"/>
<path d="M107.097 36.5126C107.097 39.8479 107.097 43.1735 107.097 46.5089C107.097 47.3722 106.734 47.637 105.901 47.3918C105.655 47.3231 105.538 47.1171 105.4 46.9307C104.93 46.2833 104.469 45.626 103.998 44.9883C103.606 44.4488 103.547 44.4488 103.047 44.8804C101.762 45.989 100.321 46.813 98.7128 47.3623C98.0264 47.5978 97.3106 47.7351 96.5948 47.7646C93.6236 47.9117 90.9172 47.176 88.6128 45.2238C86.936 43.7915 85.8377 41.9669 85.3082 39.8381C84.4452 36.336 84.7394 32.9614 86.681 29.8516C88.1225 27.5463 90.1719 26.0258 92.7803 25.2606C93.4961 25.0546 94.2217 24.878 94.9768 24.8191C97.8695 24.5837 100.331 25.6334 102.557 27.3599C102.782 27.5365 103.008 27.7131 103.204 27.9191C103.459 28.1741 103.635 28.2036 103.881 27.8798C104.351 27.2716 104.861 26.683 105.361 26.0944C105.695 25.702 106.361 25.5353 106.832 25.702C107.009 25.7609 107.067 25.8884 107.067 26.0552C107.077 26.2612 107.077 26.4672 107.077 26.6732C107.097 29.9497 107.097 33.2263 107.097 36.5126ZM90.5249 35.9534C90.5249 37.3955 90.7308 38.4353 91.2211 39.4359C92.4861 42.0552 96.0456 43.0067 98.4775 41.5254C100.566 40.2502 101.596 38.347 101.468 35.8847C101.331 33.2263 99.0364 30.5481 96.2516 30.45C94.3492 30.3814 92.741 30.9798 91.6036 32.569C90.8093 33.6677 90.5151 34.943 90.5249 35.9534Z" fill="black"/>
<path d="M63.6665 36.5126C63.6665 39.8186 63.6665 43.1245 63.6665 46.4304C63.6665 47.3918 63.7645 47.4212 62.6074 47.4114C62.2936 47.4114 62.1564 47.2152 61.9995 46.9994C61.519 46.3323 61.0385 45.6653 60.5384 44.9982C60.1265 44.439 60.1167 44.439 59.597 44.8707C58.4007 45.8713 57.0965 46.6757 55.6256 47.225C54.8117 47.5292 53.988 47.7254 53.1349 47.7646C49.6342 47.9216 46.5552 46.9111 44.1723 44.233C42.6524 42.5261 41.8287 40.4954 41.5443 38.2294C41.3482 36.6009 41.3482 34.9725 41.7503 33.3833C42.8093 29.2337 45.3196 26.4476 49.4871 25.2116C52.8113 24.2306 55.8021 24.9663 58.5576 26.9479C58.9989 27.2619 59.4303 27.5954 59.8225 27.9682C60.0383 28.1742 60.1952 28.1742 60.3913 27.9289C60.8914 27.3011 61.4111 26.6929 61.9308 26.0847C62.2544 25.7021 62.9408 25.5353 63.4017 25.7021C63.5684 25.7609 63.6469 25.8885 63.6469 26.0552C63.6567 26.2907 63.6665 26.5163 63.6665 26.7517C63.6665 29.9988 63.6665 33.2557 63.6665 36.5126ZM58.0281 36.3753C58.0379 35.3845 57.93 34.7665 57.4299 33.7658C56.4689 31.8431 54.9882 30.607 52.7623 30.4501C50.4873 30.2833 48.4281 31.5096 47.575 33.5991C46.8395 35.4237 46.8395 37.2778 47.5946 39.1024C48.6732 41.7021 51.3895 42.6438 53.6448 42.0945C56.518 41.3881 58.0771 38.5629 58.0281 36.3753Z" fill="black"/>
<path d="M182.279 26.7321C182.475 26.4378 182.396 26.1435 182.396 25.8688C182.406 23.2888 182.396 20.699 182.396 18.119C182.396 17.913 182.406 17.707 182.396 17.5009C182.387 17.138 182.543 16.9908 182.906 17.0006C183.73 17.0105 186.74 17.0105 187.564 17.0006C187.907 16.9908 188.025 17.1576 187.996 17.4715C187.986 17.6285 187.996 17.7854 187.996 17.9326C187.996 27.0068 187.996 38.0331 187.996 47.1073C187.996 47.382 187.996 47.6665 187.996 47.9411C187.947 47.9607 186.809 48 186.809 48C186.809 48 185.034 45.1944 184.867 44.9589C184.505 44.4586 184.456 44.4488 183.975 44.851C183.142 45.5475 182.259 46.1655 181.288 46.6658C179.415 47.6174 177.474 48.0098 175.375 47.6959C170.953 47.0288 167.972 44.5273 166.472 40.3973C164.834 35.8945 165.962 30.6266 169.845 27.3599C172.237 25.3587 175.032 24.5248 178.141 24.8878C179.513 25.0448 180.798 25.5255 181.847 26.4868C181.955 26.5653 182.053 26.7125 182.279 26.7321ZM171.433 35.561C171.394 37.68 171.845 39.0239 172.777 40.2011C174.395 42.2416 177.248 42.8302 179.376 41.5254C182.671 39.5242 183.495 35.0999 180.622 32.0785C178.454 29.8124 175.052 30.0282 173.159 31.843C171.943 33.0202 171.443 34.5113 171.433 35.561Z" fill="black"/>
<path d="M74.5119 21.3268C74.5119 22.5433 74.5119 23.7597 74.5119 24.9663C74.5119 25.6432 74.5315 25.6628 75.2179 25.6628C77.4144 25.6726 79.6109 25.6628 81.8075 25.6628C81.9644 25.6628 82.1213 25.6628 82.2683 25.6628C82.9253 25.6824 82.9351 25.6824 82.9351 26.3005C82.945 27.7229 82.945 29.1453 82.9351 30.5678C82.9351 31.1564 82.9155 31.176 82.3174 31.176C80.0914 31.1858 77.8753 31.176 75.6494 31.176C75.4729 31.176 75.2865 31.1662 75.11 31.176C74.5805 31.1956 74.5119 31.2348 74.5119 31.7548C74.5021 33.7462 74.4628 35.7376 74.5413 37.7192C74.6001 39.3575 75.3846 40.6131 76.8653 41.3979C77.5027 41.7315 78.1891 41.8296 78.8853 41.8394C79.9934 41.859 81.1112 41.8394 82.2193 41.8492C82.9253 41.8492 82.9352 41.859 82.945 42.5163C82.9548 43.9387 82.9548 45.3611 82.945 46.7836C82.945 47.382 82.9253 47.3918 82.3272 47.3918C80.9544 47.4016 79.5815 47.4703 78.2185 47.3722C74.6982 47.1171 72.031 45.4298 70.2463 42.3691C69.3736 40.8584 69.001 39.2201 69.0108 37.4739C69.0206 35.6101 69.0206 33.756 69.0108 31.8921C69.0108 31.176 69.001 31.176 68.2753 31.1662C67.8144 31.1662 67.3438 31.176 66.8829 31.1662C66.3239 31.1466 66.3043 31.1269 66.2945 30.5187C66.2847 29.3513 66.2945 28.1938 66.2945 27.0264C66.2945 26.7419 66.3043 26.4574 66.2945 26.1729C66.2749 25.81 66.4318 25.653 66.7946 25.653C67.3339 25.6628 67.8831 25.6628 68.4224 25.653C69.001 25.6432 69.0206 25.6334 69.0206 25.0252C69.0304 22.5923 69.0206 20.1693 69.0206 17.7364C69.0206 16.981 69.0304 16.981 69.7952 16.9712C71.1681 16.9712 72.5311 16.9614 73.9039 16.9712C74.5021 16.9712 74.5119 16.9908 74.5119 17.5794C74.5217 18.8449 74.5119 20.0908 74.5119 21.3268Z" fill="black"/>
<path d="M150.204 36.4341C150.204 33.1772 150.204 29.9203 150.204 26.6732C150.204 26.4966 150.214 26.3102 150.204 26.1336C150.184 25.7609 150.361 25.653 150.714 25.6333C151.243 25.6039 151.655 25.702 151.949 26.2023C152.283 26.7517 152.694 27.252 153.057 27.7817C153.263 28.0858 153.449 28.1152 153.734 27.87C154.793 26.9773 156.019 26.3691 157.352 26.0159C158.048 25.8295 158.764 25.6922 159.49 25.6824C161.039 25.6726 162.589 25.6726 164.138 25.6726C164.775 25.6726 164.795 25.6922 164.795 26.32C164.805 27.713 164.805 29.106 164.795 30.5089C164.795 31.1759 164.775 31.1759 164.089 31.1858C162.794 31.1956 161.51 31.1858 160.216 31.1858C157.48 31.1956 155.724 32.9515 155.715 35.7081C155.705 39.2495 155.715 42.7909 155.715 46.3225C155.715 46.499 155.705 46.6854 155.715 46.862C155.744 47.2544 155.597 47.4212 155.185 47.4114C154.459 47.3917 153.744 47.4015 153.018 47.4015C152.273 47.4015 151.518 47.4114 150.772 47.4015C150.243 47.3917 150.214 47.3721 150.204 46.8228C150.194 45.9203 150.204 45.0177 150.204 44.1054C150.204 41.545 150.204 38.9944 150.204 36.4341Z" fill="black"/>
<path d="M145.967 36.542C145.967 39.8284 145.967 43.1049 145.967 46.3912C145.967 46.5678 145.958 46.7542 145.967 46.9307C145.977 47.2447 145.869 47.4114 145.526 47.4114C143.947 47.4016 142.378 47.4114 140.8 47.4114C140.515 47.4114 140.378 47.2741 140.378 46.9798C140.378 46.8032 140.378 46.6168 140.378 46.4402C140.378 39.8284 140.378 33.2067 140.378 26.5948C140.378 25.6432 140.378 25.6432 141.29 25.6432C142.604 25.6432 143.928 25.6334 145.242 25.6432C145.958 25.6432 145.967 25.653 145.967 26.3888C145.967 29.7634 145.967 33.1478 145.967 36.542Z" fill="black"/>
<path d="M146.899 19.7082C146.977 21.7487 145.183 23.436 143.153 23.4163C141.133 23.3967 139.456 21.729 139.456 19.7278C139.456 17.7266 141.143 16.0099 143.143 16C145.163 15.9902 146.958 17.6579 146.899 19.7082Z" fill="black"/>
</svg>
