<svg width="20" height="20" viewBox="0 0 20 20" fill="none" xmlns="http://www.w3.org/2000/svg">
<path fill-rule="evenodd" clip-rule="evenodd" d="M14 2H6C3.79086 2 2 3.79086 2 6V14C2 16.2091 3.79086 18 6 18H14C16.2091 18 18 16.2091 18 14V6C18 3.79086 16.2091 2 14 2ZM6 0C2.68629 0 0 2.68629 0 6V14C0 17.3137 2.68629 20 6 20H14C17.3137 20 20 17.3137 20 14V6C20 2.68629 17.3137 0 14 0H6Z" fill="#383874"/>
<path fill-rule="evenodd" clip-rule="evenodd" d="M14.6581 7.3262C14.6596 7.32764 14.6611 7.32909 14.6626 7.33054C14.7264 7.39247 14.7749 7.46338 14.808 7.53896C14.9132 7.77921 14.8632 8.06658 14.6581 8.26208L13.4726 9.39178L10.7692 11.968C10.6221 12.1082 10.4167 12.1781 10.2097 12.1586C10.0027 12.139 9.81573 12.0321 9.70033 11.8671L8.68872 10.4211L6.32474 12.6738C6.05354 12.9323 5.61385 12.9323 5.34265 12.6738C5.07145 12.4154 5.07145 11.9964 5.34265 11.738L8.30561 8.91444C8.45273 8.77425 8.65805 8.70429 8.86509 8.72383C9.07212 8.74337 9.25906 8.85033 9.37447 9.01529L10.3861 10.4613L12.4905 8.4559L13.676 7.3262C13.8121 7.19648 13.9907 7.13187 14.1691 7.13238C14.2589 7.13263 14.3486 7.14937 14.4329 7.18259C14.5129 7.21415 14.588 7.26059 14.6535 7.3219C14.655 7.32333 14.6566 7.32476 14.6581 7.3262Z" fill="#383874"/>
<path fill-rule="evenodd" clip-rule="evenodd" d="M11.6207 7.79414C11.6207 7.42866 11.9316 7.13237 12.3152 7.13237H14.167L14.1691 7.13238C14.2625 7.13264 14.3516 7.15047 14.4329 7.18259C14.5157 7.21534 14.5905 7.26293 14.6535 7.3219C14.6566 7.32475 14.6596 7.32763 14.6626 7.33054C14.724 7.39013 14.7736 7.46073 14.808 7.53896C14.8424 7.61749 14.8615 7.7037 14.8615 7.79414V9.55885C14.8615 9.92433 14.5506 10.2206 14.167 10.2206C13.7835 10.2206 13.4726 9.92433 13.4726 9.55885V9.39178V8.4559H12.4905H12.3152C11.9316 8.4559 11.6207 8.15962 11.6207 7.79414Z" fill="#383874"/>
<path fill-rule="evenodd" clip-rule="evenodd" d="M14.1662 7H12.3148C11.8546 7 11.4815 7.35554 11.4815 7.79412C11.4815 8.18488 11.7777 8.50972 12.1678 8.57591L10.4073 10.2535L9.48967 8.94186C9.35118 8.7439 9.12686 8.61554 8.87841 8.5921C8.62996 8.56866 8.38358 8.6526 8.20704 8.82083L5.24408 11.6444C4.91864 11.9545 4.91864 12.4573 5.24408 12.7674C5.56951 13.0775 6.09715 13.0775 6.42259 12.7674L8.66678 10.6288L9.5844 11.9405C9.72289 12.1385 9.94722 12.2668 10.1957 12.2903C10.4441 12.3137 10.6905 12.2298 10.867 12.0615L13.3463 9.69896C13.4157 10.0707 13.7566 10.3529 14.1667 10.3529C14.6269 10.3529 15 9.9974 15 9.55882V7.79412C15 7.78041 14.9996 7.76679 14.9989 7.75325C14.994 7.66045 14.9723 7.57186 14.9368 7.49014C14.8949 7.39383 14.8336 7.30708 14.7577 7.23428L14.7559 7.23259L14.7505 7.22743C14.6748 7.15667 14.5851 7.09955 14.4857 7.06026L14.1662 7ZM14.6581 8.26208C14.8632 8.06658 14.9132 7.77921 14.808 7.53896C14.7736 7.46073 14.724 7.39013 14.6626 7.33054C14.6611 7.32909 14.6596 7.32764 14.6581 7.3262C14.6566 7.32476 14.655 7.32333 14.6535 7.3219C14.5905 7.26293 14.5157 7.21534 14.4329 7.18259C14.3486 7.14937 14.2589 7.13263 14.1691 7.13238C14.2625 7.13264 14.3516 7.15047 14.4329 7.18259C14.5129 7.21415 14.588 7.26059 14.6535 7.3219C14.6566 7.32475 14.6596 7.32763 14.6626 7.33054C14.7264 7.39247 14.7749 7.46338 14.808 7.53896C14.8424 7.61749 14.8615 7.7037 14.8615 7.79414V9.55885C14.8615 9.92433 14.5506 10.2206 14.167 10.2206C13.7835 10.2206 13.4726 9.92433 13.4726 9.55885V9.39178L10.7692 11.968C10.6221 12.1082 10.4167 12.1781 10.2097 12.1586C10.0027 12.139 9.81573 12.0321 9.70033 11.8671L8.68872 10.4211L6.32474 12.6738C6.05354 12.9323 5.61385 12.9323 5.34265 12.6738C5.07145 12.4154 5.07145 11.9964 5.34265 11.738L8.30561 8.91444C8.45273 8.77425 8.65805 8.70429 8.86509 8.72383C9.07212 8.74337 9.25906 8.85033 9.37447 9.01529L10.3861 10.4613L12.4905 8.4559H12.3152C11.9316 8.4559 11.6207 8.15962 11.6207 7.79414C11.6207 7.42866 11.9316 7.13237 12.3152 7.13237H14.167C13.9895 7.1325 13.8115 7.1971 13.676 7.3262L12.4905 8.4559H13.4726V9.39178L14.6581 8.26208ZM14.6626 7.33054C14.7264 7.39247 14.7749 7.46338 14.808 7.53896C14.7736 7.46073 14.724 7.39013 14.6626 7.33054ZM14.6581 7.3262C14.6596 7.32764 14.6611 7.32909 14.6626 7.33054C14.6596 7.32763 14.6566 7.32475 14.6535 7.3219C14.655 7.32333 14.6566 7.32476 14.6581 7.3262ZM14.4329 7.18259C14.5129 7.21415 14.588 7.26059 14.6535 7.3219C14.5905 7.26293 14.5157 7.21534 14.4329 7.18259ZM14.4329 7.18259C14.3486 7.14937 14.2589 7.13263 14.1691 7.13238C14.2625 7.13264 14.3516 7.15047 14.4329 7.18259ZM14.5631 7.42324C14.6126 7.47128 14.6526 7.52829 14.6801 7.59147C14.7634 7.78336 14.7232 8.01248 14.5595 8.16847L13.6111 9.07223V8.45588C13.6111 8.38278 13.5489 8.32353 13.4722 8.32353H12.8254L13.7738 7.41977C13.8822 7.31654 14.0241 7.26485 14.1661 7.26471L14.5631 7.42324L14.5595 7.41977L14.1718 7.26473C14.3232 7.26603 14.4601 7.32503 14.5595 7.41977L14.5631 7.42324Z" fill="#383874"/>
</svg>
