<svg width="22" height="20" viewBox="0 0 22 20" fill="none" xmlns="http://www.w3.org/2000/svg">
<path fill-rule="evenodd" clip-rule="evenodd" d="M17.4445 1.51358C16.5111 1.51358 15.7629 2.26048 15.7629 3.19229C15.7629 4.08937 16.454 4.81235 17.3289 4.869C17.4023 4.8625 17.4774 4.8625 17.5508 4.869C18.4242 4.81241 19.1184 4.09035 19.126 3.18984C19.1247 2.26658 18.3753 1.51358 17.4445 1.51358ZM14.3845 3.19229C14.3845 1.50055 15.7498 0.137593 17.4445 0.137593C19.1409 0.137593 20.5044 1.51146 20.5044 3.19229V3.19721C20.4926 4.84741 19.1914 6.18725 17.5521 6.24654C17.5146 6.2479 17.4771 6.24619 17.4399 6.24145C17.4027 6.24619 17.3651 6.2479 17.3276 6.24654C15.6892 6.18728 14.3845 4.84718 14.3845 3.19229Z" fill="#383874"/>
<path fill-rule="evenodd" clip-rule="evenodd" d="M16.4346 7.11041C17.8317 6.8661 19.4246 7.09903 20.5827 7.86613L20.5839 7.86695C21.3754 8.39373 21.8625 9.15705 21.8625 10.008C21.8625 10.859 21.3754 11.6223 20.5839 12.1491C19.4344 12.9171 17.8605 13.1492 16.467 12.9156C16.0917 12.8527 15.8385 12.4979 15.9015 12.1232C15.9645 11.7485 16.3199 11.4957 16.6952 11.5586C17.819 11.747 19.0196 11.539 19.8181 11.005L19.8193 11.0042C20.3234 10.6687 20.4842 10.2945 20.4842 10.008C20.4842 9.72164 20.3236 9.34767 19.82 9.01227C19.0116 8.47706 17.793 8.26981 16.6725 8.46576C16.2976 8.53133 15.9404 8.28108 15.8747 7.90681C15.8091 7.53254 16.0597 7.17598 16.4346 7.11041Z" fill="#383874"/>
<path fill-rule="evenodd" clip-rule="evenodd" d="M1.49591 3.19229C1.49591 1.51146 2.85946 0.137593 4.55585 0.137593C6.2505 0.137593 7.61579 1.50055 7.61579 3.19229C7.61579 4.84718 6.31109 6.18728 4.67269 6.24654C4.63518 6.2479 4.59764 6.24619 4.56044 6.24145C4.52324 6.24619 4.4857 6.2479 4.44819 6.24654C2.80894 6.18725 1.50773 4.84741 1.49592 3.19721L1.49591 3.19229ZM2.87426 3.18984C2.88196 4.09036 3.5761 4.81241 4.44948 4.869C4.52287 4.8625 4.59802 4.8625 4.67141 4.869C5.5463 4.81235 6.23744 4.08937 6.23744 3.19229C6.23744 2.26048 5.48925 1.51358 4.55585 1.51358C3.625 1.51358 2.87558 2.26659 2.87426 3.18984Z" fill="#383874"/>
<path fill-rule="evenodd" clip-rule="evenodd" d="M2.18077 9.01226C2.98918 8.47706 4.20774 8.26981 5.32822 8.46576C5.70313 8.53133 6.0603 8.28108 6.12598 7.90681C6.19166 7.53254 5.94098 7.17598 5.56606 7.11041C4.16904 6.8661 2.5761 7.09903 1.41806 7.86613L1.41682 7.86695C0.625294 8.39373 0.138194 9.15705 0.138194 10.008C0.138194 10.8588 0.625038 11.6219 1.4162 12.1487C2.56571 12.917 4.13993 13.1492 5.53368 12.9156C5.90905 12.8527 6.16226 12.4979 6.09924 12.1232C6.03622 11.7485 5.68084 11.4957 5.30547 11.5586C4.18169 11.747 2.98114 11.539 2.18264 11.005L2.18139 11.0042C1.67727 10.6687 1.51655 10.2945 1.51655 10.008C1.51655 9.72164 1.67714 9.34766 2.18077 9.01226Z" fill="#383874"/>
<path fill-rule="evenodd" clip-rule="evenodd" d="M10.9311 8.36602C9.99765 8.36602 9.24947 9.11292 9.24947 10.0447C9.24947 10.9418 9.94061 11.6648 10.8155 11.7214C10.8899 11.7148 10.9661 11.7149 11.0405 11.7217C11.9068 11.6721 12.6049 10.9476 12.6126 10.0423C12.6113 9.11902 11.8619 8.36602 10.9311 8.36602ZM7.87112 10.0447C7.87112 8.35298 9.23641 6.99003 10.9311 6.99003C12.6274 6.99003 13.991 8.36389 13.991 10.0447V10.0496C13.9792 11.6954 12.6813 13.0515 11.0337 13.0991C10.9979 13.1002 10.962 13.0984 10.9265 13.0939C10.8893 13.0986 10.8517 13.1003 10.8142 13.099C9.17582 13.0397 7.87112 11.6996 7.87112 10.0447Z" fill="#383874"/>
<path fill-rule="evenodd" clip-rule="evenodd" d="M11.0169 13.8837C12.0906 13.8837 13.2014 14.1507 14.0697 14.7285C14.8613 15.2553 15.3484 16.0186 15.3484 16.8696C15.3484 17.7205 14.8614 18.4837 14.07 19.0105C13.198 19.5925 12.0876 19.8624 11.0134 19.8624C9.93925 19.8624 8.82885 19.5925 7.95685 19.0105C7.1655 18.4837 6.67852 17.7205 6.67852 16.8696C6.67852 16.0186 7.16562 15.2553 7.95715 14.7285L7.95881 14.7274C8.83082 14.1507 9.94295 13.8837 11.0169 13.8837ZM8.72091 15.874C8.21743 16.2093 8.05687 16.5833 8.05687 16.8696C8.05687 17.1561 8.21842 17.5308 8.72255 17.8664C9.32071 18.2657 10.149 18.4864 11.0134 18.4864C11.8779 18.4864 12.7062 18.2657 13.3043 17.8664C13.8084 17.5308 13.97 17.1561 13.97 16.8696C13.97 16.5831 13.8093 16.2089 13.3052 15.8734C12.7124 15.479 11.8843 15.2597 11.0169 15.2597C10.15 15.2597 9.31907 15.4787 8.72091 15.874Z" fill="#383874"/>
<path fill-rule="evenodd" clip-rule="evenodd" d="M1.35771 3.1923C1.35771 1.43584 2.78261 0 4.55549 0C6.32626 0 7.75326 1.42456 7.75326 3.1923C7.75326 4.92131 6.38978 6.32212 4.67732 6.38406C4.63817 6.38547 4.599 6.38411 4.56008 6.37999C4.52117 6.38411 4.48199 6.38547 4.44284 6.38406C2.72932 6.32208 1.37006 4.92156 1.35773 3.1982L1.35771 3.1923ZM1.63338 3.1923L1.6334 3.19623C1.64468 4.77327 2.88783 6.05243 4.45283 6.10904C4.48283 6.11012 4.51286 6.10876 4.54262 6.10497C4.55422 6.10349 4.56595 6.10349 4.57754 6.10497C4.6073 6.10876 4.63734 6.11012 4.66734 6.10904C6.23168 6.05246 7.47759 4.77305 7.47759 3.1923C7.47759 1.57655 6.17402 0.275198 4.55549 0.275198C2.93568 0.275198 1.63351 1.5872 1.63338 3.1923ZM14.2463 3.1923C14.2463 1.42456 15.6733 0 17.4441 0C19.217 0 20.6419 1.43584 20.6419 3.1923V3.19721C20.6295 4.92057 19.2703 6.32208 17.5568 6.38406C17.5176 6.38547 17.4784 6.38411 17.4395 6.37999C17.4006 6.38411 17.3614 6.38547 17.3223 6.38406C15.6098 6.32212 14.2463 4.92131 14.2463 3.1923ZM17.4441 0.275198C15.8256 0.275198 14.522 1.57655 14.522 3.1923C14.522 4.77305 15.7679 6.05246 17.3323 6.10904C17.3623 6.11012 17.3923 6.10876 17.4221 6.10497C17.4336 6.10349 17.4454 6.10349 17.457 6.10497C17.4867 6.10876 17.5168 6.11012 17.5468 6.10904C19.1116 6.05244 20.3547 4.77353 20.3662 3.19671V3.1923C20.3662 1.58709 19.064 0.275198 17.4441 0.275198ZM3.01174 3.18936C3.01913 4.01423 3.65183 4.67425 4.44799 4.73101C4.52227 4.72504 4.59791 4.72504 4.67219 4.73101C5.47004 4.67418 6.09924 4.01316 6.09924 3.1923C6.09924 2.33648 5.41277 1.65119 4.55549 1.65119C3.70124 1.65119 3.01332 2.34202 3.01174 3.18936ZM2.73607 3.18965C2.7375 2.19079 3.54828 1.37599 4.55549 1.37599C5.56502 1.37599 6.37491 2.1845 6.37491 3.1923C6.37491 4.16214 5.62714 4.94499 4.67997 5.00632C4.67294 5.00677 4.66588 5.00669 4.65886 5.00607C4.59359 5.00028 4.52659 5.00028 4.46131 5.00607C4.45429 5.00669 4.44723 5.00677 4.4402 5.00632C3.49452 4.94504 2.74438 4.16338 2.73607 3.19102L2.73607 3.18965ZM17.4441 1.65119C16.5868 1.65119 15.9004 2.33648 15.9004 3.1923C15.9004 4.01316 16.5296 4.67418 17.3274 4.73101C17.4017 4.72504 17.4773 4.72504 17.5516 4.73101C18.3477 4.67425 18.9804 4.01425 18.9879 3.18939C18.9863 2.34204 18.2984 1.65119 17.4441 1.65119ZM15.6247 3.1923C15.6247 2.1845 16.4346 1.37599 17.4441 1.37599C18.4513 1.37599 19.2621 2.19079 19.2635 3.18965L19.2635 3.19102C19.2552 4.16338 18.5051 4.94504 17.5594 5.00632C17.5524 5.00677 17.5453 5.00669 17.5383 5.00607C17.473 5.00028 17.406 5.00028 17.3407 5.00607C17.3337 5.00669 17.3267 5.00677 17.3196 5.00632C16.3725 4.94499 15.6247 4.16214 15.6247 3.1923ZM7.73292 10.0447C7.73292 8.27699 9.15992 6.85243 10.9307 6.85243C12.7036 6.85243 14.1285 8.28827 14.1285 10.0447V10.0496C14.1162 11.7676 12.761 13.1868 11.0374 13.2367C11.0002 13.2378 10.963 13.2363 10.9261 13.2324C10.8872 13.2365 10.848 13.2379 10.8089 13.2365C9.09641 13.1745 7.73292 11.7737 7.73292 10.0447ZM10.9307 7.12763C9.31217 7.12763 8.00859 8.42898 8.00859 10.0447C8.00859 11.6255 9.25451 12.9049 10.8188 12.9615C10.8489 12.9626 10.8789 12.9612 10.9086 12.9574C10.9202 12.9559 10.932 12.9559 10.9436 12.9574C10.972 12.961 11.0007 12.9624 11.0294 12.9616C12.6008 12.9161 13.8413 11.6225 13.8528 10.0491V10.0447C13.8528 8.43952 12.5506 7.12763 10.9307 7.12763ZM1.34149 7.75148C2.53453 6.9612 4.16489 6.72575 5.58949 6.97488C6.03938 7.05356 6.3402 7.48143 6.26139 7.93056C6.18258 8.37968 5.75397 8.67998 5.30408 8.60131C4.2114 8.41021 3.03035 8.61481 2.25684 9.12677C1.78251 9.44268 1.65402 9.77756 1.65402 10.008C1.65402 10.2386 1.78263 10.5737 2.25749 10.8897L2.25872 10.8905C3.02216 11.401 4.1856 11.6067 5.28229 11.4229C5.73273 11.3474 6.15919 11.6508 6.23481 12.1004C6.31044 12.5501 6.00658 12.9758 5.55614 13.0513C4.13549 13.2894 2.52396 13.0549 1.33933 12.2631C0.519697 11.7174 0 10.9154 0 10.008C0 9.10037 0.519982 8.29821 1.34001 7.75247L1.34149 7.75148ZM1.49405 7.98069C2.61708 7.23685 4.17253 7.00647 5.54192 7.24595C5.84185 7.29841 6.0424 7.58365 5.98985 7.88307C5.93731 8.18248 5.65158 8.38269 5.35165 8.33023C4.20348 8.12944 2.94755 8.33928 2.10423 8.89759C1.57135 9.25247 1.37835 9.66574 1.37835 10.008C1.37835 10.3505 1.5712 10.7637 2.10458 11.1187L2.10557 11.1194C2.93914 11.6767 4.17709 11.8872 5.32793 11.6943C5.62823 11.644 5.91253 11.8462 5.96295 12.146C6.01336 12.4458 5.8108 12.7296 5.5105 12.7799C4.14372 13.009 2.6069 12.7792 1.49253 12.0344C0.729855 11.5266 0.27567 10.8021 0.27567 10.008C0.27567 9.21378 0.729845 8.48933 1.49281 7.98152M1.49281 7.98152L1.49405 7.98069L1.49281 7.98152ZM16.4105 6.97488C17.8351 6.72575 19.4655 6.9612 20.6585 7.75148L20.6597 7.75228C21.4797 8.29803 22 9.10037 22 10.008C22 10.9157 21.48 11.7178 20.66 12.2636C19.4754 13.055 17.8642 13.2894 16.4439 13.0513C15.9934 12.9758 15.6896 12.5501 15.7652 12.1004C15.8408 11.6508 16.2673 11.3474 16.7177 11.4229C17.8144 11.6067 18.9776 11.4012 19.741 10.8907L19.7423 10.8898C20.2172 10.5738 20.346 10.2386 20.346 10.008C20.346 9.77755 20.2175 9.44266 19.7431 9.12674C18.9696 8.6148 17.7886 8.41022 16.6959 8.60131C16.246 8.67998 15.8174 8.37968 15.7386 7.93056C15.6598 7.48143 15.9606 7.05356 16.4105 6.97488ZM20.5061 7.98079C19.383 7.23687 17.8275 7.00646 16.4581 7.24595C16.1581 7.29841 15.9576 7.58365 16.0101 7.88307C16.0627 8.18248 16.3484 8.38269 16.6483 8.33023C17.7965 8.12944 19.0525 8.33928 19.8958 8.8976C20.4287 9.25248 20.6216 9.66574 20.6216 10.008C20.6216 10.3504 20.4289 10.7636 19.8956 11.1186M19.8956 11.1186L19.8944 11.1194C19.0609 11.6767 17.8229 11.8872 16.6721 11.6943C16.3718 11.644 16.0875 11.8462 16.037 12.146C15.9866 12.4458 16.1892 12.7296 16.4895 12.7799C17.856 13.009 19.3925 12.7793 20.5069 12.0348C21.2699 11.5269 21.7243 10.8023 21.7243 10.008C21.7243 9.21374 21.2701 8.48926 20.5071 7.98144L20.5061 7.98079M10.9307 8.50362C10.0734 8.50362 9.38695 9.18891 9.38695 10.0447C9.38695 10.8656 10.0161 11.5266 10.814 11.5834C10.8895 11.5774 10.9665 11.5775 11.042 11.5838C11.8299 11.5336 12.467 10.8722 12.4745 10.0417C12.4728 9.19442 11.7849 8.50362 10.9307 8.50362ZM9.11128 10.0447C9.11128 9.03693 9.92117 8.22842 10.9307 8.22842C11.9379 8.22842 12.7487 9.04322 12.7501 10.0421L12.7501 10.0434C12.7418 11.02 11.9881 11.8053 11.048 11.8591C11.0412 11.8595 11.0344 11.8594 11.0276 11.8587C10.9615 11.8527 10.8935 11.8526 10.8273 11.8585C10.8203 11.8591 10.8132 11.8592 10.8062 11.8587C9.85905 11.7974 9.11128 11.0146 9.11128 10.0447ZM7.88232 14.6127C8.78174 14.0179 9.92194 13.7461 11.0165 13.7461C12.1109 13.7461 13.2499 14.0178 14.1458 14.6141C14.9658 15.1598 15.4858 15.962 15.4858 16.8696C15.4858 17.7772 14.966 18.5792 14.1462 19.125C13.2468 19.7252 12.1082 20 11.0131 20C9.91792 20 8.77929 19.7251 7.87988 19.1249C7.06012 18.5792 6.54033 17.7771 6.54033 16.8696C6.54033 15.962 7.06031 15.1598 7.88033 14.6141L7.88232 14.6127ZM8.03457 14.8422L8.03325 14.843C7.27021 15.3509 6.816 16.0753 6.816 16.8696C6.816 17.6638 7.2701 18.3882 8.03296 18.896C8.87756 19.4597 9.95985 19.7248 11.0131 19.7248C12.0663 19.7248 13.1485 19.4598 13.9931 18.8961C14.7559 18.3883 15.2102 17.6638 15.2102 16.8696C15.2102 16.0753 14.7559 15.3509 13.9929 14.843C13.1522 14.2835 12.0697 14.0213 11.0165 14.0213C9.9633 14.0213 8.87917 14.2836 8.03457 14.8422ZM11.0165 15.3973C10.1705 15.3973 9.36759 15.6115 8.79679 15.9886C8.32277 16.3045 8.19435 16.6392 8.19435 16.8696C8.19435 17.1001 8.32368 17.4358 8.79865 17.7519C9.36943 18.1329 10.1696 18.3488 11.0131 18.3488C11.8565 18.3488 12.6566 18.133 13.2273 17.752L13.2283 17.7513C13.7032 17.4353 13.8318 17.1002 13.8318 16.8696C13.8318 16.6391 13.7032 16.304 13.2283 15.9879C12.6631 15.6118 11.8633 15.3973 11.0165 15.3973ZM8.64446 15.7592C9.26997 15.3459 10.129 15.1221 11.0165 15.1221C11.9046 15.1221 12.761 15.3462 13.3813 15.759C13.9146 16.1139 14.1075 16.5272 14.1075 16.8696C14.1075 17.2121 13.9146 17.6253 13.3813 17.9803C12.7557 18.3979 11.8986 18.624 11.0131 18.624C10.1277 18.624 9.27125 18.3984 8.64573 17.9808C8.11245 17.6259 7.91868 17.2122 7.91868 16.8696C7.91868 16.5274 8.11173 16.1141 8.64446 15.7592Z" fill="#383874"/>
</svg>
