<svg width="24" height="24" viewBox="0 0 24 24" fill="none" xmlns="http://www.w3.org/2000/svg">
<path d="M21.4681 9.8055C21.4082 9.63343 21.2992 9.48229 21.1544 9.37041C21.0096 9.25853 20.8352 9.19072 20.6522 9.1752L15.2541 8.39438L12.8349 3.53069C12.7572 3.37163 12.6359 3.23749 12.4849 3.14364C12.3339 3.04978 12.1593 3 11.981 3C11.8028 3 11.6282 3.04978 11.4772 3.14364C11.3262 3.23749 11.2049 3.37163 11.1272 3.53069L8.708 8.38497L3.30985 9.1752C3.13426 9.19995 2.96919 9.273 2.83336 9.38608C2.69753 9.49915 2.59638 9.64772 2.54139 9.81491C2.49106 9.9783 2.48654 10.1522 2.52833 10.3179C2.57011 10.4837 2.65662 10.635 2.77857 10.7557L6.69674 14.5187L5.74803 19.8621C5.70972 20.0394 5.72389 20.2239 5.78881 20.3933C5.85373 20.5628 5.96665 20.7101 6.11397 20.8174C6.2613 20.9247 6.43676 20.9876 6.61925 20.9983C6.80175 21.0091 6.98349 20.9674 7.14263 20.8782L11.981 18.3664L16.8195 20.8782C16.9526 20.9526 17.103 20.9915 17.2559 20.991C17.4568 20.9918 17.6528 20.9292 17.8156 20.8123C17.9628 20.7078 18.0767 20.5636 18.144 20.3969C18.2112 20.2302 18.229 20.0479 18.1951 19.8716L17.2464 14.5281L21.1645 10.7651C21.3015 10.65 21.4028 10.4987 21.4565 10.3289C21.5102 10.159 21.5143 9.97754 21.4681 9.8055ZM15.6336 13.5685C15.5238 13.6743 15.4414 13.8048 15.3935 13.9489C15.3456 14.0931 15.3336 14.2466 15.3584 14.3964L16.0415 18.3475L12.4744 16.466C12.3357 16.398 12.1832 16.3626 12.0285 16.3626C11.8738 16.3626 11.7212 16.398 11.5826 16.466L8.01544 18.3475L8.69851 14.3964C8.7234 14.2466 8.71138 14.0931 8.66348 13.9489C8.61557 13.8048 8.53319 13.6743 8.42339 13.5685L5.57726 10.7463L9.57132 10.1724C9.72501 10.1512 9.87111 10.0929 9.99682 10.0027C10.1225 9.91253 10.224 9.79312 10.2923 9.65498L11.981 6.07072L13.7646 9.66439C13.833 9.80253 13.9344 9.92194 14.0601 10.0121C14.1858 10.1024 14.3319 10.1606 14.4856 10.1818L18.4797 10.7557L15.6336 13.5685Z" fill="#383874"/>
</svg>
