<svg width="20" height="20" viewBox="0 0 20 20" fill="none" xmlns="http://www.w3.org/2000/svg">
<path fill-rule="evenodd" clip-rule="evenodd" d="M14.6524 7.3262C14.6539 7.32764 14.6554 7.32909 14.6569 7.33054C14.7207 7.39247 14.7691 7.46338 14.8022 7.53896C14.9074 7.77921 14.8574 8.06658 14.6524 8.26208L13.4673 9.39178L10.765 11.968C10.6179 12.1082 10.4127 12.1781 10.2057 12.1586C9.99877 12.139 9.81191 12.0321 9.69654 11.8671L8.68534 10.4211L6.32228 12.6738C6.05118 12.9323 5.61166 12.9323 5.34057 12.6738C5.06947 12.4154 5.06947 11.9964 5.34057 11.738L8.30237 8.91444C8.44943 8.77425 8.65467 8.70429 8.86163 8.72383C9.06859 8.74337 9.25546 8.85033 9.37082 9.01529L10.382 10.4613L12.4856 8.4559L13.6707 7.3262C13.8067 7.19648 13.9852 7.13187 14.1636 7.13238C14.2533 7.13263 14.343 7.14937 14.4272 7.18259C14.5072 7.21415 14.5823 7.26059 14.6478 7.3219C14.6493 7.32333 14.6508 7.32476 14.6524 7.3262Z" fill="#383874"/>
<path fill-rule="evenodd" clip-rule="evenodd" d="M11.6162 7.79414C11.6162 7.42866 11.927 7.13237 12.3104 7.13237H14.1615L14.1636 7.13238C14.257 7.13264 14.346 7.15047 14.4272 7.18259C14.5101 7.21534 14.5848 7.26293 14.6478 7.3219C14.6509 7.32475 14.6539 7.32763 14.6569 7.33054C14.7182 7.39013 14.7679 7.46073 14.8022 7.53896C14.8366 7.61749 14.8557 7.7037 14.8557 7.79414V9.55885C14.8557 9.92433 14.5449 10.2206 14.1615 10.2206C13.7781 10.2206 13.4673 9.92433 13.4673 9.55885V9.39178V8.4559H12.4856H12.3104C11.927 8.4559 11.6162 8.15962 11.6162 7.79414Z" fill="#383874"/>
<path fill-rule="evenodd" clip-rule="evenodd" d="M14.1607 7H12.31C11.85 7 11.477 7.35554 11.477 7.79412C11.477 8.18488 11.7731 8.50972 12.163 8.57591L10.4032 10.2535L9.48597 8.94186C9.34754 8.7439 9.1233 8.61554 8.87495 8.5921C8.6266 8.56866 8.38031 8.6526 8.20384 8.82083L5.24203 11.6444C4.91672 11.9545 4.91672 12.4573 5.24203 12.7674C5.56734 13.0775 6.09478 13.0775 6.42009 12.7674L8.6634 10.6288L9.58067 11.9405C9.7191 12.1385 9.94334 12.2668 10.1917 12.2903C10.44 12.3137 10.6863 12.2298 10.8628 12.0615L13.3411 9.69896C13.4105 10.0707 13.7512 10.3529 14.1611 10.3529C14.6212 10.3529 14.9942 9.9974 14.9942 9.55882V7.79412C14.9942 7.78041 14.9938 7.76679 14.9931 7.75325C14.9881 7.66045 14.9665 7.57186 14.9309 7.49014C14.889 7.39383 14.8278 7.30708 14.7519 7.23428L14.7502 7.23259L14.7447 7.22743C14.6691 7.15667 14.5794 7.09955 14.48 7.06026L14.1607 7ZM14.6524 8.26208C14.8574 8.06658 14.9074 7.77921 14.8022 7.53896C14.7679 7.46073 14.7182 7.39013 14.6569 7.33054C14.6554 7.32909 14.6539 7.32764 14.6524 7.3262C14.6508 7.32476 14.6493 7.32333 14.6478 7.3219C14.5848 7.26293 14.5101 7.21534 14.4272 7.18259C14.343 7.14937 14.2533 7.13263 14.1636 7.13238C14.257 7.13264 14.346 7.15047 14.4272 7.18259C14.5072 7.21415 14.5823 7.26059 14.6478 7.3219C14.6509 7.32475 14.6539 7.32763 14.6569 7.33054C14.7207 7.39247 14.7691 7.46338 14.8022 7.53896C14.8366 7.61749 14.8557 7.7037 14.8557 7.79414V9.55885C14.8557 9.92433 14.5449 10.2206 14.1615 10.2206C13.7781 10.2206 13.4673 9.92433 13.4673 9.55885V9.39178L10.765 11.968C10.6179 12.1082 10.4127 12.1781 10.2057 12.1586C9.99877 12.139 9.81191 12.0321 9.69654 11.8671L8.68534 10.4211L6.32228 12.6738C6.05118 12.9323 5.61166 12.9323 5.34057 12.6738C5.06947 12.4154 5.06947 11.9964 5.34057 11.738L8.30237 8.91444C8.44943 8.77425 8.65467 8.70429 8.86163 8.72383C9.06859 8.74337 9.25546 8.85033 9.37082 9.01529L10.382 10.4613L12.4856 8.4559H12.3104C11.927 8.4559 11.6162 8.15962 11.6162 7.79414C11.6162 7.42866 11.927 7.13237 12.3104 7.13237H14.1615C13.984 7.1325 13.8061 7.1971 13.6707 7.3262L12.4856 8.4559H13.4673V9.39178L14.6524 8.26208ZM14.6569 7.33054C14.7207 7.39247 14.7691 7.46338 14.8022 7.53896C14.7679 7.46073 14.7182 7.39013 14.6569 7.33054ZM14.6524 7.3262C14.6539 7.32764 14.6554 7.32909 14.6569 7.33054C14.6539 7.32763 14.6509 7.32475 14.6478 7.3219C14.6493 7.32333 14.6508 7.32476 14.6524 7.3262ZM14.4272 7.18259C14.5072 7.21415 14.5823 7.26059 14.6478 7.3219C14.5848 7.26293 14.5101 7.21534 14.4272 7.18259ZM14.4272 7.18259C14.343 7.14937 14.2533 7.13263 14.1636 7.13238C14.257 7.13264 14.346 7.15047 14.4272 7.18259ZM14.5574 7.42324C14.6069 7.47128 14.6469 7.52829 14.6743 7.59147C14.7576 7.78336 14.7175 8.01248 14.5538 8.16847L13.6058 9.07223V8.45588C13.6058 8.38278 13.5436 8.32353 13.467 8.32353H12.8204L13.7685 7.41977C13.8767 7.31654 14.0186 7.26485 14.1605 7.26471L14.5574 7.42324L14.5538 7.41977L14.1663 7.26473C14.3176 7.26603 14.4545 7.32503 14.5538 7.41977L14.5574 7.42324Z" fill="#383874"/>
<path fill-rule="evenodd" clip-rule="evenodd" d="M5.99766 2H13.9945C16.2028 2 17.993 3.79086 17.993 6V11C17.993 11.5523 18.4405 12 18.9926 12C19.5447 12 19.9922 11.5523 19.9922 11V6C19.9922 2.68629 17.307 0 13.9945 0H5.99766C2.68524 0 0 2.68629 0 6V14C0 17.3137 2.68524 20 5.99766 20H9.9961C10.5482 20 10.9957 19.5523 10.9957 19C10.9957 18.4477 10.5482 18 9.9961 18H5.99766C3.78938 18 1.99922 16.2091 1.99922 14V6C1.99922 3.79086 3.78938 2 5.99766 2Z" fill="#383874"/>
<path fill-rule="evenodd" clip-rule="evenodd" d="M15.7086 13.7866L15.4437 14.3261C15.3165 14.5805 15.1151 14.7892 14.9164 14.9383C14.7187 15.0866 14.4602 15.2236 14.1766 15.2709L14.1707 15.2719L13.8166 15.3278C13.514 15.3787 13.4274 15.4697 13.4085 15.4954C13.4088 15.5272 13.425 15.6566 13.6489 15.8838L13.9764 16.2114L13.9869 16.2221C14.1951 16.4395 14.3266 16.7166 14.3983 16.9692C14.4698 17.2212 14.5036 17.5264 14.4393 17.8205L14.4365 17.8331L14.3899 18.0285C14.3292 18.2915 14.3309 18.4643 14.3483 18.5604C14.3502 18.5704 14.352 18.5791 14.3539 18.5867C14.3602 18.5862 14.3672 18.5854 14.3751 18.5844C14.4686 18.5722 14.6315 18.5219 14.8623 18.3825L14.8742 18.3755L15.117 18.2354L15.1181 18.2348C15.3959 18.0737 15.7154 18.0131 15.9977 18.0131C16.2799 18.0131 16.5994 18.0738 16.8773 18.2348L16.8783 18.2354L17.1316 18.3816C17.3601 18.5187 17.5212 18.5683 17.614 18.5803C17.6224 18.5814 17.6298 18.5821 17.6364 18.5826C17.6384 18.5748 17.6405 18.5657 17.6424 18.555C17.6603 18.4596 17.6632 18.2879 17.6048 18.026L17.5559 17.8205C17.4916 17.5265 17.5256 17.2212 17.5971 16.9692C17.6687 16.7166 17.8002 16.4395 18.0084 16.2221L18.0189 16.2114L18.3464 15.8838C18.5704 15.6566 18.5866 15.5272 18.5868 15.4954C18.5679 15.4697 18.4813 15.3787 18.1788 15.3278L17.8246 15.2719C17.8166 15.2706 17.8086 15.2692 17.8006 15.2676C17.5277 15.2148 17.276 15.0849 17.0762 14.9354C16.877 14.7864 16.6784 14.5797 16.5517 14.3261L16.5494 14.3217L16.2872 13.7876L16.2867 13.7866C16.1916 13.5948 16.1014 13.4924 16.0424 13.4442C16.0216 13.4273 16.0068 13.4184 15.9977 13.4139C15.9885 13.4184 15.9737 13.4273 15.953 13.4442C15.8939 13.4924 15.8037 13.5948 15.7086 13.7866ZM15.9977 12C16.7273 12 17.2481 12.5496 17.5511 13.1613L17.5521 13.1634L17.8134 13.6956L17.8148 13.6981C17.816 13.7001 17.8178 13.7028 17.8202 13.7064C17.8252 13.7136 17.8324 13.723 17.8422 13.734C17.8622 13.7566 17.889 13.7815 17.9209 13.8054C17.9853 13.8536 18.0398 13.875 18.0629 13.881L18.4079 13.9355C19.071 14.0461 19.7168 14.3892 19.9324 15.0664C20.1472 15.7412 19.8225 16.3967 19.3484 16.8769L19.3454 16.8799L19.0253 17.2001C19.0238 17.2018 19.0213 17.205 19.018 17.2097C19.0124 17.2177 19.0053 17.229 18.9975 17.2437C18.9815 17.2738 18.966 17.3118 18.9539 17.3543C18.9418 17.3969 18.9352 17.4369 18.9331 17.47C18.9313 17.4976 18.9331 17.5133 18.9337 17.5177L18.9801 17.7126C19.1391 18.4208 19.1178 19.2695 18.4793 19.737C17.8389 20.2058 17.0284 19.9638 16.4113 19.5948L16.1718 19.4566L16.1701 19.4556C16.1567 19.4478 16.0958 19.424 15.9977 19.424C15.8995 19.424 15.8386 19.4478 15.8252 19.4556L15.8235 19.4566L15.5847 19.5944C14.9639 19.9675 14.1491 20.2119 13.5074 19.7394C12.8679 19.2684 12.8524 18.4155 13.0164 17.7079L13.0173 17.7039L13.0616 17.5177C13.0623 17.5133 13.064 17.4976 13.0622 17.47C13.0601 17.4369 13.0535 17.3969 13.0414 17.3543C13.0294 17.3118 13.0138 17.2738 12.9979 17.2437C12.99 17.229 12.983 17.2177 12.9773 17.2097C12.974 17.205 12.9715 17.2018 12.9701 17.2001L12.6469 16.8769C12.1728 16.3967 11.8481 15.7412 12.063 15.0664C12.2786 14.3892 12.9244 14.0461 13.5875 13.9356L13.5934 13.9346L13.9436 13.8793C13.9455 13.8787 13.9575 13.8755 13.9787 13.8655C14.0054 13.853 14.0372 13.8342 14.0701 13.8096C14.1029 13.785 14.1309 13.7588 14.1521 13.7349C14.1625 13.7232 14.1701 13.7134 14.1753 13.7059C14.1793 13.7001 14.182 13.6954 14.182 13.6954L14.4443 13.1613C14.7472 12.5496 15.268 12 15.9977 12Z" fill="#383874"/>
</svg>
