<svg width="20" height="20" viewBox="0 0 20 20" fill="none" xmlns="http://www.w3.org/2000/svg">
<path fill-rule="evenodd" clip-rule="evenodd" d="M11.9691 0.987021L18.3873 6.2212C18.849 6.59742 19.1949 7.1484 19.4066 7.71016C19.6185 8.27211 19.7232 8.91667 19.6275 9.50965L19.6271 9.51216L18.4313 16.7551C18.1607 18.3645 16.6495 19.6607 15.0344 19.6607H4.96775C3.34432 19.6607 1.84119 18.3741 1.57069 16.7544L0.375763 9.51633L0.375376 9.51406C0.27397 8.91927 0.37655 8.27312 0.588763 7.71016C0.801113 7.14685 1.15013 6.59547 1.61706 6.21941L7.84466 1.1717C9.0449 0.197896 10.7621 0.00587345 11.9691 0.987021ZM11.3135 2.24483C10.5971 1.66207 9.39308 1.66406 8.68809 2.23621L2.45709 7.28668C2.22351 7.47459 1.99767 7.80061 1.84842 8.19655C1.69913 8.59258 1.6534 8.98706 1.70414 9.28312L1.70485 9.28729L2.90005 16.527C3.06122 17.4904 4.00278 18.2962 4.96775 18.2962H15.0344C15.9896 18.2962 16.941 17.4816 17.1022 16.5262L18.2971 9.28855C18.3449 8.99021 18.2967 8.59375 18.147 8.19655C17.9972 7.79908 17.7727 7.47253 17.5425 7.28465L11.3135 2.24483Z" fill="#383874"/>
<path fill-rule="evenodd" clip-rule="evenodd" d="M7.69621 0.984294C8.96218 -0.0428422 10.8046 -0.267731 12.1178 0.799755L18.5362 6.03411C19.0385 6.44353 19.4058 7.03401 19.6284 7.62456C19.8511 8.21537 19.9653 8.90635 19.8613 9.55122L18.6658 16.7927C18.3758 18.5172 16.7656 19.901 15.0344 19.901H4.96776C3.22843 19.901 1.62645 18.5297 1.33666 16.7944L0.141896 9.55731L0.141666 9.55594L0.14149 9.55493C0.0311089 8.9075 0.1437 8.21695 0.367012 7.62456C0.590441 7.03185 0.961089 6.44085 1.46904 6.03166L7.69621 0.984294ZM11.8202 1.17414C10.7195 0.279546 9.12756 0.438746 7.99313 1.35915L1.76545 6.40693C1.33965 6.74986 1.01177 7.26198 0.810538 7.79581C0.609437 8.32929 0.516866 8.93101 0.609267 9.47313L0.609888 9.47676L1.80473 16.7143C2.0561 18.2185 3.46034 19.4205 4.96776 19.4205H15.0344C16.5334 19.4205 17.946 18.2092 18.1974 16.7148L19.3929 9.47314L19.3933 9.47097C19.4805 8.92986 19.3858 8.32889 19.1849 7.79582C18.984 7.26285 18.6594 6.75135 18.2384 6.40833L11.8202 1.17414ZM9.9961 2.04767C9.56093 2.04692 9.13924 2.17802 8.83659 2.42364L2.60547 7.47421C2.41302 7.62903 2.20828 7.91588 2.07019 8.2822C1.93206 8.64863 1.89629 8.99866 1.93801 9.24207L1.93898 9.24772L3.13408 16.4869C3.27608 17.3348 4.11882 18.056 4.96776 18.056H15.0344C15.4466 18.056 15.8705 17.8791 16.2128 17.5861C16.5549 17.2932 16.7985 16.8988 16.8682 16.4861L18.0628 9.25011C18.1022 9.00346 18.064 8.6502 17.9252 8.2822C17.7864 7.91388 17.5834 7.62682 17.3939 7.47197L11.1653 2.43249C10.8565 2.18129 10.4311 2.04843 9.9961 2.04767ZM11.4619 2.05735C11.0543 1.72597 10.5191 1.56814 9.99691 1.56723C9.4748 1.56633 8.94205 1.72227 8.53973 2.04873L2.30941 7.09865C2.03481 7.31968 1.78703 7.68554 1.62666 8.11094C1.46622 8.53656 1.41052 8.9755 1.47029 9.3242L1.47076 9.3269L1.47101 9.32838L2.66595 16.5666C2.84643 17.6454 3.88684 18.5365 4.96776 18.5365H15.0344C15.5774 18.5365 16.1068 18.3061 16.5193 17.9529C16.9319 17.5997 17.2446 17.1092 17.3362 16.5666L18.5312 9.32816C18.5873 8.97815 18.5294 8.5371 18.3688 8.11094C18.208 7.68458 17.9623 7.31868 17.6916 7.09769L11.4619 2.05735Z" fill="#383874"/>
<path d="M9.01237 11.9051C9.01237 11.3582 9.45566 10.915 10.0025 10.915C10.5493 10.915 10.9926 11.3582 10.9926 11.9051V14.8753C10.9926 15.4222 10.5493 15.8654 10.0025 15.8654C9.45566 15.8654 9.01237 15.4222 9.01237 14.8753V11.9051Z" fill="#383874"/>
<path fill-rule="evenodd" clip-rule="evenodd" d="M7.63411 0.907409C8.92744 -0.141923 10.8226 -0.380872 12.1805 0.722929L18.599 5.95737C19.1183 6.38057 19.4943 6.98736 19.7213 7.58964C19.9485 8.19234 20.0667 8.90107 19.9593 9.56699L18.7638 16.8088C18.4659 18.5799 16.8154 20 15.0347 20H4.96804C3.17944 20 1.5369 18.5929 1.23928 16.8107L0.0445331 9.57371L0.0443039 9.57235C-0.0697322 8.90347 0.0467956 8.19407 0.274645 7.58964C0.502583 6.98497 0.882103 6.37761 1.40707 5.95466C1.40712 5.95463 1.40703 5.9547 1.40707 5.95466L7.63411 0.907409ZM12.0556 0.876585C10.7871 -0.154586 8.99749 0.0562418 7.75887 1.06118L1.53166 6.10858C1.0408 6.504 0.678838 7.07879 0.459936 7.65949C0.241184 8.23979 0.132665 8.91216 0.239337 9.53811C0.239348 9.53817 0.239327 9.53804 0.239337 9.53811L0.239588 9.53954L0.239815 9.5409L1.4346 16.7781C1.71657 18.4666 3.27798 19.802 4.96804 19.802H15.0347C16.7164 19.802 18.2861 18.4543 18.5684 16.7765C18.5684 16.7764 18.5684 16.7766 18.5684 16.7765L19.7638 9.53546C19.7638 9.5354 19.7638 9.53552 19.7638 9.53546C19.8644 8.91169 19.7543 8.23834 19.5361 7.65949C19.3179 7.08068 18.9593 6.50649 18.4739 6.11087L12.0556 0.876585ZM7.78256 1.09482C9.01028 0.0987145 10.7803 -0.107182 12.0318 0.910196L18.4501 6.14445C18.9287 6.53446 19.2834 7.10174 19.4996 7.67524C19.7158 8.24899 19.8246 8.91131 19.7255 9.52542L19.7251 9.52808L18.5293 16.7713C18.2508 18.4273 16.6991 19.7598 15.0347 19.7598H4.96802C3.29532 19.7598 1.75163 18.4373 1.47331 16.7707L0.278448 9.53302L0.27806 9.53075C0.173 8.91452 0.279643 8.25024 0.496396 7.67524C0.713258 7.09996 1.07115 6.53222 1.55511 6.1424C1.55516 6.14237 1.55507 6.14243 1.55511 6.1424L7.78256 1.09482ZM11.9069 1.06385C10.7445 0.118932 9.08008 0.297081 7.90732 1.24859L1.67969 6.29633C1.22984 6.65862 0.889507 7.19379 0.681687 7.74509C0.474014 8.296 0.375504 8.92406 0.473255 9.49742L0.473636 9.49965L1.66862 16.738C1.9313 18.311 3.39387 19.5617 4.96802 19.5617H15.0347C16.6003 19.5617 18.071 18.3016 18.3339 16.739C18.3339 16.7389 18.3339 16.739 18.3339 16.739L19.5296 9.49624L19.53 9.49389C19.6223 8.92203 19.5217 8.29522 19.3143 7.74509C19.1069 7.19506 18.7698 6.66038 18.325 6.29795L11.9069 1.06385ZM11.7581 1.25097C10.7018 0.392503 9.1626 0.538046 8.05579 1.43604L1.82807 6.48385C1.41934 6.81303 1.10015 7.30896 0.903462 7.83074C0.706903 8.35217 0.618398 8.9358 0.707147 9.4565L0.70776 9.46008L1.90267 16.698C1.90268 16.6981 1.90266 16.698 1.90267 16.698C2.14628 18.1552 3.50995 19.3215 4.96804 19.3215H15.0347C16.4842 19.3215 17.8564 18.1463 18.1 16.6987C18.1 16.6986 18.0999 16.6988 18.1 16.6987L19.2955 9.45724L19.2958 9.4552C19.3797 8.93522 19.289 8.352 19.0925 7.83074C18.896 7.30952 18.5802 6.81432 18.1762 6.48508L11.7581 1.25097ZM7.93103 1.28227C9.09308 0.339449 10.7378 0.166592 11.883 1.0973L18.3013 6.33158C18.7391 6.68839 19.0725 7.21618 19.2778 7.76089C19.4832 8.30578 19.582 8.92451 19.4913 9.48674L19.4909 9.48905L18.2953 16.731C18.0361 18.272 16.583 19.5196 15.0347 19.5196H4.96804C3.41134 19.5196 1.96655 18.2816 1.70736 16.7307L0.512573 9.49345L0.511952 9.48982C0.415899 8.92627 0.512527 8.30642 0.718171 7.76089C0.923929 7.21506 1.26069 6.6866 1.7035 6.32993C1.70354 6.32989 1.70345 6.32996 1.7035 6.32993L7.93103 1.28227ZM8.47762 1.97185C8.90075 1.62851 9.45685 1.46729 9.99736 1.46822C10.538 1.46916 11.0963 1.63235 11.5245 1.98044C11.5245 1.98047 11.5244 1.98041 11.5245 1.98044L17.7541 7.02072C18.0417 7.25546 18.2965 7.63788 18.4617 8.07602C18.6268 8.51407 18.6887 8.97283 18.6293 9.34383L17.4342 16.5828C17.3381 17.1518 17.0113 17.6624 16.584 18.0281C16.1568 18.3938 15.6054 18.6355 15.0347 18.6355H4.96804C3.8378 18.6355 2.75688 17.7085 2.56858 16.5829L1.37365 9.3448L1.37348 9.3438L1.37301 9.3411C1.30957 8.97096 1.3693 8.51373 1.5343 8.07602C1.69919 7.6386 1.95587 7.2564 2.24748 7.02163C2.24752 7.02159 2.24744 7.02166 2.24748 7.02163L8.47762 1.97185ZM9.99702 1.66624C9.49331 1.66537 8.98391 1.81604 8.60239 2.12562L2.37203 7.17557C2.1145 7.38286 1.8754 7.73254 1.71959 8.14587C1.56372 8.55935 1.51207 8.98014 1.56814 9.30737C1.56814 9.30741 1.56813 9.30734 1.56814 9.30737L1.56859 9.30999L1.56892 9.31196L2.76388 16.5502C2.93654 17.5823 3.93644 18.4375 4.96804 18.4375H15.0347C15.55 18.4375 16.0572 18.2184 16.4552 17.8777C16.8531 17.5371 17.1517 17.0664 17.2388 16.5503C17.2388 16.5503 17.2388 16.5504 17.2388 16.5503L18.4337 9.3125C18.4338 9.31236 18.4337 9.31263 18.4337 9.3125C18.4864 8.98354 18.4325 8.55997 18.2764 8.14587C18.1201 7.73136 17.8832 7.38178 17.6294 7.17453C17.6294 7.17448 17.6295 7.17458 17.6294 7.17453L11.3999 2.13433C11.0129 1.81971 10.5008 1.66711 9.99702 1.66624ZM9.99661 1.90644C9.53636 1.90565 9.08246 2.0439 8.75076 2.31309L2.51971 7.3636C2.30322 7.53776 2.08604 7.84761 1.94134 8.23147C1.79661 8.6154 1.75493 8.99178 1.802 9.26639L1.80272 9.27056L2.99798 16.5106C3.15132 17.4272 4.05234 18.1972 4.96802 18.1972H15.0347C15.4846 18.1972 15.9391 18.0049 16.3019 17.6943C16.6646 17.3838 16.9287 16.9611 17.0049 16.5098C17.0049 16.5098 17.0048 16.5099 17.0049 16.5098L18.1996 9.27288C18.1996 9.27275 18.1996 9.27301 18.1996 9.27288C18.244 8.99561 18.1998 8.61665 18.0546 8.23147C17.9093 7.84585 17.6936 7.53558 17.4803 7.36143C17.4803 7.36141 17.4804 7.36146 17.4803 7.36143L11.2515 2.3218C10.9139 2.04719 10.4568 1.90724 9.99661 1.90644ZM11.3762 2.16802C10.9974 1.85988 10.4941 1.70928 9.99695 1.70842C9.49986 1.70756 8.99927 1.85638 8.62598 2.15934L2.39531 7.20954C2.39535 7.20951 2.39527 7.20957 2.39531 7.20954C2.14468 7.41121 1.90983 7.75368 1.75605 8.16162C1.6022 8.56976 1.55241 8.98236 1.60683 9.29984L1.60744 9.30341L2.80264 16.5431C2.97164 17.5533 3.95376 18.3953 4.96802 18.3953H15.0347C15.5399 18.3953 16.0387 18.1803 16.4307 17.8447C16.8228 17.5091 17.115 17.0468 17.2001 16.5427L18.3951 9.30468C18.4463 8.9853 18.3941 8.57067 18.2399 8.16162C18.0856 7.75238 17.8524 7.40958 17.6054 7.20795L11.3762 2.16802ZM9.99621 2.14669C9.57948 2.14596 9.18113 2.27176 8.89926 2.50052L2.6681 7.55112C2.49269 7.69223 2.29662 7.96295 2.16311 8.31712C2.02955 8.67144 1.99783 9.00336 2.03587 9.22535L2.03684 9.23099L3.23201 16.4705C3.23202 16.4706 3.232 16.4705 3.23201 16.4705C3.29861 16.868 3.53069 17.2405 3.85047 17.5142C4.17034 17.7879 4.57113 17.957 4.96804 17.957H15.0347C15.4192 17.957 15.8211 17.7913 16.1487 17.5109C16.476 17.2307 16.7055 16.8561 16.7708 16.4699C16.7708 16.4698 16.7708 16.47 16.7708 16.4699L17.9653 9.23449C17.9654 9.23433 17.9653 9.23466 17.9653 9.23449C18.0012 9.00882 17.967 8.67298 17.8329 8.31712C17.6985 7.96074 17.5044 7.68997 17.3318 7.5488C17.3317 7.54875 17.3318 7.54886 17.3318 7.5488L11.1033 2.50946C10.815 2.275 10.4126 2.14741 9.99621 2.14669ZM8.77447 2.34677C9.09791 2.08428 9.54293 1.94788 9.99655 1.94867C10.4501 1.94945 10.8987 2.08775 11.228 2.35568L17.4565 7.395C17.6628 7.56358 17.8749 7.86717 18.0182 8.24728C18.1614 8.62716 18.2036 8.9981 18.1609 9.26573L16.9662 16.5022C16.892 16.9413 16.6342 17.3559 16.2774 17.6613C15.9206 17.9668 15.4745 18.1551 15.0347 18.1551H4.96804C4.51601 18.1551 4.07096 17.9635 3.72172 17.6647C3.37244 17.3657 3.11214 16.9536 3.03671 16.5032L1.84167 9.26445L1.8407 9.2588C1.79531 8.99397 1.83512 8.62583 1.97782 8.24728C2.12045 7.86891 2.33409 7.56574 2.54354 7.39719C2.54359 7.39715 2.54349 7.39723 2.54354 7.39719L8.77447 2.34677ZM8.91364 11.9051C8.91364 11.3036 9.40125 10.816 10.0027 10.816C10.6042 10.816 11.0919 11.3036 11.0919 11.9051V14.8753C11.0919 15.4768 10.6042 15.9644 10.0027 15.9644C9.40125 15.9644 8.91364 15.4768 8.91364 14.8753V11.9051ZM10.0027 11.014C9.51062 11.014 9.11166 11.4129 9.11166 11.9051V14.8753C9.11166 15.3675 9.51062 15.7664 10.0027 15.7664C10.4949 15.7664 10.8938 15.3675 10.8938 14.8753V11.9051C10.8938 11.4129 10.4949 11.014 10.0027 11.014Z" fill="#383874"/>
</svg>
