<svg width="21" height="22" viewBox="0 0 21 22" fill="none" xmlns="http://www.w3.org/2000/svg">
<path d="M19.2223 11.66C19.0592 11.4775 18.9692 11.2429 18.9692 11C18.9692 10.7571 19.0592 10.5225 19.2223 10.34L20.5252 8.90002C20.6688 8.74269 20.7579 8.54472 20.7799 8.33452C20.8018 8.12433 20.7554 7.9127 20.6474 7.73002L18.6116 4.27002C18.5046 4.08754 18.3418 3.94289 18.1462 3.8567C17.9506 3.77051 17.7324 3.74718 17.5225 3.79002L15.6089 4.17002C15.3654 4.21945 15.1119 4.17961 14.8963 4.05802C14.6806 3.93643 14.5177 3.7415 14.4384 3.51002L13.8175 1.68002C13.7492 1.4814 13.6191 1.30888 13.4455 1.18686C13.272 1.06484 13.0639 0.999476 12.8505 1.00002H8.77899C8.55703 0.988635 8.33737 1.04894 8.15358 1.17173C7.96978 1.29452 7.83194 1.47304 7.76112 1.68002L7.19111 3.51002C7.11172 3.7415 6.94883 3.93643 6.73319 4.05802C6.51754 4.17961 6.26405 4.21945 6.02056 4.17002L4.05607 3.79002C3.85713 3.7624 3.65432 3.79324 3.47319 3.87866C3.29205 3.96407 3.1407 4.10025 3.0382 4.27002L1.00246 7.73002C0.891675 7.91067 0.841862 8.1211 0.860144 8.33124C0.878425 8.54138 0.963865 8.74046 1.10425 8.90002L2.39694 10.34C2.56013 10.5225 2.65012 10.7571 2.65012 11C2.65012 11.2429 2.56013 11.4775 2.39694 11.66L1.10425 13.1C0.963865 13.2596 0.878425 13.4587 0.860144 13.6688C0.841862 13.8789 0.891675 14.0894 1.00246 14.27L3.0382 17.73C3.14518 17.9125 3.30806 18.0571 3.50362 18.1433C3.69919 18.2295 3.91746 18.2529 4.12732 18.21L6.04092 17.83C6.28441 17.7806 6.5379 17.8204 6.75354 17.942C6.96919 18.0636 7.13208 18.2585 7.21147 18.49L7.83237 20.32C7.90319 20.527 8.04103 20.7055 8.22483 20.8283C8.40863 20.9511 8.62828 21.0114 8.85024 21H12.9217C13.1351 21.0006 13.3433 20.9352 13.5168 20.8132C13.6903 20.6912 13.8204 20.5186 13.8887 20.32L14.5096 18.49C14.589 18.2585 14.7519 18.0636 14.9675 17.942C15.1832 17.8204 15.4367 17.7806 15.6802 17.83L17.5938 18.21C17.8036 18.2529 18.0219 18.2295 18.2175 18.1433C18.413 18.0571 18.5759 17.9125 18.6829 17.73L20.7186 14.27C20.8267 14.0873 20.8731 13.8757 20.8511 13.6655C20.8292 13.4553 20.74 13.2573 20.5965 13.1L19.2223 11.66ZM17.7057 13L18.52 13.9L17.2171 16.12L16.0161 15.88C15.283 15.7328 14.5204 15.8551 13.873 16.2238C13.2257 16.5925 12.7387 17.1819 12.5044 17.88L12.1176 19H9.51186L9.14542 17.86C8.91117 17.1619 8.42414 16.5725 7.7768 16.2038C7.12946 15.8351 6.36686 15.7128 5.63377 15.86L4.43268 16.1L3.10945 13.89L3.92375 12.99C4.42449 12.44 4.70133 11.7279 4.70133 10.99C4.70133 10.2521 4.42449 9.54004 3.92375 8.99002L3.10945 8.09002L4.41233 5.89002L5.61341 6.13002C6.34651 6.27724 7.1091 6.1549 7.75644 5.78622C8.40379 5.41753 8.89081 4.82818 9.12507 4.13002L9.51186 3.00002H12.1176L12.5044 4.14002C12.7387 4.83818 13.2257 5.42753 13.873 5.79622C14.5204 6.1649 15.283 6.28724 16.0161 6.14002L17.2171 5.90002L18.52 8.12002L17.7057 9.02002C17.2106 9.56878 16.9372 10.2767 16.9372 11.01C16.9372 11.7433 17.2106 12.4513 17.7057 13ZM10.8147 7.00002C10.0095 7.00002 9.22229 7.23461 8.55274 7.67414C7.88319 8.11366 7.36133 8.73838 7.05317 9.46928C6.74501 10.2002 6.66438 11.0045 6.82148 11.7804C6.97858 12.5563 7.36635 13.269 7.93576 13.8284C8.50517 14.3879 9.23064 14.7688 10.0204 14.9232C10.8102 15.0775 11.6289 14.9983 12.3728 14.6955C13.1168 14.3928 13.7527 13.8801 14.2 13.2223C14.6474 12.5645 14.8862 11.7911 14.8862 11C14.8862 9.93915 14.4573 8.92174 13.6937 8.17159C12.9302 7.42144 11.8946 7.00002 10.8147 7.00002ZM10.8147 13C10.4121 13 10.0185 12.8827 9.68373 12.663C9.34896 12.4432 9.08803 12.1308 8.93395 11.7654C8.77987 11.3999 8.73956 10.9978 8.81811 10.6098C8.89666 10.2219 9.09054 9.86551 9.37525 9.5858C9.65995 9.3061 10.0227 9.11562 10.4176 9.03845C10.8125 8.96128 11.2218 9.00088 11.5938 9.15226C11.9658 9.30363 12.2837 9.55998 12.5074 9.88888C12.7311 10.2178 12.8505 10.6045 12.8505 11C12.8505 11.5304 12.636 12.0392 12.2542 12.4142C11.8724 12.7893 11.3546 13 10.8147 13Z" fill="#383874"/>
</svg>
