<svg width="24" height="24" viewBox="0 0 24 24" fill="none" xmlns="http://www.w3.org/2000/svg">
<path d="M8 1C8 0.447715 8.44772 0 9 0H15C15.5523 0 16 0.447715 16 1C16 1.55228 15.5523 2 15 2H9C8.44772 2 8 1.55228 8 1Z" fill="#383874"/>
<path d="M12 7C12.5523 7 13 7.44772 13 8V11C13 11.5523 12.5523 12 12 12C11.4477 12 11 11.5523 11 11V8C11 7.44772 11.4477 7 12 7Z" fill="#383874"/>
<path fill-rule="evenodd" clip-rule="evenodd" d="M12 20C16.1421 20 19.5 16.6421 19.5 12.5C19.5 8.35786 16.1421 5 12 5C7.85786 5 4.5 8.35786 4.5 12.5C4.5 16.6421 7.85786 20 12 20ZM12 22C17.2467 22 21.5 17.7467 21.5 12.5C21.5 7.25329 17.2467 3 12 3C6.75329 3 2.5 7.25329 2.5 12.5C2.5 17.7467 6.75329 22 12 22Z" fill="#383874"/>
</svg>
