<svg width="24" height="24" viewBox="0 0 24 24" fill="none" xmlns="http://www.w3.org/2000/svg">
<path d="M20.0001 7.01673L14.0001 1.76302C13.4501 1.27165 12.738 1 12.0001 1C11.2622 1 10.5501 1.27165 10.0001 1.76302L4.00009 7.01673C3.68246 7.30047 3.42899 7.64853 3.25657 8.03776C3.08414 8.42698 2.99671 8.84842 3.00009 9.27403V18.0036C3.00009 18.7983 3.31617 19.5604 3.87877 20.1224C4.44138 20.6843 5.20445 21 6.00009 21H18.0001C18.7957 21 19.5588 20.6843 20.1214 20.1224C20.684 19.5604 21.0001 18.7983 21.0001 18.0036V9.26404C21.0021 8.84011 20.9139 8.42059 20.7416 8.0332C20.5692 7.6458 20.3165 7.29935 20.0001 7.01673ZM14.0001 19.0024H10.0001V14.0084C10.0001 13.7435 10.1055 13.4894 10.293 13.3021C10.4805 13.1148 10.7349 13.0096 11.0001 13.0096H13.0001C13.2653 13.0096 13.5197 13.1148 13.7072 13.3021C13.8947 13.4894 14.0001 13.7435 14.0001 14.0084V19.0024ZM19.0001 18.0036C19.0001 18.2685 18.8947 18.5225 18.7072 18.7098C18.5197 18.8972 18.2653 19.0024 18.0001 19.0024H16.0001V14.0084C16.0001 13.2137 15.684 12.4515 15.1214 11.8896C14.5588 11.3276 13.7957 11.012 13.0001 11.012H11.0001C10.2044 11.012 9.44138 11.3276 8.87877 11.8896C8.31616 12.4515 8.00009 13.2137 8.00009 14.0084V19.0024H6.00009C5.73488 19.0024 5.48052 18.8972 5.29299 18.7098C5.10545 18.5225 5.00009 18.2685 5.00009 18.0036V9.26404C5.00027 9.12223 5.03069 8.98208 5.08931 8.85291C5.14794 8.72375 5.23343 8.60854 5.3401 8.51494L11.3401 3.27121C11.5226 3.11109 11.7572 3.02278 12.0001 3.02278C12.243 3.02278 12.4776 3.11109 12.6601 3.27121L18.6601 8.51494C18.7668 8.60854 18.8523 8.72375 18.9109 8.85291C18.9695 8.98208 18.9999 9.12223 19.0001 9.26404V18.0036Z" fill="#457AED"/>
</svg>
