<svg width="22" height="22" viewBox="0 0 22 22" fill="none" xmlns="http://www.w3.org/2000/svg">
<path fill-rule="evenodd" clip-rule="evenodd" d="M4.06939 8.77439C4.81311 8.48235 5.62544 8.32486 6.47672 8.32486C9.89937 8.32486 12.7579 10.9259 12.7579 14.2426C12.7579 15.1412 12.5421 15.9933 12.1582 16.7544C12.1638 16.7545 12.1694 16.7545 12.175 16.7545C12.3105 16.7545 12.4435 16.791 12.5601 16.8602L16.7764 19.3652C16.942 19.4655 17.1713 19.3376 17.1451 19.116L16.7534 15.9425C16.7192 15.666 16.8405 15.3931 17.0688 15.2332C19.0385 13.8529 20.2953 11.6723 20.2953 9.22908C20.2953 5.12176 16.7127 1.7037 12.175 1.7037C7.80578 1.7037 4.32215 4.87256 4.06939 8.77439ZM2.54721 9.22908C2.54721 4.1934 6.90408 0.196609 12.175 0.196609C17.4459 0.196609 21.8028 4.1934 21.8028 9.22908C21.8028 12.0509 20.4266 14.5502 18.3034 16.195L18.6417 18.935C18.8158 20.3796 17.2593 21.4162 15.9986 20.6562L15.9954 20.6543L11.9646 18.2596C11.542 18.2517 11.1258 18.2201 10.7164 18.1642C10.4435 18.127 10.2126 17.944 10.1142 17.6867C10.0159 17.4295 10.0657 17.1392 10.2441 16.9294C10.8796 16.1825 11.2504 15.2478 11.2504 14.2426C11.2504 11.8526 9.16438 9.83195 6.47672 9.83195C5.45594 9.83195 4.52377 10.1216 3.75269 10.624C3.53445 10.7662 3.25825 10.7856 3.02223 10.6754C2.78621 10.5652 2.62383 10.341 2.59279 10.0825C2.55794 9.79214 2.54721 9.50913 2.54721 9.22908Z" fill="#383874"/>
<path fill-rule="evenodd" clip-rule="evenodd" d="M6.47672 9.83195C5.45594 9.83195 4.52377 10.1216 3.75269 10.624L3.74714 10.6275C2.49681 11.4261 1.70318 12.7541 1.70318 14.2425C1.70318 15.6625 2.42859 16.9369 3.59017 17.7428C3.82096 17.903 3.94352 18.1781 3.90815 18.4567L3.69006 20.1749L6.092 18.7488C6.20846 18.6797 6.34141 18.6432 6.47687 18.6432C8.02633 18.6432 9.38883 17.9657 10.237 16.9379L10.2441 16.9294C10.8796 16.1825 11.2504 15.2478 11.2504 14.2426C11.2504 11.8526 9.16438 9.83195 6.47672 9.83195ZM2.93264 9.35933C3.94985 8.69738 5.16714 8.32486 6.47672 8.32486C9.89937 8.32486 12.7579 10.9259 12.7579 14.2426C12.7579 15.6267 12.2459 16.9007 11.3962 17.9013C10.2952 19.2329 8.59031 20.0875 6.6894 20.1469L4.24264 21.5996C3.24548 22.2056 2.02966 21.3657 2.16059 20.2531L2.16139 20.2463L2.35762 18.7007C1.03805 17.6287 0.195701 16.0347 0.195701 14.2425C0.195701 12.1954 1.2902 10.4097 2.93264 9.35933Z" fill="#383874"/>
<path fill-rule="evenodd" clip-rule="evenodd" d="M2.35151 9.22889C2.35151 4.07192 6.80961 0 12.1758 0C17.5419 0 22 4.07192 22 9.22889C22 12.0777 20.6293 14.6019 18.5128 16.2809L18.8375 18.9108C19.0306 20.5135 17.3024 21.6709 15.8979 20.8242L15.8958 20.823L15.8946 20.8222L11.9095 18.4547C11.6701 18.4491 11.4327 18.4361 11.1973 18.4154C10.0757 19.5555 8.49178 20.2739 6.74727 20.3413L4.34546 21.7673L4.34454 21.7678C3.2002 22.4623 1.81724 21.496 1.96623 20.23L1.96703 20.2231L1.96725 20.2214L2.14987 18.7829C0.836718 17.6778 0 16.0596 0 14.2423C0 12.3257 0.926748 10.6334 2.35599 9.52606C2.35281 9.42617 2.35151 9.32715 2.35151 9.22889ZM2.38743 10.0063C1.16633 11.0439 0.392938 12.5522 0.392938 14.2423C0.392938 15.9707 1.20487 17.5103 2.48228 18.548C2.53499 18.5909 2.56184 18.6579 2.55329 18.7252L2.35728 20.269L2.35706 20.2708L2.35648 20.2759C2.24364 21.2347 3.29155 21.948 4.14135 21.4316L4.14309 21.4305L6.58985 19.9779C6.61841 19.9609 6.65082 19.9515 6.68402 19.9504C8.23398 19.9019 9.64679 19.3092 10.6899 18.3586C10.3462 18.3114 10.0554 18.0807 9.93149 17.7567C9.90996 17.7004 9.89406 17.6428 9.88366 17.5848C9.00679 18.3588 7.80653 18.8394 6.47764 18.8394C6.37749 18.8394 6.27919 18.8664 6.19309 18.9175L3.79114 20.3436C3.72659 20.3819 3.64584 20.3801 3.58306 20.3389C3.52029 20.2977 3.48647 20.2244 3.49592 20.1499L3.71401 18.4318C3.74016 18.2258 3.64955 18.0224 3.47891 17.904C2.26901 17.0645 1.50748 15.7321 1.50748 14.2423C1.50748 12.9293 2.09656 11.739 3.05817 10.8991C3.01806 10.8866 2.97853 10.8713 2.93986 10.8532C2.64232 10.7143 2.43761 10.4316 2.39849 10.1057C2.3945 10.0724 2.39082 10.0393 2.38743 10.0063ZM3.63648 10.4654C3.4767 10.5649 3.27714 10.5771 3.10613 10.4973C2.93163 10.4158 2.81157 10.25 2.78863 10.0589C2.77481 9.94375 2.76489 9.82955 2.758 9.71586C2.84974 9.64961 2.94353 9.58582 3.03927 9.5246L3.04058 9.52375C3.38376 9.30043 3.75059 9.11102 4.13673 8.95899L4.14198 8.95702C4.73005 8.7261 5.36294 8.58176 6.02522 8.53647C6.17455 8.52626 6.32536 8.52109 6.47748 8.52109C9.80483 8.52109 12.5622 11.0469 12.5622 14.2425C12.5622 14.4927 12.5448 14.7392 12.5112 14.981C12.4285 15.5765 12.2471 16.1433 11.9835 16.6658L11.9816 16.6697C11.7817 17.0653 11.5345 17.4357 11.2472 17.774L11.2456 17.776C11.1808 17.8544 11.1138 17.931 11.0448 18.0059C10.944 17.9952 10.8437 17.9831 10.7437 17.9694C10.542 17.9419 10.3713 17.8066 10.2985 17.6164C10.227 17.4294 10.2614 17.2187 10.388 17.0642L10.3893 17.0627C10.391 17.0606 10.3928 17.0585 10.3945 17.0565C11.058 16.2764 11.4476 15.297 11.4476 14.2425C11.4476 11.7322 9.26157 9.63534 6.47748 9.63534C5.41891 9.63534 4.44942 9.93593 3.64619 10.4592L3.64241 10.4616C3.64052 10.4628 3.63836 10.4642 3.63648 10.4654ZM3.84632 10.7976C2.65167 11.5638 1.90042 12.8296 1.90042 14.2423C1.90042 15.5926 2.58971 16.8088 3.70295 17.5813C3.9939 17.7831 4.14841 18.13 4.10383 18.4813L3.93637 19.8004L5.99245 18.5797C6.13927 18.4926 6.30688 18.4466 6.47764 18.4466C7.96803 18.4466 9.27299 17.7958 10.0831 16.8164C10.0871 16.8116 10.0912 16.8067 10.0952 16.8019C10.7025 16.0882 11.0547 15.198 11.0547 14.2425C11.0547 11.9725 9.06872 10.0282 6.47748 10.0282C5.49451 10.0282 4.59966 10.3069 3.86072 10.7884C3.85595 10.7915 3.85115 10.7945 3.84632 10.7976ZM11.532 18.0461C11.6768 18.0547 11.8225 18.0603 11.9691 18.063C12.0031 18.0637 12.0365 18.0731 12.0658 18.0906L16.0978 20.486L16.1008 20.4878C17.2177 21.1611 18.6023 20.2448 18.4474 18.9585L18.1092 16.2189C18.1007 16.1502 18.1291 16.082 18.1839 16.0396C20.2637 14.4283 21.6071 11.9843 21.6071 9.22889C21.6071 4.3145 17.3514 0.392835 12.1758 0.392835C7.00007 0.392835 2.74445 4.3145 2.74445 9.22889C2.74445 9.23516 2.74446 9.24143 2.74447 9.2477C2.77177 9.22964 2.79923 9.21178 2.82683 9.19412C3.15952 8.97768 3.51283 8.79134 3.88318 8.63776C4.208 4.67968 7.75957 1.50709 12.1758 1.50709C16.8094 1.50709 20.4925 5.00093 20.4925 9.22889C20.4925 11.7423 19.1993 13.9805 17.1823 15.3938C17.0136 15.5121 16.9239 15.7138 16.9491 15.9183L17.341 19.0927C17.387 19.4819 16.977 19.7147 16.6763 19.5336L16.6754 19.533L12.4604 17.0289C12.4027 16.9946 12.3395 16.9711 12.2739 16.9594C12.0709 17.3405 11.8269 17.6983 11.5476 18.0272C11.5424 18.0335 11.5372 18.0398 11.532 18.0461ZM12.4506 16.5985C12.524 16.6206 12.5947 16.6517 12.6612 16.6912L16.8775 19.1961L16.8789 19.197C16.8926 19.2053 16.9112 19.206 16.9286 19.195C16.9367 19.1899 16.9426 19.1832 16.9462 19.1758C16.9495 19.1692 16.953 19.1579 16.9508 19.1391L16.5591 15.9664C16.5161 15.6178 16.669 15.2738 16.9568 15.0722C18.8793 13.7249 20.0996 11.6019 20.0996 9.22889C20.0996 5.2422 16.6176 1.89992 12.1758 1.89992C8.0141 1.89992 4.69391 4.83478 4.29268 8.48373C4.83602 8.29972 5.41117 8.18389 6.00782 8.14391C6.16298 8.13352 6.31959 8.12825 6.47748 8.12825C9.99545 8.12825 12.9551 10.8045 12.9551 14.2425C12.9551 14.3815 12.9501 14.5195 12.9403 14.6563C12.8911 15.3413 12.7209 15.9951 12.4506 16.5985Z" fill="#383874"/>
</svg>
