<svg width="40" height="40" viewBox="0 0 40 40" fill="none" xmlns="http://www.w3.org/2000/svg">
<path d="M18.1053 38H2.89474C2.40263 38 2 37.5974 2 37.1053V21.8947C2 21.4026 2.40263 21 2.89474 21H18.1053C18.5974 21 19 21.4026 19 21.8947V37.1053C19 37.5974 18.5974 38 18.1053 38Z" fill="#FA5053"/>
<path d="M18.1053 19H2.89474C2.40263 19 2 18.5974 2 18.1053V2.89474C2 2.40263 2.40263 2 2.89474 2H18.1053C18.5974 2 19 2.40263 19 2.89474V18.1053C19 18.5974 18.5974 19 18.1053 19Z" fill="#475364"/>
<path d="M37.1053 19H21.8947C21.4026 19 21 18.5974 21 18.1053V2.89474C21 2.40263 21.4026 2 21.8947 2H37.1053C37.5974 2 38 2.40263 38 2.89474V18.1053C38 18.5974 37.5974 19 37.1053 19Z" fill="#72BF44"/>
</svg>
