<svg width="20" height="22" viewBox="0 0 20 22" fill="none" xmlns="http://www.w3.org/2000/svg">
<path fill-rule="evenodd" clip-rule="evenodd" d="M14.0849 2.16711C14.3504 2.43697 14.3472 2.87117 14.0778 3.13694L3.08591 13.9803C2.8165 14.246 2.38286 14.2427 2.11735 13.9729C1.85185 13.703 1.85501 13.2688 2.12442 13.0031L13.1163 2.15972C13.3857 1.89395 13.8194 1.89726 14.0849 2.16711Z" fill="#383874"/>
<path fill-rule="evenodd" clip-rule="evenodd" d="M10.7302 14.1656C10.9957 14.4354 10.9925 14.8696 10.7231 15.1354L9.61931 16.2243C9.3499 16.49 8.91626 16.4867 8.65075 16.2169C8.38525 15.947 8.38841 15.5128 8.65782 15.247L9.76161 14.1582C10.031 13.8924 10.4647 13.8957 10.7302 14.1656Z" fill="#383874"/>
<path fill-rule="evenodd" clip-rule="evenodd" d="M14.5865 10.2622C14.8572 10.5269 14.8623 10.9611 14.5981 11.232L12.4819 13.4013C12.2176 13.6722 11.784 13.6772 11.5134 13.4125C11.2427 13.1478 11.2376 12.7136 11.5018 12.4427L13.618 10.2734C13.8823 10.0025 14.3159 9.99746 14.5865 10.2622Z" fill="#383874"/>
<path fill-rule="evenodd" clip-rule="evenodd" d="M10.8783 1.5504C10.4602 1.54985 9.91037 1.8298 8.93148 2.79546L2.82385 8.82054C1.83959 9.7915 1.55308 10.3371 1.54808 10.7535C1.54312 11.1664 1.81286 11.7072 2.76834 12.6783L7.21926 17.2021C8.17319 18.1716 8.71164 18.4486 9.12558 18.4491C9.54364 18.4497 10.0935 18.1697 11.0724 17.2041L17.18 11.179C18.1589 10.2133 18.4467 9.66698 18.4524 9.2484C18.458 8.83396 18.1895 8.29073 17.2355 7.32119L12.7846 2.79744C11.8307 1.8279 11.2922 1.55094 10.8783 1.5504ZM10.8797 0.178816C11.9131 0.180177 12.8105 0.869746 13.7602 1.835L18.2112 6.35875C19.1609 7.32401 19.8361 8.23276 19.822 9.26751C19.808 10.2981 19.1127 11.1982 18.1415 12.1562L12.0339 18.1813C11.0627 19.1393 10.1536 19.8221 9.12423 19.8207C8.09073 19.8194 7.19335 19.1298 6.24364 18.1645L1.79272 13.6408C0.84456 12.6771 0.165972 11.7705 0.178401 10.7365C0.190789 9.70587 0.887395 8.80511 1.86236 7.84332L7.97 1.81824C8.94114 0.860219 9.85029 0.177462 10.8797 0.178816Z" fill="#383874"/>
<path fill-rule="evenodd" clip-rule="evenodd" d="M10.8797 2.16851e-06C11.9932 0.00146786 12.9371 0.744295 13.8865 1.70929L18.3374 6.23304C19.2867 7.19779 20.0149 8.15425 19.9998 9.27019C19.9847 10.3809 19.2361 11.3272 18.2659 12.2843L12.1583 18.3094C11.1878 19.2667 10.2321 20.0015 9.12376 20C8.0102 19.9985 7.06634 19.2557 6.11689 18.2907L2.02793 14.1348C2.01522 14.1234 2.00277 14.1114 1.99061 14.0991C1.97844 14.0867 1.96671 14.0741 1.95544 14.0612L1.66597 13.767C0.718706 12.8042 -0.0132237 11.8498 0.000181202 10.7346C0.0135356 9.62354 0.763656 8.6764 1.7375 7.71572L7.84513 1.69064C8.81559 0.733297 9.77128 -0.00145665 10.8797 2.16851e-06ZM2.27246 13.8743L2.21697 13.8179C2.04814 13.6176 2.05932 13.3181 2.24882 13.1311L2.61125 12.7736C2.62129 12.7839 2.63141 12.7942 2.6416 12.8045L3.32227 13.4963L2.96104 13.8527C2.77109 14.0401 2.47049 14.0468 2.27246 13.8743ZM2.73718 14.3466L6.36992 18.0388C7.31989 19.0043 8.1708 19.6406 9.12423 19.6419C10.0746 19.6432 10.9372 19.0124 11.909 18.0537L18.0167 12.0286C18.9887 11.0697 19.6309 10.2158 19.6438 9.2653C19.6568 8.31173 19.0346 7.45071 18.0844 6.48494L14.4483 2.78934C14.4198 2.96395 14.3377 3.13138 14.2022 3.26501L13.8431 3.61922L17.3618 7.19547C18.3148 8.16406 18.6369 8.75518 18.6301 9.25109C18.6233 9.75007 18.2819 10.3428 17.3044 11.3071L11.1968 17.3321C10.2191 18.2966 9.62249 18.6291 9.12511 18.6284C8.63084 18.6278 8.04574 18.2971 7.09251 17.3283L3.57269 13.7509L3.21031 14.1083C3.07623 14.2406 2.90993 14.32 2.73718 14.3466ZM3.82686 13.5001L7.34554 17.0764C8.30017 18.0466 8.79199 18.2699 9.12558 18.2703C9.46432 18.2708 9.96746 18.0433 10.9475 17.0765L17.0552 11.0514C18.0355 10.0843 18.2696 9.58435 18.2742 9.24619C18.2787 8.91321 18.0637 8.41787 17.1088 7.44737L13.589 3.86996L3.82686 13.5001ZM13.5927 3.3647L13.9529 3.00934C14.1519 2.81307 14.1543 2.49267 13.9581 2.2933C13.7615 2.09347 13.4401 2.09107 13.2407 2.28779L12.8816 2.64204C12.8913 2.65187 12.9011 2.66176 12.9109 2.67172L13.5927 3.3647ZM12.6274 2.89278C12.6375 2.90298 12.6477 2.91326 12.6579 2.92362L13.3386 3.61543L3.57644 13.2456L2.89462 12.5526C2.88481 12.5427 2.87508 12.5327 2.86542 12.5229L12.6274 2.89278ZM12.627 2.39162L12.9915 2.03212C13.1259 1.89946 13.2928 1.82003 13.4662 1.79361C12.5826 0.922711 11.7763 0.35928 10.8792 0.358099C9.92883 0.356849 9.06622 0.98761 8.09439 1.9463L1.98676 7.97139C1.01067 8.93429 0.367575 9.78867 0.356153 10.7389C0.345378 11.6354 0.898364 12.4488 1.75442 13.3453C1.78382 13.1728 1.86559 13.0076 1.99955 12.8755L2.36495 12.515C1.62396 11.7138 1.36453 11.1948 1.36986 10.7515C1.37584 10.2545 1.71637 9.66228 2.69898 8.69294L8.80662 2.66786C9.78432 1.70337 10.3809 1.37093 10.8783 1.37158C11.3215 1.37217 11.8378 1.63811 12.627 2.39162ZM2.61927 12.2641C1.89519 11.4792 1.72227 11.0527 1.72583 10.7559C1.72987 10.4203 1.96235 9.92119 2.94825 8.94861L9.05588 2.92353C10.036 1.95671 10.5391 1.72924 10.8778 1.72968C11.1765 1.73008 11.6019 1.90902 12.3726 2.64258L2.61927 12.2641ZM13.4907 10.1482C13.8237 9.80691 14.3696 9.80066 14.7104 10.134C15.0517 10.4678 15.0583 11.0158 14.7249 11.3576L12.6087 13.5269C12.2757 13.8682 11.7299 13.8744 11.389 13.5411C11.0477 13.2073 11.0412 12.6593 11.3746 12.3175L13.4907 10.1482ZM14.4622 10.3908C14.2618 10.1947 13.9404 10.1985 13.7448 10.399L11.6287 12.5683C11.4335 12.7684 11.4372 13.0887 11.6372 13.2843C11.8376 13.4804 12.159 13.4766 12.3546 13.2761L14.4708 11.1068C14.6659 10.9068 14.6622 10.5864 14.4622 10.3908ZM9.63675 14.0306C9.97615 13.6958 10.522 13.7 10.8564 14.0399C11.1913 14.3802 11.1874 14.9282 10.8475 15.2635L9.74371 16.3523C9.40431 16.6871 8.85841 16.6829 8.52401 16.3431C8.18916 16.0027 8.1931 15.4547 8.53296 15.1194L9.63675 14.0306ZM10.6034 14.2917C10.4068 14.0919 10.0854 14.0895 9.88601 14.2862L8.78222 15.3751C8.58325 15.5714 8.58087 15.8918 8.77704 16.0912C8.97364 16.291 9.29502 16.2934 9.49444 16.0967L10.5982 15.0078C10.7972 14.8115 10.7996 14.4911 10.6034 14.2917Z" fill="#383874"/>
<path fill-rule="evenodd" clip-rule="evenodd" d="M0 20.9985C0 20.4463 0.407014 19.9985 0.909091 19.9985H19.0909C19.593 19.9985 20 20.4463 20 20.9985C20 21.5508 19.593 21.9985 19.0909 21.9985H0.909091C0.407014 21.9985 0 21.5508 0 20.9985Z" fill="#383874"/>
</svg>
