<svg width="24" height="24" viewBox="0 0 24 24" fill="none" xmlns="http://www.w3.org/2000/svg">
<rect x="2" y="2" width="20" height="20" rx="2" fill="#E6E9F5"/>
<path d="M12.8333 7.83333C12.8333 7.3731 12.4602 7 12 7C11.5398 7 11.1667 7.3731 11.1667 7.83333V11.1667H7.83333C7.3731 11.1667 7 11.5398 7 12C7 12.4602 7.3731 12.8333 7.83333 12.8333H11.1667V16.1667C11.1667 16.6269 11.5398 17 12 17C12.4602 17 12.8333 16.6269 12.8333 16.1667V12.8333H16.1667C16.6269 12.8333 17 12.4602 17 12C17 11.5398 16.6269 11.1667 16.1667 11.1667H12.8333V7.83333Z" fill="#383874"/>
</svg>
