<svg width="16" height="16" viewBox="0 0 16 16" fill="none" xmlns="http://www.w3.org/2000/svg">
<path d="M8 0C3.584 0 0 3.584 0 8C0 12.416 3.584 16 8 16C12.416 16 16 12.416 16 8C16 3.584 12.424 0 8 0ZM10.4 9.784L8.08 11.12C7.792 11.288 7.472 11.368 7.16 11.368C6.84 11.368 6.528 11.288 6.24 11.12C5.664 10.784 5.32 10.192 5.32 9.52V6.84C5.32 6.176 5.664 5.576 6.24 5.24C6.816 4.904 7.504 4.904 8.088 5.24L10.408 6.576C10.984 6.912 11.328 7.504 11.328 8.176C11.328 8.848 10.984 9.448 10.4 9.784Z" fill="#72BF44"/>
</svg>
