<svg width="5" height="8" viewBox="0 0 5 8" fill="none" xmlns="http://www.w3.org/2000/svg">
<path d="M4.76724 7.77552C4.91632 7.63333 5 7.44099 5 7.2405C5 7.04001 4.91632 6.84766 4.76724 6.70547L1.93369 3.98103L4.76724 1.29453C4.91632 1.15234 5 0.959994 5 0.759504C5 0.559014 4.91632 0.36667 4.76724 0.224481C4.69283 0.15335 4.6043 0.0968926 4.50676 0.0583643C4.40922 0.0198361 4.3046 0 4.19893 0C4.09326 0 3.98864 0.0198361 3.8911 0.0583643C3.79356 0.0968926 3.70503 0.15335 3.63062 0.224481L0.236768 3.44221C0.161744 3.51276 0.102197 3.59669 0.0615597 3.68917C0.0209222 3.78165 0 3.88084 0 3.98103C0 4.08121 0.0209222 4.1804 0.0615597 4.27288C0.102197 4.36536 0.161744 4.4493 0.236768 4.51985L3.63062 7.77552C3.70503 7.84665 3.79356 7.90311 3.8911 7.94163C3.98864 7.98016 4.09326 8 4.19893 8C4.3046 8 4.40922 7.98016 4.50676 7.94163C4.6043 7.90311 4.69283 7.84665 4.76724 7.77552Z" fill="#475364"/>
</svg>
