<svg width="24" height="24" viewBox="0 0 24 24" fill="none" xmlns="http://www.w3.org/2000/svg">
<path d="M7.2806 14.7207C7.45834 14.8996 7.69877 15 7.94938 15C8.19999 15 8.44042 14.8996 8.61816 14.7207L12.0237 11.3204L15.3818 14.7207C15.5596 14.8996 15.8 15 16.0506 15C16.3012 15 16.5417 14.8996 16.7194 14.7207C16.8083 14.6314 16.8789 14.5252 16.927 14.4081C16.9752 14.2911 17 14.1655 17 14.0387C17 13.9119 16.9752 13.7864 16.927 13.6693C16.8789 13.5523 16.8083 13.446 16.7194 13.3567L12.6972 9.28412C12.6091 9.19409 12.5041 9.12264 12.3885 9.07387C12.2729 9.02511 12.1489 9 12.0237 9C11.8985 9 11.7745 9.02511 11.6589 9.07387C11.5433 9.12264 11.4384 9.19409 11.3502 9.28412L7.2806 13.3567C7.19169 13.446 7.12112 13.5523 7.07296 13.6693C7.0248 13.7864 7 13.9119 7 14.0387C7 14.1655 7.0248 14.2911 7.07296 14.4081C7.12112 14.5252 7.19169 14.6314 7.2806 14.7207Z" fill="black"/>
</svg>
