<svg width="41" height="40" viewBox="0 0 41 40" fill="none" xmlns="http://www.w3.org/2000/svg">
<rect x="0.799805" width="40" height="40" rx="20" fill="#06B853" fill-opacity="0.15"/>
<path fill-rule="evenodd" clip-rule="evenodd" d="M13.8031 12.803C12.9631 13.643 12.5138 15.022 12.5138 17.2477V22.7523C12.5138 24.978 12.9631 26.357 13.8031 27.1969C14.643 28.0369 16.022 28.4862 18.2477 28.4862H23.7523C25.978 28.4862 27.357 28.0369 28.197 27.1969C29.0369 26.357 29.4863 24.978 29.4863 22.7523V17.2477C29.4863 15.022 29.0369 13.643 28.197 12.803C27.357 11.9631 25.978 11.5138 23.7523 11.5138H18.2477C16.022 11.5138 14.643 11.9631 13.8031 12.803ZM12.83 11.83C14.0543 10.6057 15.8863 10.1376 18.2477 10.1376H23.7523C26.1138 10.1376 27.9458 10.6057 29.1701 11.83C30.3943 13.0543 30.8624 14.8863 30.8624 17.2477V22.7523C30.8624 25.1137 30.3943 26.9457 29.1701 28.17C27.9458 29.3943 26.1138 29.8624 23.7523 29.8624H18.2477C15.8863 29.8624 14.0543 29.3943 12.83 28.17C11.6057 26.9457 11.1376 25.1137 11.1376 22.7523V17.2477C11.1376 14.8863 11.6057 13.0543 12.83 11.83Z" fill="#06B853"/>
<path fill-rule="evenodd" clip-rule="evenodd" d="M12.7327 11.7327C13.9954 10.4699 15.8727 10 18.2477 10H23.7523C26.1273 10 28.0046 10.4699 29.2673 11.7327C30.5301 12.9954 31 14.8727 31 17.2477V22.7523C31 25.1273 30.5301 27.0046 29.2673 28.2673C28.0046 29.5301 26.1273 30 23.7523 30H18.2477C15.8727 30 13.9954 29.5301 12.7327 28.2673C11.4699 27.0046 11 25.1273 11 22.7523V17.2477C11 14.8727 11.4699 12.9954 12.7327 11.7327ZM18.2477 10.2752C15.8998 10.2752 14.1131 10.7415 12.9273 11.9273C11.7415 13.1131 11.2752 14.8998 11.2752 17.2477V22.7523C11.2752 25.1002 11.7415 26.8869 12.9273 28.0727C14.1131 29.2585 15.8998 29.7248 18.2477 29.7248H23.7523C26.1002 29.7248 27.8869 29.2585 29.0727 28.0727C30.2585 26.8869 30.7248 25.1002 30.7248 22.7523V17.2477C30.7248 14.8998 30.2585 13.1131 29.0727 11.9273C27.8869 10.7415 26.1002 10.2752 23.7523 10.2752H18.2477ZM18.2477 11.6514C16.0356 11.6514 14.7019 12.0988 13.9004 12.9004C13.0988 13.7019 12.6514 15.0356 12.6514 17.2477V22.7523C12.6514 24.9644 13.0988 26.2981 13.9004 27.0996C14.7019 27.9012 16.0356 28.3486 18.2477 28.3486H23.7523C25.9644 28.3486 27.2981 27.9012 28.0996 27.0996C28.9012 26.2981 29.3486 24.9644 29.3486 22.7523V17.2477C29.3486 15.0356 28.9012 13.7019 28.0996 12.9004C27.2981 12.0988 25.9644 11.6514 23.7523 11.6514H18.2477ZM13.7057 12.7057C14.5841 11.8274 16.0084 11.3761 18.2477 11.3761H23.7523C25.9916 11.3761 27.4159 11.8274 28.2943 12.7057C29.1726 13.5841 29.6239 15.0084 29.6239 17.2477V22.7523C29.6239 24.9916 29.1726 26.4159 28.2943 27.2943C27.4159 28.1726 25.9916 28.6239 23.7523 28.6239H18.2477C16.0084 28.6239 14.5841 28.1726 13.7057 27.2943C12.8274 26.4159 12.3761 24.9916 12.3761 22.7523V17.2477C12.3761 15.0084 12.8274 13.5841 13.7057 12.7057Z" fill="#06B853"/>
<path d="M19.1226 15C19.6714 15 20.0873 15.1335 20.37 15.4005C20.5364 15.5543 20.6653 15.7687 20.7567 16.0438C20.8482 16.3189 20.894 16.7073 20.894 17.209V17.9979H22.536C22.9047 17.9979 23.2036 18.2968 23.2036 18.6655C23.2036 19.0342 22.9047 19.3331 22.536 19.3331H20.894V23.0095C20.894 23.236 20.9272 23.406 20.9938 23.5192C21.0603 23.6244 21.21 23.677 21.4429 23.677C21.6923 23.677 21.9377 23.6244 22.1789 23.5192C22.42 23.414 22.6155 23.2765 22.7652 23.1066C22.9232 22.9366 23.0022 22.7546 23.0022 22.5604C23.0022 22.4876 22.9689 22.4188 22.9024 22.354C22.8359 22.2893 22.7069 22.2569 22.5157 22.2569C22.2969 22.2569 22.0874 22.1129 22.0526 21.8969L22.0105 21.6359C21.9576 21.3081 22.1665 20.9931 22.4974 20.9657C22.6545 20.9526 22.8227 20.9461 23.0022 20.9461C23.4929 20.9461 23.8879 21.0553 24.1873 21.2738C24.4867 21.4923 24.6364 21.8321 24.6364 22.2934C24.6364 22.7303 24.5324 23.1187 24.3245 23.4586C24.1166 23.7984 23.8421 24.0816 23.5012 24.3082C23.1602 24.5347 22.786 24.7087 22.3784 24.8301C21.9793 24.9434 21.5884 25 21.2058 25C20.8565 25 20.5613 24.9595 20.3201 24.8786C20.0873 24.7977 19.9002 24.6925 19.7588 24.5631C19.6673 24.474 19.58 24.3729 19.4968 24.2596C19.422 24.1463 19.3596 23.9886 19.3097 23.7863C19.2681 23.584 19.2473 23.3129 19.2473 22.9731V19.3331H18.867C18.4983 19.3331 18.1994 19.0342 18.1994 18.6655C18.1994 18.2968 18.4983 17.9979 18.867 17.9979H19.2473V17.2697C19.2473 16.9622 19.2057 16.7316 19.1226 16.5779C19.0394 16.4241 18.8481 16.3473 18.5487 16.3473C18.4827 16.3473 18.4156 16.3514 18.3474 16.3598C18.0532 16.3961 17.7415 16.2821 17.6183 16.0125C17.4816 15.713 17.6232 15.3396 17.9208 15.199C18.0312 15.1469 18.1365 15.1039 18.2369 15.085C18.4947 15.0283 18.7899 15 19.1226 15Z" fill="#06B853"/>
</svg>
