<svg width="40" height="40" viewBox="0 0 40 40" fill="none" xmlns="http://www.w3.org/2000/svg">
<rect width="40" height="40" rx="20" fill="#457AED" fill-opacity="0.15"/>
<path fill-rule="evenodd" clip-rule="evenodd" d="M13.203 12.8031C12.363 13.643 11.9137 15.022 11.9137 17.2477V22.7523C11.9137 24.978 12.363 26.357 13.203 27.1969C14.0429 28.0369 15.4219 28.4862 17.6476 28.4862H23.1522C25.3779 28.4862 26.7569 28.0369 27.5968 27.1969C28.4368 26.357 28.8861 24.978 28.8861 22.7523V17.2477C28.8861 15.022 28.4368 13.643 27.5968 12.8031C26.7569 11.9631 25.3779 11.5138 23.1522 11.5138H17.6476C15.4219 11.5138 14.0429 11.9631 13.203 12.8031ZM12.2299 11.83C13.4542 10.6057 15.2862 10.1376 17.6476 10.1376H23.1522C25.5136 10.1376 27.3456 10.6057 28.5699 11.83C29.7942 13.0543 30.2623 14.8863 30.2623 17.2477V22.7523C30.2623 25.1137 29.7942 26.9457 28.5699 28.17C27.3456 29.3943 25.5136 29.8624 23.1522 29.8624H17.6476C15.2862 29.8624 13.4542 29.3943 12.2299 28.17C11.0056 26.9457 10.5375 25.1137 10.5375 22.7523V17.2477C10.5375 14.8863 11.0056 13.0543 12.2299 11.83Z" fill="#457AED"/>
<path fill-rule="evenodd" clip-rule="evenodd" d="M23.7397 16.5135C24.0084 16.7822 24.0084 17.2178 23.7397 17.4866L17.7397 23.4865C17.471 23.7552 17.0353 23.7552 16.7666 23.4865C16.4979 23.2178 16.4979 22.7822 16.7666 22.5134L22.7666 16.5135C23.0353 16.2448 23.471 16.2448 23.7397 16.5135Z" fill="#457AED"/>
<path fill-rule="evenodd" clip-rule="evenodd" d="M17.6293 16.9358C17.3861 16.9358 17.1889 17.133 17.1889 17.3762C17.1889 17.6193 17.386 17.8165 17.6293 17.8165C17.8725 17.8165 18.0696 17.6194 18.0696 17.3762C18.0696 17.1329 17.8725 16.9358 17.6293 16.9358ZM15.8127 17.3762C15.8127 16.3729 16.626 15.5596 17.6293 15.5596C18.6325 15.5596 19.4458 16.3729 19.4458 17.3762C19.4458 18.3794 18.6325 19.1927 17.6293 19.1927C16.6261 19.1927 15.8127 18.3794 15.8127 17.3762Z" fill="#457AED"/>
<path fill-rule="evenodd" clip-rule="evenodd" d="M23.6293 22.1835C23.3861 22.1835 23.1889 22.3806 23.1889 22.6238C23.1889 22.8671 23.3861 23.0642 23.6293 23.0642C23.8725 23.0642 24.0697 22.867 24.0697 22.6238C24.0697 22.3807 23.8725 22.1835 23.6293 22.1835ZM21.8128 22.6238C21.8128 21.6206 22.626 20.8073 23.6293 20.8073C24.6325 20.8073 25.4458 21.6206 25.4458 22.6238C25.4458 23.6271 24.6325 24.4404 23.6293 24.4404C22.626 24.4404 21.8128 23.6271 21.8128 22.6238Z" fill="#457AED"/>
<path fill-rule="evenodd" clip-rule="evenodd" d="M12.1326 11.7327C13.3953 10.4699 15.2726 10 17.6476 10H23.1522C25.5272 10 27.4045 10.4699 28.6672 11.7327C29.93 12.9954 30.3999 14.8727 30.3999 17.2477V22.7523C30.3999 25.1273 29.93 27.0046 28.6672 28.2673C27.4045 29.5301 25.5272 30 23.1522 30H17.6476C15.2726 30 13.3953 29.5301 12.1326 28.2673C10.8698 27.0046 10.3999 25.1273 10.3999 22.7523V17.2477C10.3999 14.8727 10.8698 12.9954 12.1326 11.7327ZM17.6476 10.2752C15.2997 10.2752 13.513 10.7415 12.3272 11.9273C11.1414 13.1131 10.6751 14.8998 10.6751 17.2477V22.7523C10.6751 25.1002 11.1414 26.8869 12.3272 28.0727C13.513 29.2585 15.2997 29.7248 17.6476 29.7248H23.1522C25.5001 29.7248 27.2868 29.2585 28.4726 28.0727C29.6584 26.8869 30.1247 25.1002 30.1247 22.7523V17.2477C30.1247 14.8998 29.6584 13.1131 28.4726 11.9273C27.2868 10.7415 25.5001 10.2752 23.1522 10.2752H17.6476ZM17.6476 11.6514C15.4355 11.6514 14.1018 12.0988 13.3003 12.9004C12.4987 13.7019 12.0513 15.0356 12.0513 17.2477V22.7523C12.0513 24.9644 12.4987 26.2981 13.3003 27.0996C14.1018 27.9012 15.4355 28.3486 17.6476 28.3486H23.1522C25.3643 28.3486 26.698 27.9012 27.4995 27.0996C28.3011 26.2981 28.7485 24.9644 28.7485 22.7523V17.2477C28.7485 15.0356 28.3011 13.7019 27.4995 12.9004C26.698 12.0988 25.3643 11.6514 23.1522 11.6514H17.6476ZM13.1056 12.7057C13.984 11.8274 15.4083 11.3761 17.6476 11.3761H23.1522C25.3916 11.3761 26.8158 11.8274 27.6942 12.7057C28.5725 13.5841 29.0238 15.0084 29.0238 17.2477V22.7523C29.0238 24.9916 28.5725 26.4159 27.6942 27.2943C26.8158 28.1726 25.3916 28.6239 23.1522 28.6239H17.6476C15.4083 28.6239 13.984 28.1726 13.1056 27.2943C12.2273 26.4159 11.776 24.9916 11.776 22.7523V17.2477C11.776 15.0084 12.2273 13.5841 13.1056 12.7057ZM15.6751 17.3762C15.6751 16.2969 16.55 15.422 17.6293 15.422C18.7085 15.422 19.5834 16.297 19.5834 17.3762C19.5834 18.4554 18.7085 19.3303 17.6293 19.3303C16.5501 19.3303 15.6751 18.4554 15.6751 17.3762ZM17.6293 15.6973C16.702 15.6973 15.9504 16.4489 15.9504 17.3762C15.9504 18.3034 16.7021 19.055 17.6293 19.055C18.5565 19.055 19.3082 18.3034 19.3082 17.3762C19.3082 16.4489 18.5565 15.6973 17.6293 15.6973ZM22.6693 16.4162C22.9918 16.0937 23.5146 16.0937 23.837 16.4162C24.1595 16.7386 24.1595 17.2614 23.837 17.5839L17.837 23.5838C17.5146 23.9063 16.9918 23.9063 16.6693 23.5838C16.3469 23.2614 16.3469 22.7386 16.6693 22.4161L22.6693 16.4162ZM23.6424 16.6108C23.4274 16.3958 23.0789 16.3958 22.8639 16.6108L16.8639 22.6108C16.649 22.8257 16.649 23.1743 16.8639 23.3892C17.0789 23.6042 17.4274 23.6042 17.6424 23.3892L23.6424 17.3892C23.8574 17.1743 23.8574 16.8257 23.6424 16.6108ZM17.6293 17.0734C17.4621 17.0734 17.3265 17.209 17.3265 17.3762C17.3265 17.5433 17.462 17.6789 17.6293 17.6789C17.7965 17.6789 17.932 17.5434 17.932 17.3762C17.932 17.2089 17.7965 17.0734 17.6293 17.0734ZM17.0513 17.3762C17.0513 17.0569 17.3101 16.7982 17.6293 16.7982C17.9485 16.7982 18.2072 17.0569 18.2072 17.3762C18.2072 17.6954 17.9485 17.9541 17.6293 17.9541C17.31 17.9541 17.0513 17.6954 17.0513 17.3762ZM21.6752 22.6238C21.6752 21.5446 22.55 20.6697 23.6293 20.6697C24.7085 20.6697 25.5834 21.5446 25.5834 22.6238C25.5834 23.7031 24.7085 24.578 23.6293 24.578C22.55 24.578 21.6752 23.703 21.6752 22.6238ZM23.6293 20.945C22.702 20.945 21.9504 21.6966 21.9504 22.6238C21.9504 23.5511 22.702 24.3027 23.6293 24.3027C24.5565 24.3027 25.3082 23.5511 25.3082 22.6238C25.3082 21.6966 24.5565 20.945 23.6293 20.945ZM23.6293 22.3211C23.4621 22.3211 23.3265 22.4566 23.3265 22.6238C23.3265 22.7911 23.4621 22.9266 23.6293 22.9266C23.7965 22.9266 23.932 22.791 23.932 22.6238C23.932 22.4567 23.7965 22.3211 23.6293 22.3211ZM23.0513 22.6238C23.0513 22.3046 23.3101 22.0459 23.6293 22.0459C23.9485 22.0459 24.2073 22.3046 24.2073 22.6238C24.2073 22.9431 23.9485 23.2018 23.6293 23.2018C23.3101 23.2018 23.0513 22.9431 23.0513 22.6238Z" fill="#457AED"/>
</svg>
