<svg width="41" height="40" viewBox="0 0 41 40" fill="none" xmlns="http://www.w3.org/2000/svg">
<rect x="0.600098" width="40" height="40" rx="20" fill="#795CEA" fill-opacity="0.15"/>
<path fill-rule="evenodd" clip-rule="evenodd" d="M13.8031 12.8031C12.9631 13.643 12.5138 15.022 12.5138 17.2477V22.7523C12.5138 24.978 12.9631 26.357 13.8031 27.1969C14.643 28.0369 16.022 28.4862 18.2477 28.4862H23.7523C25.978 28.4862 27.357 28.0369 28.1969 27.1969C29.0369 26.357 29.4862 24.978 29.4862 22.7523V17.2477C29.4862 15.022 29.0369 13.643 28.1969 12.8031C27.357 11.9631 25.978 11.5138 23.7523 11.5138H18.2477C16.022 11.5138 14.643 11.9631 13.8031 12.8031ZM12.83 11.83C14.0543 10.6057 15.8863 10.1376 18.2477 10.1376H23.7523C26.1137 10.1376 27.9457 10.6057 29.17 11.83C30.3943 13.0543 30.8624 14.8863 30.8624 17.2477V22.7523C30.8624 25.1137 30.3943 26.9457 29.17 28.17C27.9457 29.3943 26.1137 29.8624 23.7523 29.8624H18.2477C15.8863 29.8624 14.0543 29.3943 12.83 28.17C11.6057 26.9457 11.1376 25.1137 11.1376 22.7523V17.2477C11.1376 14.8863 11.6057 13.0543 12.83 11.83Z" fill="#795CEA"/>
<path fill-rule="evenodd" clip-rule="evenodd" d="M24.3398 16.5135C24.6085 16.7822 24.6085 17.2178 24.3398 17.4866L18.3398 23.4865C18.0711 23.7552 17.6354 23.7552 17.3667 23.4865C17.098 23.2178 17.098 22.7822 17.3667 22.5134L23.3667 16.5135C23.6354 16.2448 24.0711 16.2448 24.3398 16.5135Z" fill="#795CEA"/>
<path fill-rule="evenodd" clip-rule="evenodd" d="M18.2294 16.9358C17.9862 16.9358 17.789 17.133 17.789 17.3762C17.789 17.6193 17.9861 17.8165 18.2294 17.8165C18.4726 17.8165 18.6697 17.6194 18.6697 17.3762C18.6697 17.1329 18.4726 16.9358 18.2294 16.9358ZM16.4128 17.3762C16.4128 16.3729 17.2261 15.5596 18.2294 15.5596C19.2326 15.5596 20.0459 16.3729 20.0459 17.3762C20.0459 18.3794 19.2326 19.1927 18.2294 19.1927C17.2262 19.1927 16.4128 18.3794 16.4128 17.3762Z" fill="#795CEA"/>
<path fill-rule="evenodd" clip-rule="evenodd" d="M24.2294 22.1835C23.9862 22.1835 23.789 22.3806 23.789 22.6238C23.789 22.8671 23.9862 23.0642 24.2294 23.0642C24.4726 23.0642 24.6698 22.867 24.6698 22.6238C24.6698 22.3807 24.4726 22.1835 24.2294 22.1835ZM22.4129 22.6238C22.4129 21.6206 23.2261 20.8073 24.2294 20.8073C25.2326 20.8073 26.0459 21.6206 26.0459 22.6238C26.0459 23.6271 25.2326 24.4404 24.2294 24.4404C23.2261 24.4404 22.4129 23.6271 22.4129 22.6238Z" fill="#795CEA"/>
<path fill-rule="evenodd" clip-rule="evenodd" d="M12.7327 11.7327C13.9954 10.4699 15.8727 10 18.2477 10H23.7523C26.1273 10 28.0046 10.4699 29.2673 11.7327C30.5301 12.9954 31 14.8727 31 17.2477V22.7523C31 25.1273 30.5301 27.0046 29.2673 28.2673C28.0046 29.5301 26.1273 30 23.7523 30H18.2477C15.8727 30 13.9954 29.5301 12.7327 28.2673C11.4699 27.0046 11 25.1273 11 22.7523V17.2477C11 14.8727 11.4699 12.9954 12.7327 11.7327ZM18.2477 10.2752C15.8998 10.2752 14.1131 10.7415 12.9273 11.9273C11.7415 13.1131 11.2752 14.8998 11.2752 17.2477V22.7523C11.2752 25.1002 11.7415 26.8869 12.9273 28.0727C14.1131 29.2585 15.8998 29.7248 18.2477 29.7248H23.7523C26.1002 29.7248 27.8869 29.2585 29.0727 28.0727C30.2585 26.8869 30.7248 25.1002 30.7248 22.7523V17.2477C30.7248 14.8998 30.2585 13.1131 29.0727 11.9273C27.8869 10.7415 26.1002 10.2752 23.7523 10.2752H18.2477ZM18.2477 11.6514C16.0356 11.6514 14.7019 12.0988 13.9004 12.9004C13.0988 13.7019 12.6514 15.0356 12.6514 17.2477V22.7523C12.6514 24.9644 13.0988 26.2981 13.9004 27.0996C14.7019 27.9012 16.0356 28.3486 18.2477 28.3486H23.7523C25.9644 28.3486 27.2981 27.9012 28.0996 27.0996C28.9012 26.2981 29.3486 24.9644 29.3486 22.7523V17.2477C29.3486 15.0356 28.9012 13.7019 28.0996 12.9004C27.2981 12.0988 25.9644 11.6514 23.7523 11.6514H18.2477ZM13.7057 12.7057C14.5841 11.8274 16.0084 11.3761 18.2477 11.3761H23.7523C25.9916 11.3761 27.4159 11.8274 28.2943 12.7057C29.1726 13.5841 29.6239 15.0084 29.6239 17.2477V22.7523C29.6239 24.9916 29.1726 26.4159 28.2943 27.2943C27.4159 28.1726 25.9916 28.6239 23.7523 28.6239H18.2477C16.0084 28.6239 14.5841 28.1726 13.7057 27.2943C12.8274 26.4159 12.3761 24.9916 12.3761 22.7523V17.2477C12.3761 15.0084 12.8274 13.5841 13.7057 12.7057ZM16.2752 17.3762C16.2752 16.2969 17.1501 15.422 18.2294 15.422C19.3086 15.422 20.1835 16.297 20.1835 17.3762C20.1835 18.4554 19.3086 19.3303 18.2294 19.3303C17.1502 19.3303 16.2752 18.4554 16.2752 17.3762ZM18.2294 15.6973C17.3021 15.6973 16.5505 16.4489 16.5505 17.3762C16.5505 18.3034 17.3022 19.055 18.2294 19.055C19.1566 19.055 19.9082 18.3034 19.9082 17.3762C19.9082 16.4489 19.1566 15.6973 18.2294 15.6973ZM23.2694 16.4162C23.5919 16.0937 24.1147 16.0937 24.4371 16.4162C24.7596 16.7386 24.7596 17.2614 24.4371 17.5839L18.4371 23.5838C18.1147 23.9063 17.5919 23.9063 17.2694 23.5838C16.947 23.2614 16.947 22.7386 17.2694 22.4161L23.2694 16.4162ZM24.2425 16.6108C24.0275 16.3958 23.679 16.3958 23.464 16.6108L17.464 22.6108C17.2491 22.8257 17.2491 23.1743 17.464 23.3892C17.679 23.6042 18.0275 23.6042 18.2425 23.3892L24.2425 17.3892C24.4575 17.1743 24.4575 16.8257 24.2425 16.6108ZM18.2294 17.0734C18.0622 17.0734 17.9266 17.209 17.9266 17.3762C17.9266 17.5433 18.0621 17.6789 18.2294 17.6789C18.3966 17.6789 18.5321 17.5434 18.5321 17.3762C18.5321 17.2089 18.3965 17.0734 18.2294 17.0734ZM17.6514 17.3762C17.6514 17.0569 17.9102 16.7982 18.2294 16.7982C18.5486 16.7982 18.8073 17.0569 18.8073 17.3762C18.8073 17.6954 18.5486 17.9541 18.2294 17.9541C17.9101 17.9541 17.6514 17.6954 17.6514 17.3762ZM22.2753 22.6238C22.2753 21.5446 23.1501 20.6697 24.2294 20.6697C25.3086 20.6697 26.1835 21.5446 26.1835 22.6238C26.1835 23.7031 25.3086 24.578 24.2294 24.578C23.1501 24.578 22.2753 23.703 22.2753 22.6238ZM24.2294 20.945C23.3021 20.945 22.5505 21.6966 22.5505 22.6238C22.5505 23.5511 23.3021 24.3027 24.2294 24.3027C25.1566 24.3027 25.9083 23.5511 25.9083 22.6238C25.9083 21.6966 25.1566 20.945 24.2294 20.945ZM24.2294 22.3211C24.0622 22.3211 23.9266 22.4566 23.9266 22.6238C23.9266 22.7911 24.0622 22.9266 24.2294 22.9266C24.3966 22.9266 24.5321 22.791 24.5321 22.6238C24.5321 22.4567 24.3966 22.3211 24.2294 22.3211ZM23.6514 22.6238C23.6514 22.3046 23.9102 22.0459 24.2294 22.0459C24.5486 22.0459 24.8074 22.3046 24.8074 22.6238C24.8074 22.9431 24.5486 23.2018 24.2294 23.2018C23.9102 23.2018 23.6514 22.9431 23.6514 22.6238Z" fill="#795CEA"/>
</svg>
