<svg width="16" height="16" viewBox="0 0 16 16" fill="none" xmlns="http://www.w3.org/2000/svg">
<path fill-rule="evenodd" clip-rule="evenodd" d="M3.1 2.90909C2.7134 2.90909 2.4 3.2347 2.4 3.63636V13.8182C2.4 14.2198 2.7134 14.5455 3.1 14.5455H12.9C13.2866 14.5455 13.6 14.2198 13.6 13.8182V3.63636C13.6 3.2347 13.2866 2.90909 12.9 2.90909H3.1ZM1 3.63636C1 2.43138 1.9402 1.45455 3.1 1.45455H12.9C14.0598 1.45455 15 2.43138 15 3.63636V13.8182C15 15.0232 14.0598 16 12.9 16H3.1C1.9402 16 1 15.0232 1 13.8182V3.63636Z" fill="#7A7A7A"/>
<path fill-rule="evenodd" clip-rule="evenodd" d="M1 6.54545C1 6.14379 1.3134 5.81818 1.7 5.81818H14.3C14.6866 5.81818 15 6.14379 15 6.54545C15 6.94712 14.6866 7.27273 14.3 7.27273H1.7C1.3134 7.27273 1 6.94712 1 6.54545Z" fill="#7A7A7A"/>
<path fill-rule="evenodd" clip-rule="evenodd" d="M10.8 0C11.1866 0 11.5 0.325611 11.5 0.727273V3.63636C11.5 4.03803 11.1866 4.36364 10.8 4.36364C10.4134 4.36364 10.1 4.03803 10.1 3.63636V0.727273C10.1 0.325611 10.4134 0 10.8 0Z" fill="#7A7A7A"/>
<path fill-rule="evenodd" clip-rule="evenodd" d="M5.2 0C5.5866 0 5.9 0.325611 5.9 0.727273V3.63636C5.9 4.03803 5.5866 4.36364 5.2 4.36364C4.8134 4.36364 4.5 4.03803 4.5 3.63636V0.727273C4.5 0.325611 4.8134 0 5.2 0Z" fill="#7A7A7A"/>
</svg>
