<svg width="174" height="40" viewBox="0 0 174 40" fill="none" xmlns="http://www.w3.org/2000/svg">
<rect width="174" height="40" rx="4" fill="#3B5998"/>
<path d="M0 4C0 1.79086 1.79086 0 4 0H40V40H4C1.79086 40 0 38.2091 0 36V4Z" fill="black" fill-opacity="0.1"/>
<path fill-rule="evenodd" clip-rule="evenodd" d="M24.4848 13.598C23.9117 13.4847 23.1376 13.4 22.6507 13.4C21.3324 13.4 21.2468 13.9667 21.2468 14.8733V16.4873H24.5421L24.2549 19.8307H21.2468V30H17.1207V19.8307H15V16.4873H17.1207V14.4193C17.1207 11.5867 18.4673 10 21.8483 10C23.0229 10 23.8827 10.17 25 10.3967L24.4848 13.598Z" fill="white"/>
<path d="M73.5576 25H75.3213V20.9736H79.457V19.5381H75.3213V16.6191H79.8467V15.1357H73.5576V25ZM82.7314 25.123C83.6885 25.123 84.4951 24.6445 84.9121 23.8857H84.9531V25H86.6553V20.0166C86.6553 18.5605 85.4863 17.6035 83.6748 17.6035C81.8359 17.6035 80.7217 18.5674 80.6191 19.8525L80.6123 19.9346H82.1914L82.2051 19.873C82.3145 19.3398 82.8066 18.9639 83.6133 18.9639C84.4746 18.9639 84.9531 19.4082 84.9531 20.1396V20.6387L83.0596 20.7549C81.3027 20.8643 80.3047 21.6367 80.3047 22.9219V22.9355C80.3047 24.2275 81.2822 25.123 82.7314 25.123ZM82 22.8672V22.8604C82 22.2861 82.458 21.9238 83.2988 21.8691L84.9531 21.7666V22.3135C84.9531 23.1748 84.2148 23.8242 83.2373 23.8242C82.4922 23.8242 82 23.4619 82 22.8672ZM91.2285 25.1436C93.0605 25.1436 94.2842 23.9951 94.4141 22.4844L94.4209 22.4365H92.8145L92.8008 22.498C92.6436 23.2568 92.0967 23.7695 91.2354 23.7695C90.1621 23.7695 89.4648 22.8945 89.4648 21.3838V21.377C89.4648 19.8936 90.1553 18.9844 91.2285 18.9844C92.1309 18.9844 92.6504 19.5518 92.7939 20.2559L92.8076 20.3174H94.4141L94.4072 20.2627C94.3047 18.8135 93.1152 17.6035 91.208 17.6035C89.0957 17.6035 87.7285 19.0527 87.7285 21.3633V21.3701C87.7285 23.6943 89.0752 25.1436 91.2285 25.1436ZM98.625 25.1436C100.519 25.1436 101.585 24.0225 101.811 22.9082L101.831 22.833H100.238L100.225 22.8809C100.061 23.3662 99.5068 23.8174 98.6592 23.8174C97.5518 23.8174 96.8545 23.0654 96.8271 21.7939H101.899V21.2471C101.899 19.0596 100.614 17.6035 98.543 17.6035C96.4717 17.6035 95.1387 19.1074 95.1387 21.3906V21.3975C95.1387 23.7012 96.4512 25.1436 98.625 25.1436ZM98.5635 18.9365C99.4658 18.9365 100.122 19.5107 100.245 20.6592H96.8477C96.9844 19.5449 97.6611 18.9365 98.5635 18.9365ZM107.047 25.1436C108.879 25.1436 110.041 23.708 110.041 21.377V21.3701C110.041 19.0322 108.872 17.6035 107.054 17.6035C106.028 17.6035 105.201 18.1299 104.791 18.998H104.75V15.1357H103.048V25H104.75V23.7695H104.791C105.201 24.624 106.001 25.1436 107.047 25.1436ZM106.534 23.708C105.481 23.708 104.75 22.7988 104.75 21.377V21.3701C104.75 19.9551 105.488 19.0391 106.534 19.0391C107.621 19.0391 108.305 19.9277 108.305 21.3701V21.377C108.305 22.8193 107.628 23.708 106.534 23.708ZM114.341 25.1436C116.467 25.1436 117.848 23.7285 117.848 21.377V21.3633C117.848 19.0254 116.446 17.6035 114.334 17.6035C112.229 17.6035 110.834 19.0391 110.834 21.3633V21.377C110.834 23.7217 112.208 25.1436 114.341 25.1436ZM114.348 23.7695C113.261 23.7695 112.57 22.9014 112.57 21.377V21.3633C112.57 19.8594 113.274 18.9844 114.334 18.9844C115.414 18.9844 116.111 19.8525 116.111 21.3633V21.377C116.111 22.8945 115.421 23.7695 114.348 23.7695ZM122.147 25.1436C124.273 25.1436 125.654 23.7285 125.654 21.377V21.3633C125.654 19.0254 124.253 17.6035 122.141 17.6035C120.035 17.6035 118.641 19.0391 118.641 21.3633V21.377C118.641 23.7217 120.015 25.1436 122.147 25.1436ZM122.154 23.7695C121.067 23.7695 120.377 22.9014 120.377 21.377V21.3633C120.377 19.8594 121.081 18.9844 122.141 18.9844C123.221 18.9844 123.918 19.8525 123.918 21.3633V21.377C123.918 22.8945 123.228 23.7695 122.154 23.7695ZM126.823 25H128.525V22.4844L129.1 21.8828L131.39 25H133.352L130.364 20.8711L133.235 17.7539H131.267L128.56 20.7617H128.525V15.1357H126.823V25Z" fill="white"/>
</svg>
