<svg width="174" height="40" viewBox="0 0 174 40" fill="none" xmlns="http://www.w3.org/2000/svg">
<rect width="174" height="40" rx="4" fill="url(#paint0_radial)"/>
<path d="M0 4C0 1.79086 1.79086 0 4 0H40V40H4C1.79086 40 0 38.2091 0 36V4Z" fill="black" fill-opacity="0.1"/>
<path d="M16.6675 20.0004C16.6675 18.1594 18.1594 16.6667 20.0004 16.6667C21.8414 16.6667 23.3341 18.1594 23.3341 20.0004C23.3341 21.8413 21.8414 23.3341 20.0004 23.3341C18.1594 23.3341 16.6675 21.8413 16.6675 20.0004ZM14.8653 20.0004C14.8653 22.8365 17.1643 25.1355 20.0004 25.1355C22.8365 25.1355 25.1355 22.8365 25.1355 20.0004C25.1355 17.1643 22.8365 14.8653 20.0004 14.8653C17.1643 14.8653 14.8654 17.1641 14.8654 20.0004H14.8653ZM24.1388 14.6617C24.1387 14.899 24.209 15.1311 24.3408 15.3285C24.4726 15.5259 24.6599 15.6798 24.8792 15.7707C25.0984 15.8616 25.3397 15.8855 25.5725 15.8393C25.8053 15.793 26.0192 15.6788 26.1871 15.5111C26.355 15.3433 26.4694 15.1295 26.5158 14.8968C26.5621 14.664 26.5385 14.4227 26.4477 14.2034C26.357 13.9841 26.2033 13.7966 26.006 13.6646C25.8087 13.5327 25.5767 13.4622 25.3393 13.4621H25.3389C25.0207 13.4623 24.7156 13.5887 24.4906 13.8136C24.2656 14.0385 24.1391 14.3436 24.1388 14.6617ZM15.9602 28.1405C14.9852 28.0961 14.4553 27.9337 14.1031 27.7965C13.6362 27.6148 13.3031 27.3983 12.9528 27.0485C12.6026 26.6987 12.3858 26.3659 12.2048 25.899C12.0675 25.547 11.9051 25.0169 11.8608 24.0419C11.8123 22.9878 11.8026 22.6711 11.8026 20.0005C11.8026 17.33 11.8131 17.0142 11.8608 15.9592C11.9052 14.9842 12.0688 14.4551 12.2048 14.1021C12.3866 13.6352 12.6031 13.302 12.9528 12.9518C13.3026 12.6015 13.6354 12.3847 14.1031 12.2038C14.4551 12.0665 14.9852 11.9041 15.9602 11.8598C17.0144 11.8113 17.331 11.8016 20.0004 11.8016C22.6698 11.8016 22.9868 11.8119 24.0418 11.8599C25.0168 11.9043 25.5458 12.0679 25.8989 12.2039C26.3658 12.3849 26.6989 12.6022 27.0492 12.952C27.3994 13.3017 27.6154 13.6353 27.7972 14.1022C27.9345 14.4543 28.0969 14.9844 28.1412 15.9593C28.1897 17.0143 28.1994 17.3301 28.1994 20.0007C28.1994 22.6713 28.1897 22.9871 28.1412 24.0421C28.0968 25.0171 27.9336 25.547 27.7972 25.8992C27.6154 26.3661 27.3989 26.6992 27.0492 27.0487C26.6994 27.3981 26.3658 27.6149 25.8989 27.7967C25.5469 27.934 25.0168 28.0964 24.0418 28.1407C22.9876 28.1892 22.671 28.1989 20.0004 28.1989C17.3298 28.1989 17.014 28.1892 15.9602 28.1407V28.1405ZM15.8774 10.0606C14.8128 10.109 14.0854 10.2779 13.4501 10.5251C12.7925 10.7804 12.2351 11.1228 11.6785 11.6785C11.122 12.2342 10.7804 12.7917 10.5251 13.4501C10.2779 14.0858 10.109 14.8128 10.0606 15.8774C10.0113 16.9437 10 17.2846 10 20.0004C10 22.7162 10.0113 23.0571 10.0606 24.1233C10.109 25.188 10.2779 25.915 10.5251 26.5507C10.7804 27.2083 11.122 27.7668 11.6785 28.3222C12.235 28.8777 12.7917 29.2197 13.4501 29.4757C14.0866 29.7229 14.8128 29.8917 15.8774 29.9402C16.9443 29.9887 17.2846 30.0008 20.0004 30.0008C22.7162 30.0008 23.0571 29.9895 24.1234 29.9402C25.188 29.8917 25.915 29.7229 26.5507 29.4757C27.2083 29.2197 27.7657 28.8779 28.3223 28.3222C28.8788 27.7665 29.2197 27.2083 29.4757 26.5507C29.7229 25.915 29.8926 25.1879 29.9402 24.1233C29.9887 23.0563 30 22.7162 30 20.0004C30 17.2846 29.9887 16.9437 29.9402 15.8774C29.8918 14.8127 29.7229 14.0854 29.4757 13.4501C29.2197 12.7925 28.878 12.2351 28.3223 11.6785C27.7666 11.122 27.2083 10.7804 26.5515 10.5251C25.915 10.2779 25.188 10.1082 24.1242 10.0606C23.0577 10.0118 22.717 10 20.0016 10C17.2862 10 16.9447 10.0113 15.8778 10.0606" fill="white"/>
<path d="M72.7305 25H74.4941V15.1357H72.7305V25ZM76.0596 25H77.7617V20.7959C77.7617 19.75 78.3838 19.0391 79.3613 19.0391C80.332 19.0391 80.8105 19.6201 80.8105 20.6523V25H82.5127V20.3105C82.5127 18.6289 81.6035 17.6035 80.0107 17.6035C78.9102 17.6035 78.1719 18.1094 77.7959 18.8887H77.7617V17.7539H76.0596V25ZM86.71 25.1436C88.4873 25.1436 89.752 24.2275 89.752 22.8604V22.8535C89.752 21.8008 89.1709 21.2129 87.6738 20.8779L86.4639 20.6113C85.7119 20.4404 85.4316 20.167 85.4316 19.75V19.7432C85.4316 19.21 85.9033 18.8613 86.6553 18.8613C87.4482 18.8613 87.9131 19.2852 87.9883 19.8662L87.9951 19.9209H89.5811L89.5742 19.8457C89.5127 18.5947 88.46 17.6035 86.6553 17.6035C84.9053 17.6035 83.75 18.499 83.75 19.8252V19.832C83.75 20.9053 84.4473 21.582 85.835 21.8896L87.0381 22.1562C87.79 22.3271 88.043 22.5732 88.043 23.0107V23.0176C88.043 23.5508 87.5439 23.8857 86.7168 23.8857C85.8555 23.8857 85.3838 23.5166 85.2539 22.8945L85.2402 22.833H83.5654L83.5723 22.8945C83.7227 24.2412 84.8096 25.1436 86.71 25.1436ZM93.5322 25.1436C93.874 25.1436 94.1748 25.1094 94.373 25.082V23.8037C94.2568 23.8105 94.127 23.8311 93.9629 23.8311C93.3408 23.8311 93.0264 23.6055 93.0264 22.8945V19.0664H94.373V17.7539H93.0264V15.915H91.2969V17.7539H90.2715V19.0664H91.2969V23.0381C91.2969 24.5283 92.0146 25.1436 93.5322 25.1436ZM97.5859 25.123C98.543 25.123 99.3496 24.6445 99.7666 23.8857H99.8076V25H101.51V20.0166C101.51 18.5605 100.341 17.6035 98.5293 17.6035C96.6904 17.6035 95.5762 18.5674 95.4736 19.8525L95.4668 19.9346H97.0459L97.0596 19.873C97.1689 19.3398 97.6611 18.9639 98.4678 18.9639C99.3291 18.9639 99.8076 19.4082 99.8076 20.1396V20.6387L97.9141 20.7549C96.1572 20.8643 95.1592 21.6367 95.1592 22.9219V22.9355C95.1592 24.2275 96.1367 25.123 97.5859 25.123ZM96.8545 22.8672V22.8604C96.8545 22.2861 97.3125 21.9238 98.1533 21.8691L99.8076 21.7666V22.3135C99.8076 23.1748 99.0693 23.8242 98.0918 23.8242C97.3467 23.8242 96.8545 23.4619 96.8545 22.8672ZM106.151 27.5361C108.25 27.5361 109.569 26.4355 109.569 24.7949V17.7539H107.867V18.9844H107.826C107.416 18.1504 106.623 17.6035 105.598 17.6035C103.766 17.6035 102.583 19.0117 102.583 21.3018V21.3086C102.583 23.5645 103.752 24.959 105.57 24.959C106.609 24.959 107.43 24.4668 107.833 23.6943H107.867V24.7402C107.867 25.6631 107.259 26.251 106.151 26.251C105.263 26.251 104.682 25.9365 104.497 25.5195L104.477 25.4648H102.802L102.815 25.5264C103.021 26.6611 104.23 27.5361 106.151 27.5361ZM106.104 23.6465C105.01 23.6465 104.319 22.7646 104.319 21.3359V21.3291C104.319 19.9209 105.01 19.0391 106.104 19.0391C107.156 19.0391 107.874 19.9346 107.874 21.3359V21.3428C107.874 22.751 107.163 23.6465 106.104 23.6465ZM110.964 25H112.666V20.7959C112.666 19.7227 113.247 19.1143 114.211 19.1143C114.498 19.1143 114.758 19.1553 114.901 19.21V17.6719C114.771 17.6377 114.573 17.6035 114.361 17.6035C113.527 17.6035 112.926 18.1299 112.7 19.0049H112.666V17.7539H110.964V25ZM117.752 25.123C118.709 25.123 119.516 24.6445 119.933 23.8857H119.974V25H121.676V20.0166C121.676 18.5605 120.507 17.6035 118.695 17.6035C116.856 17.6035 115.742 18.5674 115.64 19.8525L115.633 19.9346H117.212L117.226 19.873C117.335 19.3398 117.827 18.9639 118.634 18.9639C119.495 18.9639 119.974 19.4082 119.974 20.1396V20.6387L118.08 20.7549C116.323 20.8643 115.325 21.6367 115.325 22.9219V22.9355C115.325 24.2275 116.303 25.123 117.752 25.123ZM117.021 22.8672V22.8604C117.021 22.2861 117.479 21.9238 118.319 21.8691L119.974 21.7666V22.3135C119.974 23.1748 119.235 23.8242 118.258 23.8242C117.513 23.8242 117.021 23.4619 117.021 22.8672ZM123.05 25H124.752V20.5635C124.752 19.6816 125.326 19.0391 126.146 19.0391C126.939 19.0391 127.432 19.5449 127.432 20.3584V25H129.086V20.5225C129.086 19.6475 129.646 19.0391 130.467 19.0391C131.301 19.0391 131.766 19.5518 131.766 20.4473V25H133.468V20.0234C133.468 18.5742 132.531 17.6035 131.103 17.6035C130.057 17.6035 129.195 18.1641 128.847 19.0664H128.806C128.539 18.1367 127.808 17.6035 126.796 17.6035C125.839 17.6035 125.094 18.123 124.786 18.916H124.752V17.7539H123.05V25Z" fill="white"/>
<defs>
<radialGradient id="paint0_radial" cx="0" cy="0" r="1" gradientUnits="userSpaceOnUse" gradientTransform="translate(11.2611 39.1237) scale(220.915 50.7852)">
<stop offset="0.09" stop-color="#FA8F21"/>
<stop offset="0.78" stop-color="#D82D7E"/>
</radialGradient>
</defs>
</svg>
