<svg width="41" height="32" viewBox="0 0 41 32" fill="none" xmlns="http://www.w3.org/2000/svg">
<path d="M6.51069 26.0136L15.5244 14.0368L22.473 23.0194L27.5428 17.031L34.4914 26.0136H6.51069ZM36.5565 4.0242H20.5L16.4619 0H4.44354C3.38375 0.0333244 2.37658 0.468067 1.62724 1.21565C1.2571 1.58237 0.966262 2.02077 0.772654 2.5038C0.579046 2.98684 0.486774 3.50427 0.501527 4.0242V27.9778C0.487311 28.4975 0.580032 29.0147 0.77398 29.4974C0.967928 29.98 1.259 30.418 1.62925 30.7844C2.37859 31.5319 3.38575 31.9667 4.44554 32H36.5565C37.6163 31.9667 38.6235 31.5319 39.3728 30.7844C39.7427 30.4179 40.0334 29.9798 40.227 29.4971C40.4206 29.0145 40.513 28.4974 40.4985 27.9778V8.04841C40.5104 7.52197 40.417 6.99844 40.2237 6.50835C40.0305 6.01827 39.7412 5.57144 39.3728 5.19394C39.0121 4.81284 38.5749 4.51172 38.0897 4.31018C37.6044 4.10864 37.082 4.0112 36.5565 4.0242Z" fill="#D6D6D6"/>
</svg>
