<svg width="16" height="16" viewBox="0 0 16 16" fill="none" xmlns="http://www.w3.org/2000/svg">
<path d="M8 0C3.584 0 0 3.584 0 8C0 12.416 3.584 16 8 16C12.416 16 16 12.416 16 8C16 3.584 12.424 0 8 0ZM7 10.424C7 10.808 6.84 10.96 6.432 10.96H5.392C4.984 10.96 4.824 10.808 4.824 10.424V5.576C4.824 5.192 4.984 5.04 5.392 5.04H6.424C6.832 5.04 6.992 5.192 6.992 5.576V10.424H7ZM11.224 10.424C11.224 10.808 11.064 10.96 10.656 10.96H9.624C9.216 10.96 9.056 10.808 9.056 10.424V5.576C9.056 5.192 9.216 5.04 9.624 5.04H10.656C11.064 5.04 11.224 5.192 11.224 5.576V10.424Z" fill="#FC8B49"/>
</svg>
