<svg width="18" height="12" viewBox="0 0 18 12" fill="none" xmlns="http://www.w3.org/2000/svg">
<path d="M3.86389 8.09902L3.60295 8.37401V1.41665C3.60295 1.17354 3.50814 0.940385 3.3394 0.76848C3.17065 0.596575 2.94178 0.5 2.70313 0.5C2.46448 0.5 2.23561 0.596575 2.06686 0.76848C1.89812 0.940385 1.80331 1.17354 1.80331 1.41665V8.37401L1.54237 8.09902C1.37293 7.92641 1.14312 7.82944 0.903498 7.82944C0.663875 7.82944 0.434067 7.92641 0.264628 8.09902C0.0951896 8.27163 0 8.50573 0 8.74984C0 8.99395 0.0951896 9.22805 0.264628 9.40066L2.06426 11.234C2.14984 11.3174 2.25075 11.3828 2.3612 11.4265C2.46891 11.4749 2.58537 11.5 2.70313 11.5C2.82089 11.5 2.93735 11.4749 3.04506 11.4265C3.15551 11.3828 3.25642 11.3174 3.342 11.234L5.14163 9.40066C5.22553 9.31519 5.29208 9.21373 5.33748 9.10206C5.38289 8.99039 5.40626 8.87071 5.40626 8.74984C5.40626 8.62897 5.38289 8.50929 5.33748 8.39762C5.29208 8.28595 5.22553 8.18449 5.14163 8.09902C5.05773 8.01355 4.95813 7.94576 4.84852 7.8995C4.7389 7.85325 4.62141 7.82944 4.50276 7.82944C4.38411 7.82944 4.26663 7.85325 4.15701 7.8995C4.04739 7.94576 3.94779 8.01355 3.86389 8.09902ZM8.10203 2.3333H17.1002C17.3388 2.3333 17.5677 2.23672 17.7365 2.06482C17.9052 1.89291 18 1.65976 18 1.41665C18 1.17354 17.9052 0.940385 17.7365 0.76848C17.5677 0.596575 17.3388 0.5 17.1002 0.5H8.10203C7.86338 0.5 7.63451 0.596575 7.46576 0.76848C7.29701 0.940385 7.20221 1.17354 7.20221 1.41665C7.20221 1.65976 7.29701 1.89291 7.46576 2.06482C7.63451 2.23672 7.86338 2.3333 8.10203 2.3333ZM17.1002 5.08324H8.10203C7.86338 5.08324 7.63451 5.17982 7.46576 5.35172C7.29701 5.52363 7.20221 5.75678 7.20221 5.99989C7.20221 6.243 7.29701 6.47616 7.46576 6.64806C7.63451 6.81997 7.86338 6.91654 8.10203 6.91654H17.1002C17.3388 6.91654 17.5677 6.81997 17.7365 6.64806C17.9052 6.47616 18 6.243 18 5.99989C18 5.75678 17.9052 5.52363 17.7365 5.35172C17.5677 5.17982 17.3388 5.08324 17.1002 5.08324ZM17.1002 9.66649H8.10203C7.86338 9.66649 7.63451 9.76306 7.46576 9.93497C7.29701 10.1069 7.20221 10.34 7.20221 10.5831C7.20221 10.8262 7.29701 11.0594 7.46576 11.2313C7.63451 11.4032 7.86338 11.4998 8.10203 11.4998H17.1002C17.3388 11.4998 17.5677 11.4032 17.7365 11.2313C17.9052 11.0594 18 10.8262 18 10.5831C18 10.34 17.9052 10.1069 17.7365 9.93497C17.5677 9.76306 17.3388 9.66649 17.1002 9.66649Z" fill="black"/>
</svg>
