<svg width="17" height="16" viewBox="0 0 17 16" fill="none" xmlns="http://www.w3.org/2000/svg">
<path d="M8.5 14.423C10.204 14.4243 11.8388 13.7487 13.0448 12.5448C14.2487 11.3388 14.9243 9.70404 14.923 8C14.9243 6.29596 14.2487 4.66116 13.0448 3.45521C11.8388 2.25127 10.204 1.57568 8.5 1.57704C6.79596 1.57568 5.16116 2.25127 3.95521 3.45521C2.75127 4.66116 2.07568 6.29596 2.07704 8C2.07568 9.70404 2.75127 11.3388 3.95521 12.5448C5.16116 13.7487 6.79596 14.4243 8.5 14.423ZM8.5 0.000151002C9.55238 -0.00633434 10.5956 0.196144 11.5691 0.595847C12.5426 0.99555 13.4272 1.58453 14.1714 2.32863C14.9155 3.07284 15.5044 3.95735 15.9042 4.93089C16.3039 5.90443 16.5063 6.94762 16.4999 8C16.5063 9.05238 16.3039 10.0956 15.9042 11.0691C15.5044 12.0426 14.9155 12.9272 14.1714 13.6714C13.4272 14.4155 12.5426 15.0044 11.5691 15.4042C10.5956 15.8039 9.55238 16.0063 8.5 15.9998C7.44599 16.0058 6.4014 15.8012 5.42752 15.398C4.45364 14.9949 3.57006 14.4013 2.82863 13.6521C2.0878 12.9095 1.50078 12.028 1.10122 11.0581C0.701652 10.0882 0.497396 9.04897 0.500151 8C0.493666 6.94762 0.696144 5.90443 1.09585 4.93089C1.49555 3.95735 2.08453 3.07284 2.82863 2.32863C3.57284 1.58453 4.45735 0.99555 5.43089 0.595847C6.40443 0.196144 7.44762 -0.00633434 8.5 0.000151002Z" fill="#7A7A7A"/>
<path d="M8.9135 3.98085V8.18751L12.5192 10.3285L11.9183 11.3429L7.7116 8.78846V3.98085H8.9135Z" fill="#7A7A7A"/>
</svg>
