<svg width="40" height="40" viewBox="0 0 40 40" fill="none" xmlns="http://www.w3.org/2000/svg">
<rect width="40" height="40" rx="20" fill="#FC8B49" fill-opacity="0.15"/>
<path fill-rule="evenodd" clip-rule="evenodd" d="M20 18.7309C19.3031 18.7309 18.7381 19.2991 18.7381 20C18.7381 20.7009 19.3031 21.2691 20 21.2691C20.6969 21.2691 21.2619 20.7009 21.2619 20C21.2619 19.2991 20.6969 18.7309 20 18.7309ZM17.2239 20C17.2239 18.458 18.4668 17.208 20 17.208C21.5332 17.208 22.7761 18.458 22.7761 20C22.7761 21.542 21.5332 22.792 20 22.792C18.4668 22.792 17.2239 21.542 17.2239 20Z" fill="#FC8B49"/>
<path fill-rule="evenodd" clip-rule="evenodd" d="M27.6199 13.3005C27.9537 13.0472 28.4285 13.114 28.6803 13.4498C30.049 15.2741 30.852 17.5461 30.852 20C30.852 22.4539 30.049 24.7259 28.6803 26.5502C28.4285 26.886 27.9537 26.9528 27.6199 26.6995C27.2861 26.4462 27.2197 25.9687 27.4715 25.633C28.6468 24.0664 29.3378 22.1149 29.3378 20C29.3378 17.8851 28.6468 15.9336 27.4715 14.367C27.2197 14.0313 27.2861 13.5538 27.6199 13.3005Z" fill="#FC8B49"/>
<path fill-rule="evenodd" clip-rule="evenodd" d="M12.3801 13.3005C12.7139 13.5538 12.7803 14.0313 12.5285 14.367C11.3532 15.9336 10.6622 17.8851 10.6622 20C10.6622 22.1149 11.3532 24.0664 12.5285 25.633C12.7803 25.9687 12.7139 26.4462 12.3801 26.6995C12.0463 26.9528 11.5715 26.886 11.3197 26.5502C9.95104 24.7259 9.14798 22.4539 9.14798 20C9.14798 17.5461 9.95104 15.2741 11.3197 13.4498C11.5715 13.114 12.0463 13.0472 12.3801 13.3005Z" fill="#FC8B49"/>
<path fill-rule="evenodd" clip-rule="evenodd" d="M24.3913 15.7359C24.7258 15.4835 25.2003 15.5517 25.4512 15.8881C26.3027 17.0299 26.8141 18.4581 26.8141 20C26.8141 21.5419 26.3027 22.9701 25.4512 24.1119C25.2003 24.4483 24.7258 24.5165 24.3913 24.2641C24.0568 24.0118 23.989 23.5345 24.2398 23.1981C24.9027 22.3093 25.2998 21.1993 25.2998 20C25.2998 18.8007 24.9027 17.6907 24.2398 16.8019C23.989 16.4655 24.0568 15.9882 24.3913 15.7359Z" fill="#FC8B49"/>
<path fill-rule="evenodd" clip-rule="evenodd" d="M15.6087 15.7359C15.9432 15.9882 16.011 16.4655 15.7602 16.8019C15.0973 17.6907 14.7002 18.8007 14.7002 20C14.7002 21.1993 15.0973 22.3093 15.7602 23.1981C16.011 23.5345 15.9432 24.0118 15.6087 24.2641C15.2742 24.5165 14.7997 24.4483 14.5488 24.1119C13.6973 22.9701 13.1859 21.5419 13.1859 20C13.1859 18.4581 13.6973 17.0299 14.5488 15.8881C14.7997 15.5517 15.2742 15.4835 15.6087 15.7359Z" fill="#FC8B49"/>
<path fill-rule="evenodd" clip-rule="evenodd" d="M11.201 13.3621C11.5018 12.9611 12.0702 12.8805 12.47 13.1839C12.8685 13.4863 12.9471 14.0549 12.6472 14.4547C11.4906 15.9964 10.8102 17.9173 10.8102 20C10.8102 22.0827 11.4906 24.0036 12.6472 25.5453C12.9471 25.9451 12.8685 26.5137 12.47 26.8161C12.0702 27.1195 11.5018 27.0389 11.201 26.6379C9.81369 24.7887 9 22.4861 9 20C9 17.5139 9.81369 15.2113 11.201 13.3621ZM12.2902 13.4172C12.0223 13.2139 11.6413 13.267 11.4384 13.5374C10.0884 15.337 9.29596 17.5783 9.29596 20C9.29596 22.4217 10.0884 24.663 11.4384 26.4626C11.6413 26.733 12.0223 26.7861 12.2902 26.5828C12.5593 26.3787 12.6136 25.9923 12.4098 25.7207C11.2159 24.1292 10.5142 22.1471 10.5142 20C10.5142 17.8529 11.2159 15.8708 12.4098 14.2793C12.6136 14.0077 12.5593 13.6213 12.2902 13.4172ZM27.53 13.1839C27.9298 12.8805 28.4982 12.9611 28.799 13.3621C30.1863 15.2113 31 17.5139 31 20C31 22.4861 30.1863 24.7887 28.799 26.6379C28.4982 27.0389 27.9298 27.1195 27.53 26.8161C27.1315 26.5137 27.0529 25.9451 27.3528 25.5453C28.5094 24.0036 29.1898 22.0827 29.1898 20C29.1898 17.9173 28.5094 15.9964 27.3528 14.4547C27.0529 14.0549 27.1315 13.4863 27.53 13.1839ZM28.5616 13.5374C28.3587 13.267 27.9777 13.2139 27.7098 13.4172C27.4407 13.6213 27.3864 14.0077 27.5902 14.2793C28.7841 15.8708 29.4858 17.8529 29.4858 20C29.4858 22.1471 28.7841 24.1292 27.5902 25.7207C27.3864 25.9923 27.4407 26.3787 27.7098 26.5828C27.9777 26.7861 28.3587 26.733 28.5616 26.4626C29.9116 24.663 30.704 22.4217 30.704 20C30.704 17.5783 29.9116 15.337 28.5616 13.5374ZM14.4298 15.8008C14.7294 15.399 15.2977 15.3168 15.6983 15.6189C16.0977 15.9202 16.1779 16.4886 15.8791 16.8892C15.2345 17.7536 14.8482 18.8332 14.8482 20C14.8482 21.1668 15.2345 22.2463 15.8791 23.1108C16.1779 23.5114 16.0977 24.0798 15.6983 24.3811C15.2977 24.6832 14.7294 24.601 14.4298 24.1992C13.5602 23.0331 13.038 21.5745 13.038 20C13.038 18.4255 13.5602 16.9669 14.4298 15.8008ZM15.5192 15.8528C15.2507 15.6503 14.8699 15.7044 14.6677 15.9755C13.8345 17.0929 13.3339 18.4906 13.3339 20C13.3339 21.5094 13.8345 22.9071 14.6677 24.0245C14.8699 24.2956 15.2507 24.3497 15.5192 24.1472C15.7888 23.9439 15.8442 23.5577 15.6412 23.2855C14.9602 22.3723 14.5522 21.2318 14.5522 20C14.5522 18.7682 14.9602 17.6277 15.6412 16.7145C15.8442 16.4423 15.7888 16.0561 15.5192 15.8528ZM24.3017 15.6189C24.7023 15.3168 25.2706 15.399 25.5702 15.8008C26.4398 16.9669 26.962 18.4255 26.962 20C26.962 21.5745 26.4398 23.0331 25.5702 24.1992C25.2706 24.601 24.7023 24.6832 24.3017 24.3811C23.9023 24.0798 23.8221 23.5114 24.1209 23.1108C24.7655 22.2463 25.1518 21.1668 25.1518 20C25.1518 18.8332 24.7655 17.7536 24.1209 16.8892C23.8221 16.4886 23.9023 15.9202 24.3017 15.6189ZM25.3323 15.9755C25.1301 15.7044 24.7493 15.6503 24.4808 15.8528C24.2112 16.0561 24.1558 16.4423 24.3588 16.7145C25.0398 17.6277 25.4478 18.7682 25.4478 20C25.4478 21.2318 25.0398 22.3723 24.3588 23.2855C24.1558 23.5577 24.2112 23.9439 24.4808 24.1472C24.7493 24.3497 25.1301 24.2956 25.3323 24.0245C26.1655 22.9071 26.6661 21.5094 26.6661 20C26.6661 18.4906 26.1655 17.0929 25.3323 15.9755ZM17.0759 20C17.0759 18.3788 18.3832 17.0612 20 17.0612C21.6168 17.0612 22.9241 18.3788 22.9241 20C22.9241 21.6212 21.6168 22.9388 20 22.9388C18.3832 22.9388 17.0759 21.6212 17.0759 20ZM20 17.3549C18.5504 17.3549 17.3719 18.5373 17.3719 20C17.3719 21.4627 18.5504 22.6451 20 22.6451C21.4496 22.6451 22.6281 21.4627 22.6281 20C22.6281 18.5373 21.4496 17.3549 20 17.3549ZM20 18.8778C19.3867 18.8778 18.8861 19.3783 18.8861 20C18.8861 20.6217 19.3867 21.1222 20 21.1222C20.6133 21.1222 21.1139 20.6217 21.1139 20C21.1139 19.3783 20.6133 18.8778 20 18.8778ZM18.5902 20C18.5902 19.2199 19.2195 18.5841 20 18.5841C20.7805 18.5841 21.4098 19.2199 21.4098 20C21.4098 20.7801 20.7805 21.4159 20 21.4159C19.2195 21.4159 18.5902 20.7801 18.5902 20Z" fill="#FC8B49"/>
</svg>
