<svg width="41" height="40" viewBox="0 0 41 40" fill="none" xmlns="http://www.w3.org/2000/svg">
<rect x="0.200195" width="40" height="40" rx="20" fill="#795CEA" fill-opacity="0.15"/>
<path d="M20.3999 30C14.8836 30 10.3999 25.5163 10.3999 20C10.3999 14.4837 14.8836 10 20.3999 10C25.9162 10 30.3999 14.4837 30.3999 20C30.3999 25.5163 25.9069 30 20.3999 30ZM20.3999 11.3953C15.6557 11.3953 11.7953 15.2558 11.7953 20C11.7953 24.7442 15.6557 28.6047 20.3999 28.6047C25.1441 28.6047 29.0046 24.7442 29.0046 20C29.0046 15.2558 25.1441 11.3953 20.3999 11.3953Z" fill="#795CEA"/>
<path d="M22.5394 20.8837C22.3534 20.8837 22.1766 20.8093 22.0464 20.6791L14.4371 13.0512C14.1673 12.7814 14.1673 12.3349 14.4371 12.0651C14.7069 11.7953 15.1534 11.7953 15.4232 12.0651L21.8511 18.5023L21.8604 15.9535C21.8604 15.5721 22.1766 15.2558 22.558 15.2558C22.9394 15.2279 23.2557 15.5721 23.2557 15.9535L23.2464 20.186C23.2464 20.4651 23.079 20.7256 22.8185 20.8279C22.7255 20.8651 22.6325 20.8837 22.5394 20.8837Z" fill="#795CEA"/>
<path d="M25.8604 28.1302C25.6836 28.1302 25.5069 28.0651 25.3673 27.9256L18.9394 21.4884L18.9301 24.0372C18.9301 24.4186 18.6139 24.7349 18.2325 24.7349C17.8511 24.7349 17.5348 24.4186 17.5348 24.0372L17.5441 19.8047C17.5441 19.5256 17.7115 19.2651 17.972 19.1628C18.2325 19.0512 18.5301 19.1163 18.7348 19.3116L26.3441 26.9395C26.6139 27.2093 26.6139 27.6558 26.3441 27.9256C26.2232 28.0651 26.0371 28.1302 25.8604 28.1302Z" fill="#795CEA"/>
<path d="M20.3999 30C14.8836 30 10.3999 25.5163 10.3999 20C10.3999 14.4837 14.8836 10 20.3999 10C25.9162 10 30.3999 14.4837 30.3999 20C30.3999 25.5163 25.9069 30 20.3999 30ZM20.3999 11.3953C15.6557 11.3953 11.7953 15.2558 11.7953 20C11.7953 24.7442 15.6557 28.6047 20.3999 28.6047C25.1441 28.6047 29.0046 24.7442 29.0046 20C29.0046 15.2558 25.1441 11.3953 20.3999 11.3953Z" stroke="#795CEA" stroke-width="0.3"/>
<path d="M22.5394 20.8837C22.3534 20.8837 22.1766 20.8093 22.0464 20.6791L14.4371 13.0512C14.1673 12.7814 14.1673 12.3349 14.4371 12.0651C14.7069 11.7953 15.1534 11.7953 15.4232 12.0651L21.8511 18.5023L21.8604 15.9535C21.8604 15.5721 22.1766 15.2558 22.558 15.2558C22.9394 15.2279 23.2557 15.5721 23.2557 15.9535L23.2464 20.186C23.2464 20.4651 23.079 20.7256 22.8185 20.8279C22.7255 20.8651 22.6325 20.8837 22.5394 20.8837Z" stroke="#795CEA" stroke-width="0.3"/>
<path d="M25.8604 28.1302C25.6836 28.1302 25.5069 28.0651 25.3673 27.9256L18.9394 21.4884L18.9301 24.0372C18.9301 24.4186 18.6139 24.7349 18.2325 24.7349C17.8511 24.7349 17.5348 24.4186 17.5348 24.0372L17.5441 19.8047C17.5441 19.5256 17.7115 19.2651 17.972 19.1628C18.2325 19.0512 18.5301 19.1163 18.7348 19.3116L26.3441 26.9395C26.6139 27.2093 26.6139 27.6558 26.3441 27.9256C26.2232 28.0651 26.0371 28.1302 25.8604 28.1302Z" stroke="#795CEA" stroke-width="0.3"/>
</svg>
