<svg width="41" height="40" viewBox="0 0 41 40" fill="none" xmlns="http://www.w3.org/2000/svg">
<rect x="0.799805" width="40" height="40" rx="20" fill="#06B853" fill-opacity="0.15"/>
<path fill-rule="evenodd" clip-rule="evenodd" d="M20.3999 17.8089C18.9136 17.8089 17.7136 18.7894 17.7136 20.0039C17.7136 21.2183 18.9136 22.1989 20.3999 22.1989C21.8862 22.1989 23.0862 21.2183 23.0862 20.0039C23.0862 18.7894 21.8862 17.8089 20.3999 17.8089ZM16.2898 20.0039C16.2898 18.1469 18.1273 16.6454 20.3999 16.6454C22.6725 16.6454 24.51 18.1469 24.51 20.0039C24.51 21.8609 22.6725 23.3623 20.3999 23.3623C18.1273 23.3623 16.2898 21.8609 16.2898 20.0039Z" fill="#06B853"/>
<path fill-rule="evenodd" clip-rule="evenodd" d="M11.1522 17.6747C13.4217 14.7596 16.7473 13 20.3999 13C24.0526 13 27.3784 14.7597 29.648 17.675C30.1653 18.3377 30.3999 19.1865 30.3999 20C30.3999 20.8135 30.1653 21.6623 29.648 22.325C27.3784 25.2403 24.0526 27 20.3999 27C16.7472 27 13.4214 25.2403 11.1519 22.325C10.6346 21.6623 10.3999 20.8135 10.3999 20C10.3999 19.1863 10.6346 18.3374 11.1522 17.6747ZM20.3999 14.1634C17.3512 14.1634 14.4311 15.6303 12.3532 18.2995L12.3526 18.3002C12.016 18.7311 11.8237 19.3479 11.8237 20C11.8237 20.6521 12.016 21.2689 12.3526 21.6998L12.3532 21.7005C14.4311 24.3697 17.3512 25.8366 20.3999 25.8366C23.4486 25.8366 26.3687 24.3697 28.4466 21.7005L28.4472 21.6998C28.7838 21.2689 28.9761 20.6521 28.9761 20C28.9761 19.3479 28.7838 18.7311 28.4472 18.3002L28.4466 18.2995C26.3687 15.6303 23.4486 14.1634 20.3999 14.1634Z" fill="#06B853"/>
<path fill-rule="evenodd" clip-rule="evenodd" d="M20.3999 17.8089C18.9136 17.8089 17.7136 18.7894 17.7136 20.0039C17.7136 21.2183 18.9136 22.1989 20.3999 22.1989C21.8862 22.1989 23.0862 21.2183 23.0862 20.0039C23.0862 18.7894 21.8862 17.8089 20.3999 17.8089ZM16.2898 20.0039C16.2898 18.1469 18.1273 16.6454 20.3999 16.6454C22.6725 16.6454 24.51 18.1469 24.51 20.0039C24.51 21.8609 22.6725 23.3623 20.3999 23.3623C18.1273 23.3623 16.2898 21.8609 16.2898 20.0039Z" stroke="#06B853" stroke-width="0.5" stroke-linecap="round" stroke-linejoin="round"/>
<path fill-rule="evenodd" clip-rule="evenodd" d="M11.1522 17.6747C13.4217 14.7596 16.7473 13 20.3999 13C24.0526 13 27.3784 14.7597 29.648 17.675C30.1653 18.3377 30.3999 19.1865 30.3999 20C30.3999 20.8135 30.1653 21.6623 29.648 22.325C27.3784 25.2403 24.0526 27 20.3999 27C16.7472 27 13.4214 25.2403 11.1519 22.325C10.6346 21.6623 10.3999 20.8135 10.3999 20C10.3999 19.1863 10.6346 18.3374 11.1522 17.6747ZM20.3999 14.1634C17.3512 14.1634 14.4311 15.6303 12.3532 18.2995L12.3526 18.3002C12.016 18.7311 11.8237 19.3479 11.8237 20C11.8237 20.6521 12.016 21.2689 12.3526 21.6998L12.3532 21.7005C14.4311 24.3697 17.3512 25.8366 20.3999 25.8366C23.4486 25.8366 26.3687 24.3697 28.4466 21.7005L28.4472 21.6998C28.7838 21.2689 28.9761 20.6521 28.9761 20C28.9761 19.3479 28.7838 18.7311 28.4472 18.3002L28.4466 18.2995C26.3687 15.6303 23.4486 14.1634 20.3999 14.1634Z" stroke="#06B853" stroke-width="0.5" stroke-linecap="round" stroke-linejoin="round"/>
</svg>
