<svg width="41" height="40" viewBox="0 0 41 40" fill="none" xmlns="http://www.w3.org/2000/svg">
<rect x="0.600098" width="40" height="40" rx="20" fill="#F2B93D" fill-opacity="0.15"/>
<path fill-rule="evenodd" clip-rule="evenodd" d="M16.4129 15.1009C16.1888 15.1009 15.9761 15.1169 15.7744 15.148L15.7554 15.1506C14.7395 15.2781 13.9409 15.713 13.3941 16.3546C12.8459 16.9978 12.5138 17.8925 12.5138 19V23.5872C12.5138 24.8069 12.9174 25.77 13.5737 26.4263C14.2301 27.0826 15.1931 27.4862 16.4129 27.4862H25.5872C26.807 27.4862 27.77 27.0826 28.4263 26.4263C29.0827 25.77 29.4863 24.8069 29.4863 23.5872V19C29.4863 17.885 29.1484 16.9847 28.5915 16.3394C28.0359 15.6956 27.2249 15.2618 26.1958 15.1422C26.1845 15.1409 26.1733 15.1393 26.1621 15.1374C25.9971 15.1099 25.8115 15.1009 25.5872 15.1009H16.4129ZM15.5746 13.7864C15.8469 13.745 16.1265 13.7248 16.4129 13.7248H25.5872C25.8346 13.7248 26.1016 13.7337 26.3711 13.7772C27.7019 13.9355 28.8344 14.5146 29.6333 15.4404C30.4343 16.3685 30.8624 17.6012 30.8624 19V23.5872C30.8624 25.1197 30.3486 26.4502 29.3994 27.3994C28.4502 28.3485 27.1197 28.8624 25.5872 28.8624H16.4129C14.8804 28.8624 13.5498 28.3485 12.6006 27.3994C11.6515 26.4502 11.1376 25.1197 11.1376 23.5872V19C11.1376 17.612 11.5578 16.3875 12.3468 15.4619C13.1352 14.5369 14.2552 13.954 15.5746 13.7864Z" fill="#F2B93D"/>
<path fill-rule="evenodd" clip-rule="evenodd" d="M19.6708 11.2486L17.2022 13.7248H25.425C25.3034 13.417 25.115 13.1286 24.8581 12.8757L24.8514 12.8691L23.2484 11.2477C22.26 10.2688 20.6587 10.2691 19.6708 11.2486ZM15.7166 13.2658L18.7 10.2731C20.2252 8.75909 22.6948 8.7591 24.22 10.2731L24.2246 10.2777L25.8269 11.8984C26.5368 12.5989 26.919 13.4954 26.9638 14.4256C26.9738 14.6334 26.8893 14.8346 26.7338 14.9729C26.5783 15.1111 26.3687 15.1716 26.1634 15.1374C25.9984 15.1099 25.8128 15.1009 25.5885 15.1009H16.4142C16.1901 15.1009 15.9774 15.1169 15.7757 15.148C15.5214 15.1871 15.2666 15.0811 15.115 14.8732C14.9635 14.6653 14.9406 14.3903 15.0556 14.1602C15.2245 13.8225 15.4575 13.5249 15.7166 13.2658Z" fill="#F2B93D"/>
<path fill-rule="evenodd" clip-rule="evenodd" d="M24.8991 21.2936C24.8991 19.9044 26.0329 18.7706 27.422 18.7706H30.1743C30.5543 18.7706 30.8624 19.0787 30.8624 19.4587C30.8624 19.8387 30.5543 20.1468 30.1743 20.1468H27.422C26.7929 20.1468 26.2753 20.6644 26.2753 21.2936C26.2753 21.9227 26.7929 22.4404 27.422 22.4404H30.1743C30.5543 22.4404 30.8624 22.7484 30.8624 23.1284C30.8624 23.5084 30.5543 23.8165 30.1743 23.8165H27.422C26.0329 23.8165 24.8991 22.6828 24.8991 21.2936Z" fill="#F2B93D"/>
<path fill-rule="evenodd" clip-rule="evenodd" d="M18.6031 10.1755C20.1819 8.60817 22.7381 8.60818 24.3169 10.1755L24.3224 10.1809L25.9236 11.8004C25.9238 11.8006 25.9234 11.8002 25.9236 11.8004C26.4855 12.3552 26.8501 13.03 27.0108 13.7479C28.1047 13.9969 29.0427 14.5454 29.7375 15.3505C30.5628 16.3069 31 17.5728 31 19V23.5872C31 25.1509 30.4752 26.5182 29.4967 27.4967C28.5182 28.4752 27.1509 29 25.5872 29H16.4128C14.8491 29 13.4818 28.4752 12.5033 27.4967C11.5248 26.5182 11 25.1509 11 23.5872V19C11 17.584 11.429 16.3265 12.242 15.3726C12.9741 14.5138 13.9817 13.9436 15.1611 13.7135C15.298 13.5152 15.454 13.3338 15.6193 13.1685L18.6031 10.1755ZM15.8139 13.3631C15.7227 13.4543 15.6352 13.55 15.5531 13.6504C15.5539 13.6503 15.5548 13.6502 15.5556 13.6501C15.8346 13.6078 16.1206 13.5872 16.4128 13.5872H17.145L19.5733 11.1514C20.6149 10.1188 22.3032 10.1179 23.3452 11.1499L23.3462 11.1509L24.9479 12.7711L24.9493 12.7724L24.9546 12.7776C24.9546 12.7776 24.9546 12.7776 24.9546 12.7776C25.2007 13.0199 25.3879 13.294 25.5166 13.5872H25.5872C25.8366 13.5872 26.111 13.5961 26.3902 13.6409C26.4992 13.6539 26.6069 13.6697 26.7133 13.6882C26.5515 13.0656 26.2228 12.4824 25.7302 11.9964L25.729 11.9952L24.1276 10.3753L24.1267 10.3744L24.123 10.3708C24.123 10.3708 24.123 10.3708 24.123 10.3708C22.6516 8.91013 20.2688 8.91003 18.7972 10.3706C18.7971 10.3706 18.7973 10.3705 18.7972 10.3706L15.8139 13.3631ZM26.7764 13.9796C26.6384 13.9528 26.4978 13.9308 26.3548 13.9138L26.3492 13.9131C26.0903 13.8714 25.8318 13.8624 25.5872 13.8624H25.4269C25.4262 13.8624 25.4256 13.8624 25.4249 13.8624H17.2022C17.2015 13.8624 17.2009 13.8624 17.2002 13.8624H16.4128C16.133 13.8624 15.8603 13.8821 15.5953 13.9224L15.592 13.9229C15.5023 13.9343 15.4135 13.9476 15.3258 13.9629C15.2724 14.0465 15.2232 14.1327 15.1787 14.2217C15.0866 14.4058 15.105 14.6258 15.2262 14.7922C15.3418 14.9507 15.5325 15.0352 15.7263 15.0156C15.73 15.0151 15.7336 15.0146 15.7373 15.0142L15.7544 15.0118C15.9632 14.9797 16.1825 14.9633 16.4128 14.9633H25.5872C25.6014 14.9633 25.6154 14.9633 25.6294 14.9634C25.6533 14.9635 25.6769 14.9638 25.7002 14.9641C25.8804 14.9669 26.0395 14.9773 26.186 15.0017C26.3502 15.0291 26.518 14.9807 26.6423 14.87C26.7667 14.7594 26.8344 14.5985 26.8263 14.4322C26.819 14.2802 26.8023 14.1291 26.7764 13.9796ZM25.6682 15.239C25.655 15.2388 25.6417 15.2387 25.6282 15.2386C25.6151 15.2386 25.6019 15.2385 25.5884 15.2385H16.4141C16.1966 15.2385 15.991 15.2541 15.7966 15.284C15.7837 15.286 15.7708 15.2876 15.758 15.289C14.7799 15.4149 14.0187 15.8339 13.4988 16.4439C12.9746 17.0589 12.6514 17.9206 12.6514 19V23.5872C12.6514 24.7756 13.0439 25.7019 13.671 26.329C14.2981 26.9561 15.2244 27.3486 16.4128 27.3486H25.5872C26.7756 27.3486 27.7019 26.9561 28.329 26.329C28.89 25.768 29.2633 24.9675 29.3357 23.9541H27.422C25.9568 23.9541 24.7615 22.7588 24.7615 21.2936C24.7615 19.8284 25.9568 18.633 27.422 18.633H29.3357C29.2701 17.7169 28.9584 16.9753 28.4873 16.4294C27.9563 15.8141 27.1781 15.3949 26.1799 15.2789C26.1664 15.2773 26.1529 15.2754 26.1395 15.2732C26.0048 15.2507 25.8526 15.241 25.6682 15.239ZM29.6116 18.633C29.5453 17.6559 29.2134 16.8495 28.6957 16.2495C28.2244 15.7034 27.5793 15.3051 26.7858 15.1087C26.7992 15.0981 26.8124 15.0871 26.8252 15.0757C27.0118 14.9098 27.1133 14.6684 27.1013 14.419C27.0952 14.2932 27.0832 14.168 27.0652 14.0438C28.0565 14.2923 28.9002 14.8015 29.5291 15.5303C30.2756 16.3952 30.6918 17.5371 30.7229 18.8416C30.577 18.7119 30.3849 18.633 30.1743 18.633H29.6116ZM29.3478 18.9083H27.422C26.1088 18.9083 25.0367 19.9804 25.0367 21.2936C25.0367 22.6068 26.1088 23.6789 27.422 23.6789H29.3478C29.3484 23.6485 29.3486 23.6179 29.3486 23.5872V22.578H27.422C26.7169 22.578 26.1376 21.9987 26.1376 21.2936C26.1376 20.5884 26.7169 20.0092 27.422 20.0092H29.3486V19C29.3486 18.9692 29.3484 18.9387 29.3478 18.9083ZM29.6239 20.0092V19C29.6239 18.9693 29.6236 18.9387 29.6231 18.9083H30.1743C30.4783 18.9083 30.7248 19.1547 30.7248 19.4587C30.7248 19.7627 30.4783 20.0092 30.1743 20.0092H29.6239ZM29.3486 20.2844H27.422C26.8689 20.2844 26.4128 20.7404 26.4128 21.2936C26.4128 21.8467 26.8689 22.3028 27.422 22.3028H29.3486V20.2844ZM29.6239 22.3028V20.2844H30.1743C30.3858 20.2844 30.5787 20.2049 30.7248 20.0742V22.513C30.5787 22.3823 30.3858 22.3028 30.1743 22.3028H29.6239ZM29.6239 22.578V23.5872C29.6239 23.6179 29.6236 23.6485 29.6231 23.6789H30.1743C30.4783 23.6789 30.7248 23.4325 30.7248 23.1284C30.7248 22.8244 30.4783 22.578 30.1743 22.578H29.6239ZM30.7229 23.7456C30.577 23.8753 30.3849 23.9541 30.1743 23.9541H29.6116C29.5384 25.0347 29.1408 25.9064 28.5236 26.5236C27.838 27.2092 26.8383 27.6239 25.5872 27.6239H16.4128C15.1617 27.6239 14.162 27.2092 13.4764 26.5236C12.7908 25.838 12.3761 24.8383 12.3761 23.5872V19C12.3761 17.8644 12.7171 16.9368 13.2893 16.2653C13.7524 15.7221 14.3863 15.3236 15.1674 15.1222C15.106 15.075 15.0508 15.0187 15.0038 14.9543C14.8219 14.7048 14.7944 14.3748 14.9325 14.0986C14.9426 14.0784 14.9529 14.0584 14.9634 14.0385C13.9488 14.2856 13.088 14.8044 12.4515 15.5512C11.6866 16.4485 11.2752 17.6401 11.2752 19V23.5872C11.2752 25.0884 11.7781 26.3822 12.6979 27.3021C13.6178 28.2219 14.9116 28.7248 16.4128 28.7248H25.5872C27.0884 28.7248 28.3822 28.2219 29.3021 27.3021C30.1894 26.4147 30.6887 25.1794 30.7229 23.7456ZM25.2124 13.5872C25.1013 13.3676 24.9515 13.1607 24.7615 12.9738L24.7535 12.9659L23.1515 11.3455C23.1513 11.3453 23.1517 11.3456 23.1515 11.3455C22.2169 10.4203 20.7021 10.4202 19.7679 11.346C19.7678 11.3461 19.768 11.3459 19.7679 11.346L17.5337 13.5872H25.2124Z" fill="#F2B93D"/>
</svg>
